<svg id="ƒŒƒCƒ__1" data-name="ƒŒƒCƒ„[_1" xmlns="http://www.w3.org/2000/svg" viewBox="0 0 6000 4000">
  <defs>
    <style>
      .cls-1 {
        fill: #e6e6e6;
      }

      .cls-2 {
        fill: #ccc;
      }

      .cls-3 {
        fill: #b3b3b3;
      }

      .cls-4 {
        fill: #4d4d4d;
      }

      .cls-5 {
        fill: #fff;
      }

      .cls-6 {
        fill: #999;
      }

      .cls-7 {
        fill: none;
      }

      .cls-8 {
        fill: #f2f2f2;
      }

      .cls-9 {
        fill: gray;
      }

      .cls-10 {
        fill: #65a1c6;
      }

      .cls-11 {
        fill: #8bb9e3;
      }

      .cls-12 {
        fill: #666;
      }

      .cls-13 {
        fill: #231815;
      }

      .cls-14 {
        fill: #efefef;
      }

      .cls-15 {
        fill: #595757;
      }

      .cls-16 {
        fill: #f39800;
      }

      .cls-17 {
        fill: #eaf6fd;
      }

      .cls-18 {
        fill: #333;
      }

      .cls-19 {
        fill: #2687b1;
      }

      .cls-20 {
        fill: #c13432;
      }
    </style>
  </defs>
  <g>
    <polygon class="cls-1" points="5283.2 1898.44 4995.97 1822.4 4995.97 1421.03 5283.2 1497.06 5283.2 1898.44"/>
    <path class="cls-2" d="M5628.5,1647.15s-3.06,45.84-12.23,64.17-64.16,64.17-64.16,64.17l-143.62,134.45s-25.11,16.12-42.78,18.33c-24.45,3.06-127.67-39.46-127.67-39.46l2.38-354.72Z"/>
    <g>
      <path class="cls-1" d="M5575,1711.32a84,84,0,1,1-84-84A84,84,0,0,1,5575,1711.32Z"/>
      <path class="cls-2" d="M5544.46,1711.32a53.47,53.47,0,1,1-53.47-53.47A53.47,53.47,0,0,1,5544.46,1711.32Z"/>
    </g>
    <g>
      <rect class="cls-3" x="2355.85" y="1314.07" width="325.94" height="517.43"/>
      <g>
        <path class="cls-1" d="M2394.54,1560.11c0,5.6-5.5,10.18-12.22,10.18h-30.56c-6.73,0-12.22-4.58-12.22-10.18s5.49-10.19,12.22-10.19h30.56C2389,1549.92,2394.54,1554.51,2394.54,1560.11Z"/>
        <rect class="cls-1" x="2392.5" y="1509.18" width="93.71" height="101.86"/>
        <g>
          <path class="cls-4" d="M2467.82,1572.28c3.79,7,.49,11.63-7.33,10.41s-18.65,2.47-24.08,8.21-10.91,4-12.17-3.75-8.11-17-15.25-20.38-7.22-9.12-.18-12.72,13.64-13,14.66-20.81,6.44-9.69,12-4.1,16.55,9,24.32,7.51,11.2,3.13,7.63,10.19S2464.05,1565.34,2467.82,1572.28Z"/>
          <path class="cls-5" d="M2452.84,1554.62a14.33,14.33,0,1,1-18.32-8.64A14.33,14.33,0,0,1,2452.84,1554.62Z"/>
        </g>
      </g>
      <g>
        <path class="cls-1" d="M2394.54,1688.62c0,5.61-5.5,10.19-12.22,10.19h-30.56c-6.73,0-12.22-4.58-12.22-10.19s5.49-10.18,12.22-10.18h30.56C2389,1678.44,2394.54,1683,2394.54,1688.62Z"/>
        <rect class="cls-1" x="2392.5" y="1637.69" width="93.71" height="101.86"/>
        <g>
          <path class="cls-4" d="M2450.42,1716c-1.8,7.71-7.37,9-12.38,2.9s-15.58-10.56-23.46-9.89-10.84-4.23-6.58-10.89,5.23-18.07,2.16-25.36.67-11.62,8.32-9.62,18.8-.62,24.78-5.79,11.27-3,11.73,4.94,6.39,17.7,13.16,21.78,6.29,9.8-1.07,12.68S2452.22,1708.28,2450.42,1716Z"/>
          <path class="cls-5" d="M2451,1692.82a14.32,14.32,0,1,1-7.93-18.64A14.32,14.32,0,0,1,2451,1692.82Z"/>
        </g>
      </g>
    </g>
    <g>
      <rect class="cls-2" x="2919.09" y="852.77" width="109.15" height="1059.31" transform="translate(815.01 3851.02) rotate(-73.77)"/>
      <g>
        <path class="cls-6" d="M3593,1616.44c-2.1,7.21-11.74,10.79-21.42,8l-129.09-37.58c-9.68-2.82-15.88-11-13.79-18.23l28.82-99c2.09-7.2,11.75-10.79,21.41-8l129.1,37.59c9.67,2.82,15.89,11,13.79,18.22Z"/>
        <path class="cls-1" d="M3593,1616.44c-2.1,7.21-11.74,10.79-21.42,8l-129.09-37.58c-9.68-2.82-15.88-11-13.79-18.23l28.82-99c2.09-7.2,11.75-10.79,21.41-8l129.1,37.59c9.67,2.82,15.89,11,13.79,18.22Z"/>
      </g>
    </g>
    <g>
      <path class="cls-3" d="M4088.86,1553.69c13.07,3.63,13.47,10.7.87,15.74L3780.64,1693c-12.59,5-33.66,6.49-46.81,3.24L3591.14,1661c-13.15-3.24-21.3-17.6-18.11-31.89l40.06-179.52c3.19-14.3,16.5-23,29.57-19.41Z"/>
      <path class="cls-7" d="M4089.51,1564.72c13.05,3.24,13.4,9.68.79,14.33l-309.64,114.23c-12.62,4.66-33.68,6.1-46.81,3.21l-142.47-31.34a23.69,23.69,0,0,1-17.94-29l41-163.83a24.6,24.6,0,0,1,29.66-17.85Z"/>
    </g>
    <polygon class="cls-8" points="2868.96 790.84 2844.76 735.53 2188.8 470.7 2127.68 462.55 1733.71 455.7 1589.99 413.27 1553.21 421.81 1455.43 743.68 1513.42 838.28 4820.78 1802.99 4820.78 1367.04 2868.96 790.84"/>
    <polygon class="cls-2" points="4763.74 1464.82 1557.28 548.11 1565.43 531.81 4763.74 1440.38 4763.74 1464.82"/>
    <polygon class="cls-8" points="2825.2 1292.5 2006.11 811.78 1813.96 466.63 1716.18 466.63 1716.18 641.63 1716.18 861.83 1716.18 992.21 2413.32 1402.82 2519.63 1586.44 2519.63 1880.4 2825.2 1880.4 2825.2 1295.74 2823.3 1295.74 2825.2 1292.5"/>
    <path class="cls-6" d="M2245.83,1165.37a50.93,50.93,0,1,1-50.93-50.93A50.93,50.93,0,0,1,2245.83,1165.37Z"/>
    <rect class="cls-2" x="2588.08" y="1314.07" width="154.82" height="81.49"/>
    <path class="cls-2" d="M1630.62,751.82A32.6,32.6,0,1,1,1598,719.23,32.59,32.59,0,0,1,1630.62,751.82Z"/>
    <g>
      <g>
        <path class="cls-2" d="M2012,689A16.23,16.23,0,0,1,1992,700.23L1867.3,665.46a16.23,16.23,0,0,1-11.25-19.93l11.6-41.58a16.22,16.22,0,0,1,19.93-11.24l124.72,34.77a16.23,16.23,0,0,1,11.25,19.93Z"/>
        <path class="cls-7" d="M2012,689A16.23,16.23,0,0,1,1992,700.23L1867.3,665.46a16.23,16.23,0,0,1-11.25-19.93l11.6-41.58a16.22,16.22,0,0,1,19.93-11.24l124.72,34.77a16.23,16.23,0,0,1,11.25,19.93Z"/>
      </g>
      <g>
        <path class="cls-2" d="M2652.9,867.67c-2.39,8.58-9.19,14.23-15.08,12.6l-85.93-24c-5.91-1.65-8.78-10-6.4-18.58l11.59-41.58c2.4-8.57,9.19-14.24,15.09-12.6l85.93,24c5.9,1.65,8.78,10,6.39,18.59Z"/>
        <path class="cls-7" d="M2652.9,867.67c-2.39,8.58-9.19,14.23-15.08,12.6l-85.93-24c-5.91-1.65-8.78-10-6.4-18.58l11.59-41.58c2.4-8.57,9.19-14.24,15.09-12.6l85.93,24c5.9,1.65,8.78,10,6.39,18.59Z"/>
      </g>
      <rect class="cls-2" x="2223.44" y="430.98" width="118.69" height="622.22" transform="translate(954.96 2741.76) rotate(-74.42)"/>
      <g>
        <path class="cls-2" d="M1938.07,646a54,54,0,1,1-37.49-66.45A54,54,0,0,1,1938.07,646Z"/>
        <path class="cls-3" d="M1914.32,639.36A29.29,29.29,0,1,1,1894,603.29,29.29,29.29,0,0,1,1914.32,639.36Z"/>
      </g>
      <g>
        <path class="cls-2" d="M2714.14,862.33a54,54,0,1,1-37.5-66.45A54,54,0,0,1,2714.14,862.33Z"/>
        <path class="cls-3" d="M2690.36,855.7A29.28,29.28,0,1,1,2670,819.64,29.27,29.27,0,0,1,2690.36,855.7Z"/>
      </g>
    </g>
    <path class="cls-8" d="M1712.1,850.7c0,10.6,9,19.28,20,19.28H2039c11,0,15.63-7.58,10.28-16.85L1828.59,471.25c-5.35-9.26-18.75-16.85-29.75-16.85h-66.73c-11,0-20,8.68-20,19.28Z"/>
    <path class="cls-6" d="M1862.85,806.83a34.63,34.63,0,1,1-34.63-34.63A34.62,34.62,0,0,1,1862.85,806.83Z"/>
    <g>
      <rect class="cls-1" x="3513.95" y="1603.35" width="203.72" height="411.5"/>
      <g>
        <rect class="cls-8" x="3491.54" y="1513.71" width="248.53" height="146.67" rx="18.33"/>
        <rect class="cls-7" x="3491.54" y="1513.71" width="248.53" height="146.67" rx="18.33"/>
      </g>
    </g>
    <polygon class="cls-2" points="5008.19 1839.83 4815.68 1787.88 4815.68 1378.25 5008.19 1430.19 5008.19 1839.83"/>
    <g>
      <rect class="cls-8" x="4909.39" y="583.76" width="800.59" height="1100.05" rx="24.45"/>
      <rect class="cls-3" x="4860.5" y="540.98" width="898.38" height="85.56"/>
      <rect class="cls-3" x="5074.4" y="1439.36" width="470.58" height="122.23"/>
    </g>
  </g>
  <rect class="cls-1" x="2295.32" y="1732.54" width="1865.63" height="203.96"/>
  <path class="cls-1" d="M4993.3,2344.41V2160.46a20,20,0,0,1,20-20h321.92a20,20,0,0,1,20,20v183.95h40V2160.46a60.07,60.07,0,0,0-60-60H5013.3a60.06,60.06,0,0,0-60,60v183.95Z"/>
  <path class="cls-4" d="M2010,2514.65V2665.4H1610v527.9h389.92l204-126H3367.61v-123H3389l26.58,84L3660,3064.5l19.55,53.76,108,60,108,114s245.95,48,449.91,48,395.92-48,395.92-48l84-100.77v1.85h580.4V2514.65Zm2437.44,591.61c-71.81,0-141.91-1.54-208.84-4.09l-373-49.9-310.46-108H3913.5v48h186v-48h527.9v144h114v-144h84v152.63C4748,3101.91,4628.7,3106.26,4447.39,3106.26Z"/>
  <g>
    <rect class="cls-9" x="4703.84" y="2692.34" width="323.94" height="197.96"/>
    <g>
      <rect class="cls-8" x="4757.83" y="2728.34" width="215.96" height="35.99"/>
      <rect class="cls-8" x="4757.83" y="2794.32" width="215.96" height="35.99"/>
    </g>
  </g>
  <rect class="cls-4" x="3502.58" y="2593.36" width="95.98" height="1145.77" transform="translate(185.22 6528.71) rotate(-86.7)"/>
  <polygon class="cls-8" points="4776.76 3170.33 4639.13 2538.13 4014.08 2538.13 3856.53 3154.11 3819.46 3123.81 3987.91 2465.3 4667.03 2465.3 4814.74 3143.99 4776.76 3170.33"/>
  <rect class="cls-8" x="4129.46" y="2299.05" width="1415.72" height="311.94"/>
  <path class="cls-8" d="M1654.4,1518H847.93c-45.47,0-100.25,32.73-121.81,72.79L378,2238.48c-21.52,40-39.12,110-39.12,155.43v465.56h-9.49A43.54,43.54,0,0,0,286,2902.85v319.63a43.52,43.52,0,0,0,43.35,43.37h18c13.44,27.61,41.54,46.93,74.16,46.93H1654.4c45.44,0,82.58-37.22,82.58-82.66V1600.62A82.82,82.82,0,0,0,1654.4,1518Z"/>
  <path class="cls-10" d="M908.39,1589.08c18.15-10.89,61.93-14,61.93-14l447.93-.5s100.64,4.13,120.19,21.84,13.24,61.91,13.24,61.91v444.32s-4.58,61.08-24.2,72.81C1491.06,2197.3,1400,2204.6,1400,2204.6l-764.82,102s-101.94,21.85-112.86-7.3,6.15-64.3,6.15-64.3,26.67-94,143.13-307.17S847.7,1647.9,847.7,1647.9,876.56,1608.19,908.39,1589.08Z"/>
  <path class="cls-11" d="M376.54,2261.17,432,2276.65s70.17-176.86,188.65-385.27S810.11,1574.2,810.11,1574.2l-63.39-2.54s-41,43.8-169.8,283.31S376.54,2261.17,376.54,2261.17Z"/>
  <path class="cls-12" d="M1469,2453.57H1281.55l12.14-42.55a109.91,109.91,0,0,1,8.1-12.16c4.06-5.07,12.19-6.1,12.19-6.1h123.63s9.13,0,15.21,5.08S1461,2411,1461,2411Z"/>
  <path class="cls-3" d="M843.5,3195.21H286v27.27a43.52,43.52,0,0,0,43.35,43.37h18c13.44,27.61,41.54,46.93,74.16,46.93H842.38C842.26,3273.59,842.43,3234.4,843.5,3195.21Z"/>
  <path class="cls-12" d="M1334.45,2714.46s-196.66,21.87-316.84,153-163.88,327.78-163.88,327.78H843.5c-1.07,39.19-1.24,78.38-1.12,117.57h812c45.44,0,82.58-37.22,82.58-82.66V2714.46Z"/>
  <g>
    <path class="cls-4" d="M448,2304.68l-78.68-4c-3.3-.11-23.23-1.94-62.32-26.08-29.66-18.32-33-52.32-33.11-53.76l-15.72-155.74,29.4-1.92,15.74,155.86c0,.33,2.63,25,21.66,36.73,30.5,18.84,45.38,21.1,46.48,21.24l78.39,3.94s10.18,5.65,9.9,11.25C459.33,2300.3,448,2304.68,448,2304.68Z"/>
    <path class="cls-4" d="M315.58,1807.09l-8.81,330.66s-51.94-1.5-66.64-7.56-42.15-113.5-31.36-174,43.12-133.18,61.73-143S315.58,1807.09,315.58,1807.09Z"/>
  </g>
  <g>
    <path class="cls-13" d="M4706.65,3203c0,215.11-174.4,389.5-389.53,389.5s-389.57-174.39-389.57-389.5,174.44-389.54,389.57-389.54S4706.65,2987.83,4706.65,3203Z"/>
    <path class="cls-14" d="M4578.38,3203c0,144.32-116.93,261.26-261.27,261.26S4055.82,3347.32,4055.82,3203s117-261.3,261.29-261.3S4578.38,3058.67,4578.38,3203Z"/>
    <g>
      <path class="cls-15" d="M4426.21,3032.35a18.55,18.55,0,0,0,26.64-6.24l.36-.62a20.06,20.06,0,0,0-7.33-27.32l-20.37-11.75a20.09,20.09,0,0,0-27.34,7.33l-.84,1.45a17.91,17.91,0,0,0,8.17,25.66Z"/>
      <path class="cls-15" d="M4230.05,3020.18a17.77,17.77,0,0,0,8.24-25.54l-1.42-2.46a20,20,0,0,0-27.31-7.32l-20.36,11.75a20.07,20.07,0,0,0-7.33,27.33l.7,1.2a18.74,18.74,0,0,0,26.73,6.38Z"/>
      <path class="cls-15" d="M4521.31,3204.35v9.56c-1.05,10.23,7.09,18.6,18.09,18.6h1.86a20.06,20.06,0,0,0,20-20v-23.57a20.06,20.06,0,0,0-20-20h-3c-11,0-18.83,8.92-17.39,19.83C4520.86,3188.77,4521.31,3192.26,4521.31,3204.35Z"/>
      <path class="cls-15" d="M4412.85,3384.08a18.85,18.85,0,0,0-7.82,26.41l1,1.72a20.06,20.06,0,0,0,27.32,7.33l20.41-11.77a20.07,20.07,0,0,0,7.34-27.32l-1.8-3.11a17.68,17.68,0,0,0-26.18-5.58Z"/>
      <path class="cls-15" d="M4202.42,3372.7a17.9,17.9,0,0,0-26.31,5.72l-2.12,3.66a20,20,0,0,0,7.32,27.3l20.36,11.74a20.07,20.07,0,0,0,27.33-7.33l1.57-2.71a18.68,18.68,0,0,0-7.89-26.28Z"/>
      <path class="cls-15" d="M4112.83,3204.35c0-12,.46-15.58.46-15.58,1.44-10.91-6.39-19.83-17.39-19.83h-3a20.06,20.06,0,0,0-20,20v23.57a20.06,20.06,0,0,0,20,20h1.82c11,0,19.13-8.37,18.08-18.6Z"/>
    </g>
    <circle class="cls-2" cx="4317.1" cy="3202.98" r="183.33"/>
    <path class="cls-15" d="M4386.83,3203a69.73,69.73,0,1,1-69.72-69.74A69.75,69.75,0,0,1,4386.83,3203Z"/>
    <g>
      <path class="cls-15" d="M4333.43,3111.41a14.27,14.27,0,1,1-14.25-14.22A14.3,14.3,0,0,1,4333.43,3111.41Z"/>
      <path class="cls-15" d="M4246,3143.14a14.24,14.24,0,1,1-19.52,5.16A14.2,14.2,0,0,1,4246,3143.14Z"/>
      <path class="cls-15" d="M4229.69,3234.68a14.23,14.23,0,1,1-5.26,19.43A14.17,14.17,0,0,1,4229.69,3234.68Z"/>
      <path class="cls-15" d="M4300.83,3294.53a14.25,14.25,0,1,1,14.2,14.25A14.24,14.24,0,0,1,4300.83,3294.53Z"/>
      <path class="cls-15" d="M4388.27,3262.87a14.24,14.24,0,1,1,19.47-5.21A14.26,14.26,0,0,1,4388.27,3262.87Z"/>
      <path class="cls-15" d="M4404.53,3171.29a14.22,14.22,0,1,1,5.26-19.44A14.18,14.18,0,0,1,4404.53,3171.29Z"/>
    </g>
  </g>
  <g>
    <path class="cls-13" d="M1726.74,3203c0,215.11-174.4,389.5-389.53,389.5S947.64,3418.11,947.64,3203s174.44-389.54,389.57-389.54S1726.74,2987.83,1726.74,3203Z"/>
    <path class="cls-2" d="M1598.47,3203c0,144.32-116.93,261.26-261.27,261.26S1075.91,3347.32,1075.91,3203s117-261.3,261.29-261.3S1598.47,3058.67,1598.47,3203Z"/>
    <g>
      <path class="cls-15" d="M1446.3,3032.35a18.57,18.57,0,0,0,26.65-6.24l.35-.62a20.06,20.06,0,0,0-7.33-27.32l-20.37-11.75a20.09,20.09,0,0,0-27.34,7.33l-.84,1.45a17.91,17.91,0,0,0,8.17,25.66Z"/>
      <path class="cls-15" d="M1250.14,3020.18a17.77,17.77,0,0,0,8.24-25.54l-1.41-2.46a20.05,20.05,0,0,0-27.32-7.32l-20.36,11.75a20.08,20.08,0,0,0-7.33,27.33l.7,1.2a18.74,18.74,0,0,0,26.73,6.38Z"/>
      <path class="cls-15" d="M1541.41,3204.35v9.56c-1.06,10.23,7.08,18.6,18.08,18.6h1.86a20.06,20.06,0,0,0,20-20v-23.57a20.06,20.06,0,0,0-20-20h-3c-11,0-18.83,8.92-17.39,19.83C1541,3188.77,1541.41,3192.26,1541.41,3204.35Z"/>
      <path class="cls-15" d="M1432.94,3384.08a18.84,18.84,0,0,0-7.81,26.41l1,1.72a20.06,20.06,0,0,0,27.32,7.33l20.42-11.77a20.07,20.07,0,0,0,7.33-27.32l-1.8-3.11a17.67,17.67,0,0,0-26.18-5.58Z"/>
      <path class="cls-15" d="M1222.51,3372.7a17.9,17.9,0,0,0-26.31,5.72l-2.12,3.66a20,20,0,0,0,7.32,27.3l20.37,11.74a20.06,20.06,0,0,0,27.32-7.33l1.57-2.71a18.68,18.68,0,0,0-7.88-26.28Z"/>
      <path class="cls-15" d="M1132.92,3204.35c0-12,.46-15.58.46-15.58,1.44-10.91-6.39-19.83-17.39-19.83h-3a20.06,20.06,0,0,0-20,20v23.57a20.06,20.06,0,0,0,20,20h1.83c11,0,19.13-8.37,18.07-18.6Z"/>
    </g>
    <circle class="cls-8" cx="1337.19" cy="3202.98" r="183.33"/>
    <path class="cls-15" d="M1406.92,3203a69.73,69.73,0,1,1-69.72-69.74A69.75,69.75,0,0,1,1406.92,3203Z"/>
    <g>
      <path class="cls-15" d="M1353.52,3111.41a14.27,14.27,0,1,1-14.25-14.22A14.3,14.3,0,0,1,1353.52,3111.41Z"/>
      <path class="cls-15" d="M1266.08,3143.14a14.24,14.24,0,1,1-19.52,5.16A14.2,14.2,0,0,1,1266.08,3143.14Z"/>
      <path class="cls-15" d="M1249.78,3234.68a14.23,14.23,0,1,1-5.26,19.43A14.17,14.17,0,0,1,1249.78,3234.68Z"/>
      <path class="cls-15" d="M1320.92,3294.53a14.25,14.25,0,1,1,14.2,14.25A14.24,14.24,0,0,1,1320.92,3294.53Z"/>
      <path class="cls-15" d="M1408.36,3262.87a14.24,14.24,0,1,1,19.47-5.21A14.26,14.26,0,0,1,1408.36,3262.87Z"/>
      <path class="cls-15" d="M1424.62,3171.29a14.22,14.22,0,1,1,5.26-19.44A14.18,14.18,0,0,1,1424.62,3171.29Z"/>
    </g>
  </g>
  <rect class="cls-2" x="370.67" y="2590" width="1352.38" height="47.62"/>
  <path class="cls-16" d="M333,2718c0,34.1,2.25,65.68,36.31,65.68l83.76-29.14c51-43.7,58.36-71.55,58.36-105.65v-20.73c-45.76,44-121.57,56.31-178.43,79Z"/>
  <path class="cls-17" d="M449.57,2442.81H395c-34.1,0-61.93,11.79-61.93,45.85v218.47c56.86-22.67,132.67-35,178.43-79V2485C511.46,2451,489.51,2444.94,449.57,2442.81Z"/>
  <g>
    <rect class="cls-8" x="4183.53" y="2361.38" width="406.67" height="437.04"/>
    <rect class="cls-2" x="4212.9" y="2396.93" width="347.93" height="365.93"/>
  </g>
  <g>
    <path class="cls-18" d="M3256.06,3373c0,28.69-16,52.12-35.42,52.12H2809.47c-19.48,0-35.42-23.43-35.42-52.12V2978.06c0-28.69,15.94-52.12,35.42-52.12h411.17c19.45,0,35.42,23.43,35.42,52.12Z"/>
    <rect class="cls-2" x="2949.07" y="3010.28" width="131.97" height="101.98"/>
  </g>
  <g>
    <rect class="cls-18" x="3333.12" y="2812.32" width="419.92" height="377.92"/>
    <rect class="cls-2" x="3480.09" y="2842.31" width="125.97" height="41.99"/>
  </g>
  <g>
    <path class="cls-2" d="M2683.18,3329.26c0,16.42-16.36,29.82-36.3,29.82H2225.47c-20,0-36.3-13.4-36.3-29.82v-226c0-16.43,16.34-29.84,36.3-29.84h421.41c19.94,0,36.3,13.41,36.3,29.84Z"/>
    <rect class="cls-9" x="2172.23" y="3052.27" width="527.89" height="59.06"/>
  </g>
  <g>
    <rect class="cls-19" x="2557.77" y="2806.32" width="143.97" height="215.96"/>
    <rect class="cls-8" x="2599.76" y="2848.31" width="65.99" height="53.99"/>
  </g>
  <g>
    <path class="cls-20" d="M5425.19,3088.27a108,108,0,1,1-135.27-70.86A108,108,0,0,1,5425.19,3088.27Z"/>
    <g>
      <path class="cls-8" d="M5323.64,3083a12.63,12.63,0,1,1-15.82-8.28A12.63,12.63,0,0,1,5323.64,3083Z"/>
      <path class="cls-8" d="M5298.93,3164.77a12.63,12.63,0,1,1-15.82-8.29A12.63,12.63,0,0,1,5298.93,3164.77Z"/>
      <path class="cls-8" d="M5390.54,3136.14a12.63,12.63,0,1,1-15.82-8.29A12.63,12.63,0,0,1,5390.54,3136.14Z"/>
    </g>
  </g>
  <g>
    <rect class="cls-6" x="5026.6" y="2889.07" width="125.34" height="474.26"/>
    <rect class="cls-8" x="4972.29" y="3328.75" width="233.96" height="44.46"/>
    <rect class="cls-8" x="4989" y="2661.82" width="200.53" height="568.12"/>
    <rect class="cls-1" x="4972.29" y="2617.36" width="233.96" height="74.1"/>
  </g>
  <g>
    <rect class="cls-8" x="2286.33" y="1927.12" width="1883.62" height="863.83"/>
    <path class="cls-3" d="M4133,2733.34H2323.32V2333.42H4133Zm-1799.64-10H4123V2343.42H2333.32Z"/>
    <path class="cls-3" d="M4133,2295.43H2323.32V1979.49H4133Zm-1799.64-10H4123V1989.49H2333.32Z"/>
    <g>
      <rect class="cls-3" x="2697.24" y="2182.45" width="155.97" height="77.98" rx="10"/>
      <rect class="cls-3" x="3603.06" y="2182.45" width="155.97" height="77.98" rx="10"/>
    </g>
    <g>
      <rect class="cls-3" x="2697.24" y="2398.4" width="155.97" height="77.98" rx="10"/>
      <rect class="cls-3" x="3603.06" y="2398.4" width="155.97" height="77.98" rx="10"/>
    </g>
  </g>
  <g>
    <rect class="cls-8" x="1756.71" y="1858.51" width="497.9" height="641.87"/>
    <rect class="cls-2" x="1774.7" y="2254.67" width="461.91" height="20.06"/>
    <rect class="cls-3" x="2077.87" y="2074.14" width="119.98" height="90.26"/>
  </g>
  <g>
    <rect class="cls-6" x="1910.54" y="2800.32" width="160.68" height="575.88"/>
    <rect class="cls-8" x="1840.91" y="3334.21" width="299.94" height="53.99"/>
    <rect class="cls-8" x="1862.34" y="2524.38" width="257.09" height="689.86"/>
    <rect class="cls-1" x="1840.91" y="2470.39" width="299.94" height="89.98"/>
  </g>
</svg>
