<svg xmlns="http://www.w3.org/2000/svg" viewBox="0 0 750 500"><g id="freepik--utility-poles--inject-2"><polygon points="633.37 348.57 652.43 110.62 641.23 110.62 620.15 348.57 633.37 348.57" style="fill:#263238"></polygon><rect x="607.96" y="123.21" width="75.35" height="4.92" transform="translate(1291.27 251.34) rotate(180)" style="fill:#263238"></rect><path d="M632.58,127.35c.29.78,6.82,8.27,6.82,8.27v1.75l-9.21-10Z" style="fill:#263238"></path><polygon points="664.94 127.35 647.09 138.24 647.09 135.77 662.77 127.35 664.94 127.35" style="fill:#263238"></polygon><rect x="604.53" y="143.2" width="75.35" height="4.92" transform="translate(1284.4 291.32) rotate(180)" style="fill:#263238"></rect><path d="M629.15,147.34c.29.78,6.82,8.27,6.82,8.27v1.74l-9.21-10Z" style="fill:#263238"></path><polygon points="661.51 147.34 643.66 158.22 643.66 155.76 659.33 147.34 661.51 147.34" style="fill:#263238"></polygon><polygon points="188.65 348.57 169.59 110.62 180.78 110.62 201.87 348.57 188.65 348.57" style="fill:#263238"></polygon><rect x="138.7" y="123.21" width="75.35" height="4.92" style="fill:#263238"></rect><path d="M189.43,127.35c-.29.78-6.82,8.27-6.82,8.27v1.75l9.21-10Z" style="fill:#263238"></path><polygon points="157.07 127.35 174.92 138.24 174.92 135.77 159.25 127.35 157.07 127.35" style="fill:#263238"></polygon><rect x="142.14" y="143.2" width="75.35" height="4.92" style="fill:#263238"></rect><path d="M192.87,147.34c-.29.78-6.82,8.27-6.82,8.27v1.74l9.21-10Z" style="fill:#263238"></path><polygon points="160.51 147.34 178.36 158.22 178.36 155.76 162.69 147.34 160.51 147.34" style="fill:#263238"></polygon><path d="M640.81,149.63s-.39.11-1.17.3l-3.45.8-13.29,3.05c-2.89.64-6.08,1.45-9.61,2.14l-11.49,2.32c-4.12.81-8.52,1.77-13.21,2.62l-14.87,2.62-8,1.41c-2.73.45-5.54.84-8.39,1.28l-17.81,2.69c-12.35,1.52-25.53,3.35-39.47,4.62-27.84,2.78-58.58,4.75-90.88,5.21s-63.1-.7-91-2.73l-10.34-.73-10-.95-9.76-.93c-3.2-.3-6.35-.58-9.44-1l-17.88-2.14-4.26-.51-4.15-.61-8-1.16c-5.24-.78-10.23-1.46-14.94-2.2s-9.14-1.55-13.25-2.43a112.48,112.48,0,0,1-20.64-6.22,65,65,0,0,1-12-6.48c-1.31-.84-2.21-1.62-2.86-2.1s-.94-.75-.94-.75l1,.71c.65.46,1.56,1.22,2.88,2.05a66.14,66.14,0,0,0,12,6.38A113,113,0,0,0,216.12,163c4.11.86,8.53,1.64,13.24,2.38s9.7,1.4,14.94,2.16l8,1.15,4.15.6,4.26.5,17.88,2.12c3.09.39,6.24.68,9.44,1l9.75.91,10,.94,10.34.72c27.9,2,58.67,3.2,91,2.69s63-2.41,90.84-5.17c13.93-1.25,27.1-3.07,39.45-4.57l17.81-2.66c2.85-.43,5.65-.82,8.39-1.26l8-1.39,14.87-2.59c4.69-.84,9.09-1.78,13.21-2.58l11.5-2.27c3.54-.67,6.73-1.48,9.62-2.09l13.31-3,3.46-.76Z" style="fill:#263238"></path><path d="M640.81,134.26l-1.17.29-3.45.8-13.29,3.06c-2.89.63-6.08,1.45-9.61,2.13l-11.49,2.32c-4.12.81-8.52,1.77-13.21,2.62l-14.87,2.62-8,1.41c-2.73.45-5.54.85-8.39,1.28l-17.81,2.69c-12.35,1.52-25.53,3.36-39.47,4.62-27.84,2.79-58.58,4.76-90.88,5.21s-63.1-.69-91-2.73l-10.34-.73-10-.95L288,158c-3.2-.3-6.35-.59-9.44-1l-17.88-2.15-4.26-.51-4.15-.6-8-1.17c-5.24-.77-10.23-1.46-14.94-2.2s-9.14-1.55-13.25-2.43a112.48,112.48,0,0,1-20.64-6.22,64.35,64.35,0,0,1-12-6.48c-1.31-.84-2.21-1.62-2.86-2.1s-.94-.74-.94-.74l1,.7c.65.46,1.56,1.23,2.88,2.06a66.23,66.23,0,0,0,12,6.37,113,113,0,0,0,20.62,6.13c4.11.86,8.53,1.64,13.24,2.38s9.7,1.4,14.94,2.16l8,1.15,4.15.6,4.26.51,17.88,2.11c3.09.39,6.24.68,9.44,1l9.75.91,10,.94,10.34.72c27.9,2,58.67,3.2,91,2.69s63-2.41,90.84-5.17c13.93-1.25,27.1-3.07,39.45-4.57l17.81-2.65c2.85-.44,5.65-.83,8.39-1.27l8-1.39,14.87-2.58c4.69-.84,9.09-1.78,13.21-2.58l11.5-2.28c3.54-.67,6.73-1.47,9.62-2.09l13.31-3,3.46-.75C640.41,134.33,640.81,134.26,640.81,134.26Z" style="fill:#263238"></path><path d="M276,156.08c4.31-1.05,8.7-2.1,13.12-1.86a47.29,47.29,0,0,1,6.37.95,163.08,163.08,0,0,0,19.87,3.08c5.22.37,10.75.31,15.23,3" style="fill:#e0e0e0"></path><path d="M310.16,174.7c1.88-1.21,4.27-1.24,6.51-1.23l14.86.05c3.86,0,7.94.1,11.22,2.12" style="fill:#e0e0e0"></path><path d="M178.44,147.19l-.41.2-1.22.55L172.07,150l-3.43,1.49c-1.27.52-2.66,1.05-4.14,1.63-3,1.15-6.34,2.55-10.15,3.82L148.4,159c-2.08.71-4.27,1.35-6.52,2.06-4.49,1.47-9.38,2.75-14.5,4.15-10.3,2.61-21.74,5-33.87,6.87s-23.8,2.73-34.41,3.2c-5.32.13-10.36.32-15.09.21-2.36,0-4.64,0-6.84-.09l-6.3-.27c-4-.12-7.63-.49-10.81-.73-1.59-.13-3.08-.23-4.44-.37l-3.71-.43L6.78,173l-1.34-.17a4,4,0,0,1-.45-.08s.16,0,.46,0l1.34.12,5.14.52,3.72.39c1.36.12,2.84.2,4.43.32,3.18.21,6.8.55,10.81.65l6.3.24c2.18.07,4.46,0,6.82.06,4.72.09,9.76-.11,15.07-.26,10.59-.5,22.23-1.48,34.35-3.23s23.54-4.24,33.83-6.83c5.12-1.38,10-2.64,14.49-4.09,2.25-.71,4.45-1.33,6.52-2l6-2.05c3.81-1.25,7.18-2.62,10.16-3.74,1.49-.57,2.88-1.08,4.15-1.59l3.45-1.44,4.77-2,1.25-.51A4.49,4.49,0,0,1,178.44,147.19Z" style="fill:#263238"></path><path d="M175.11,128.34a2.26,2.26,0,0,1-.42.14l-1.24.35-4.78,1.29-3.46.92-4.14,1c-3,.69-6.35,1.55-10.13,2.29L145,135.54c-2.05.42-4.21.77-6.43,1.18-4.45.86-9.23,1.54-14.26,2.31-10.07,1.4-21.2,2.6-32.91,3.33s-22.92.8-33.09.62c-5.08-.17-9.91-.28-14.43-.6-2.25-.14-4.44-.23-6.53-.4l-6-.52c-3.84-.28-7.29-.73-10.33-1.06l-4.23-.49-3.54-.5-4.9-.72L7.1,138.5a2.13,2.13,0,0,1-.43-.09,2.31,2.31,0,0,1,.43,0l1.28.15,4.92.61,3.54.46,4.23.45c3,.3,6.49.72,10.33,1l6,.48c2.09.16,4.27.24,6.53.37,4.51.3,9.33.4,14.41.55,10.16.16,21.34,0,33.05-.66s22.81-1.92,32.88-3.28c5-.76,9.8-1.43,14.24-2.26,2.22-.4,4.38-.74,6.44-1.15l5.91-1.19c3.78-.72,7.15-1.55,10.13-2.21l4.15-.95,3.47-.88,4.8-1.2,1.26-.29A2.16,2.16,0,0,1,175.11,128.34Z" style="fill:#263238"></path><path d="M735.55,175.7a.87.87,0,0,1-.24,0h-.68l-2.64-.11c-1.15,0-2.55-.12-4.17-.28s-3.48-.27-5.51-.56l-3.2-.41c-1.11-.15-2.25-.37-3.45-.56-2.38-.36-4.9-.91-7.56-1.46a167.73,167.73,0,0,1-17-4.78,167.72,167.72,0,0,1-16.33-6.72c-2.43-1.21-4.76-2.34-6.86-3.53-1-.58-2.09-1.12-3-1.69L662.1,154c-1.78-1-3.31-2.08-4.69-3s-2.52-1.68-3.45-2.35l-2.14-1.55-.55-.41-.18-.16.21.12.58.37,2.19,1.46c.95.65,2.11,1.43,3.5,2.28s2.93,1.88,4.72,2.88l2.77,1.62c1,.55,2,1.08,3.07,1.65,2.1,1.17,4.42,2.28,6.85,3.47a170.48,170.48,0,0,0,16.3,6.66,173.38,173.38,0,0,0,16.92,4.81c2.65.56,5.16,1.13,7.54,1.5,1.18.2,2.33.43,3.43.59l3.18.44c2,.32,3.88.46,5.49.64s3,.3,4.16.37l2.63.2.69.07Z" style="fill:#263238"></path><path d="M732.46,141.57a5,5,0,0,1-.82.13l-2.36.27c-1,.12-2.28.24-3.74.32s-3.12.23-5,.24-3.86.11-6,.05-4.48-.15-6.92-.27a151.94,151.94,0,0,1-15.74-1.95,148.18,148.18,0,0,1-15.41-3.76c-2.33-.74-4.54-1.42-6.57-2.2s-3.92-1.47-5.62-2.17-3.23-1.4-4.56-2-2.47-1.16-3.39-1.63l-2.11-1.08a6.84,6.84,0,0,1-.72-.41,4.41,4.41,0,0,1,.77.31l2.15,1c.93.44,2.07,1,3.41,1.54s2.86,1.27,4.58,1.92,3.59,1.41,5.64,2.11,4.24,1.41,6.55,2.14A157.85,157.85,0,0,0,692,139.85a157.38,157.38,0,0,0,15.68,2c2.43.14,4.74.3,6.9.31s4.17.06,6,0,3.5-.12,5-.17,2.72-.15,3.75-.23l2.36-.17A4.34,4.34,0,0,1,732.46,141.57Z" style="fill:#263238"></path></g></svg>