<svg xmlns="http://www.w3.org/2000/svg" viewBox="0 0 750 500"><g id="freepik--Buildings--inject-276"><g style="opacity:0.30000000000000004"><rect x="138.53" y="218.14" width="13.9" height="12.27" style="fill:none;stroke:#000;stroke-miterlimit:10"></rect><rect x="123.5" y="225.56" width="5.64" height="4.84" style="fill:none;stroke:#000;stroke-miterlimit:10"></rect><polyline points="694.65 295.61 641.95 295.61 641.95 198.25 645.47 198.25 645.47 188.17 522.01 188.17 522.01 198.25 526.29 198.25 526.29 343.05 493.9 343.05 493.9 32.4 382.86 32.4 382.86 267.32 342.26 267.32 342.26 241.32 352.89 241.32 352.89 230.32 264.11 230.32 264.11 72.72 269.85 72.72 269.85 64.47 162.08 64.47 162.08 72.72 169.81 72.72 169.81 230.59 84.64 230.59 84.64 343.5 39.91 343.5" style="fill:none;stroke:#000;stroke-miterlimit:10"></polyline><rect x="377.91" y="29" width="120.41" height="3.37" style="fill:none;stroke:#000;stroke-miterlimit:10"></rect><rect x="179.45" y="81.88" width="13.56" height="12.72" style="fill:none;stroke:#000;stroke-miterlimit:10"></rect><rect x="199.35" y="81.88" width="13.56" height="12.72" style="fill:none;stroke:#000;stroke-miterlimit:10"></rect><rect x="219.24" y="81.88" width="13.56" height="12.72" style="fill:none;stroke:#000;stroke-miterlimit:10"></rect><rect x="239.13" y="81.88" width="13.56" height="12.72" style="fill:none;stroke:#000;stroke-miterlimit:10"></rect><rect x="179.45" y="102.04" width="13.56" height="12.72" style="fill:none;stroke:#000;stroke-miterlimit:10"></rect><rect x="199.35" y="102.04" width="13.56" height="12.72" style="fill:none;stroke:#000;stroke-miterlimit:10"></rect><rect x="219.24" y="102.04" width="13.56" height="12.72" style="fill:none;stroke:#000;stroke-miterlimit:10"></rect><rect x="239.13" y="102.04" width="13.56" height="12.72" style="fill:none;stroke:#000;stroke-miterlimit:10"></rect><rect x="179.45" y="122.2" width="13.56" height="12.72" style="fill:none;stroke:#000;stroke-miterlimit:10"></rect><rect x="199.35" y="122.2" width="13.56" height="12.72" style="fill:none;stroke:#000;stroke-miterlimit:10"></rect><rect x="219.24" y="122.2" width="13.56" height="12.72" style="fill:none;stroke:#000;stroke-miterlimit:10"></rect><rect x="239.13" y="122.2" width="13.56" height="12.72" style="fill:none;stroke:#000;stroke-miterlimit:10"></rect><rect x="179.45" y="142.35" width="13.56" height="12.72" style="fill:none;stroke:#000;stroke-miterlimit:10"></rect><rect x="199.35" y="142.35" width="13.56" height="12.72" style="fill:none;stroke:#000;stroke-miterlimit:10"></rect><rect x="219.24" y="142.35" width="13.56" height="12.72" style="fill:none;stroke:#000;stroke-miterlimit:10"></rect><rect x="239.13" y="142.35" width="13.56" height="12.72" style="fill:none;stroke:#000;stroke-miterlimit:10"></rect><rect x="179.45" y="162.51" width="13.56" height="12.72" style="fill:none;stroke:#000;stroke-miterlimit:10"></rect><rect x="199.35" y="162.51" width="13.56" height="12.72" style="fill:none;stroke:#000;stroke-miterlimit:10"></rect><rect x="219.24" y="162.51" width="13.56" height="12.72" style="fill:none;stroke:#000;stroke-miterlimit:10"></rect><rect x="239.13" y="162.51" width="13.56" height="12.72" style="fill:none;stroke:#000;stroke-miterlimit:10"></rect><rect x="179.45" y="182.67" width="13.56" height="12.72" style="fill:none;stroke:#000;stroke-miterlimit:10"></rect><rect x="199.35" y="182.67" width="13.56" height="12.72" style="fill:none;stroke:#000;stroke-miterlimit:10"></rect><rect x="219.24" y="182.67" width="13.56" height="12.72" style="fill:none;stroke:#000;stroke-miterlimit:10"></rect><rect x="239.13" y="182.67" width="13.56" height="12.72" style="fill:none;stroke:#000;stroke-miterlimit:10"></rect><rect x="179.45" y="202.83" width="13.56" height="12.72" style="fill:none;stroke:#000;stroke-miterlimit:10"></rect><rect x="199.35" y="202.83" width="13.56" height="12.72" style="fill:none;stroke:#000;stroke-miterlimit:10"></rect><rect x="219.24" y="202.83" width="13.56" height="12.72" style="fill:none;stroke:#000;stroke-miterlimit:10"></rect><rect x="239.13" y="202.83" width="13.56" height="12.72" style="fill:none;stroke:#000;stroke-miterlimit:10"></rect><rect x="179.45" y="222.99" width="13.56" height="12.72" style="fill:none;stroke:#000;stroke-miterlimit:10"></rect><rect x="199.35" y="222.99" width="13.56" height="12.72" style="fill:none;stroke:#000;stroke-miterlimit:10"></rect><rect x="219.24" y="222.99" width="13.56" height="12.72" style="fill:none;stroke:#000;stroke-miterlimit:10"></rect><rect x="239.13" y="222.99" width="13.56" height="12.72" style="fill:none;stroke:#000;stroke-miterlimit:10"></rect><rect x="179.45" y="241.43" width="13.56" height="12.72" style="fill:none;stroke:#000;stroke-miterlimit:10"></rect><rect x="199.35" y="241.43" width="13.56" height="12.72" style="fill:none;stroke:#000;stroke-miterlimit:10"></rect><rect x="219.24" y="241.43" width="13.56" height="12.72" style="fill:none;stroke:#000;stroke-miterlimit:10"></rect><rect x="239.13" y="241.43" width="13.56" height="12.72" style="fill:none;stroke:#000;stroke-miterlimit:10"></rect><rect x="179.45" y="261.59" width="13.56" height="12.72" style="fill:none;stroke:#000;stroke-miterlimit:10"></rect><rect x="199.35" y="261.59" width="13.56" height="12.72" style="fill:none;stroke:#000;stroke-miterlimit:10"></rect><rect x="219.24" y="261.59" width="13.56" height="12.72" style="fill:none;stroke:#000;stroke-miterlimit:10"></rect><rect x="239.13" y="261.59" width="13.56" height="12.72" style="fill:none;stroke:#000;stroke-miterlimit:10"></rect><rect x="179.45" y="281.75" width="13.56" height="12.72" style="fill:none;stroke:#000;stroke-miterlimit:10"></rect><rect x="199.35" y="281.75" width="13.56" height="12.72" style="fill:none;stroke:#000;stroke-miterlimit:10"></rect><rect x="219.24" y="281.75" width="13.56" height="12.72" style="fill:none;stroke:#000;stroke-miterlimit:10"></rect><rect x="239.13" y="281.75" width="13.56" height="12.72" style="fill:none;stroke:#000;stroke-miterlimit:10"></rect><rect x="179.45" y="301.91" width="13.56" height="12.72" style="fill:none;stroke:#000;stroke-miterlimit:10"></rect><rect x="199.35" y="301.91" width="13.56" height="12.72" style="fill:none;stroke:#000;stroke-miterlimit:10"></rect><rect x="219.24" y="301.91" width="13.56" height="12.72" style="fill:none;stroke:#000;stroke-miterlimit:10"></rect><rect x="239.13" y="301.91" width="13.56" height="12.72" style="fill:none;stroke:#000;stroke-miterlimit:10"></rect><rect x="179.45" y="322.06" width="13.56" height="12.72" style="fill:none;stroke:#000;stroke-miterlimit:10"></rect><rect x="199.35" y="322.06" width="13.56" height="12.72" style="fill:none;stroke:#000;stroke-miterlimit:10"></rect><rect x="219.24" y="322.06" width="13.56" height="12.72" style="fill:none;stroke:#000;stroke-miterlimit:10"></rect><rect x="239.13" y="322.06" width="13.56" height="12.72" style="fill:none;stroke:#000;stroke-miterlimit:10"></rect><rect x="179.45" y="342.22" width="13.56" height="12.72" style="fill:none;stroke:#000;stroke-miterlimit:10"></rect><rect x="199.35" y="342.22" width="13.56" height="12.72" style="fill:none;stroke:#000;stroke-miterlimit:10"></rect><rect x="219.24" y="342.22" width="13.56" height="12.72" style="fill:none;stroke:#000;stroke-miterlimit:10"></rect><rect x="239.13" y="342.22" width="13.56" height="12.72" style="fill:none;stroke:#000;stroke-miterlimit:10"></rect><rect x="179.45" y="362.38" width="13.56" height="12.72" style="fill:none;stroke:#000;stroke-miterlimit:10"></rect><rect x="199.35" y="362.38" width="13.56" height="12.72" style="fill:none;stroke:#000;stroke-miterlimit:10"></rect><rect x="219.24" y="362.38" width="13.56" height="12.72" style="fill:none;stroke:#000;stroke-miterlimit:10"></rect><rect x="239.13" y="362.38" width="13.56" height="12.72" style="fill:none;stroke:#000;stroke-miterlimit:10"></rect><rect x="179.45" y="382.54" width="13.56" height="12.72" style="fill:none;stroke:#000;stroke-miterlimit:10"></rect><rect x="199.35" y="382.54" width="13.56" height="12.72" style="fill:none;stroke:#000;stroke-miterlimit:10"></rect><rect x="219.24" y="382.54" width="13.56" height="12.72" style="fill:none;stroke:#000;stroke-miterlimit:10"></rect><rect x="239.13" y="382.54" width="13.56" height="12.72" style="fill:none;stroke:#000;stroke-miterlimit:10"></rect><rect x="257.15" y="241.43" width="13.56" height="12.72" style="fill:none;stroke:#000;stroke-miterlimit:10"></rect><rect x="277.04" y="241.43" width="13.56" height="12.72" style="fill:none;stroke:#000;stroke-miterlimit:10"></rect><rect x="296.93" y="241.43" width="13.56" height="12.72" style="fill:none;stroke:#000;stroke-miterlimit:10"></rect><rect x="316.83" y="241.43" width="13.56" height="12.72" style="fill:none;stroke:#000;stroke-miterlimit:10"></rect><rect x="257.15" y="261.59" width="13.56" height="12.72" style="fill:none;stroke:#000;stroke-miterlimit:10"></rect><rect x="277.04" y="261.59" width="13.56" height="12.72" style="fill:none;stroke:#000;stroke-miterlimit:10"></rect><rect x="296.93" y="261.59" width="13.56" height="12.72" style="fill:none;stroke:#000;stroke-miterlimit:10"></rect><rect x="316.83" y="261.59" width="13.56" height="12.72" style="fill:none;stroke:#000;stroke-miterlimit:10"></rect><rect x="257.15" y="281.75" width="13.56" height="12.72" style="fill:none;stroke:#000;stroke-miterlimit:10"></rect><rect x="277.04" y="281.75" width="13.56" height="12.72" style="fill:none;stroke:#000;stroke-miterlimit:10"></rect><rect x="296.93" y="281.75" width="13.56" height="12.72" style="fill:none;stroke:#000;stroke-miterlimit:10"></rect><rect x="316.83" y="281.75" width="13.56" height="12.72" style="fill:none;stroke:#000;stroke-miterlimit:10"></rect><rect x="257.15" y="301.91" width="13.56" height="12.72" style="fill:none;stroke:#000;stroke-miterlimit:10"></rect><rect x="277.04" y="301.91" width="13.56" height="12.72" style="fill:none;stroke:#000;stroke-miterlimit:10"></rect><rect x="296.93" y="301.91" width="13.56" height="12.72" style="fill:none;stroke:#000;stroke-miterlimit:10"></rect><rect x="316.83" y="301.91" width="13.56" height="12.72" style="fill:none;stroke:#000;stroke-miterlimit:10"></rect><rect x="257.15" y="322.06" width="13.56" height="12.72" style="fill:none;stroke:#000;stroke-miterlimit:10"></rect><rect x="277.04" y="322.06" width="13.56" height="12.72" style="fill:none;stroke:#000;stroke-miterlimit:10"></rect><rect x="296.93" y="322.06" width="13.56" height="12.72" style="fill:none;stroke:#000;stroke-miterlimit:10"></rect><rect x="316.83" y="322.06" width="13.56" height="12.72" style="fill:none;stroke:#000;stroke-miterlimit:10"></rect><rect x="257.15" y="342.22" width="13.56" height="12.72" style="fill:none;stroke:#000;stroke-miterlimit:10"></rect><rect x="277.04" y="342.22" width="13.56" height="12.72" style="fill:none;stroke:#000;stroke-miterlimit:10"></rect><rect x="296.93" y="342.22" width="13.56" height="12.72" style="fill:none;stroke:#000;stroke-miterlimit:10"></rect><rect x="316.83" y="342.22" width="13.56" height="12.72" style="fill:none;stroke:#000;stroke-miterlimit:10"></rect><rect x="257.15" y="362.38" width="13.56" height="12.72" style="fill:none;stroke:#000;stroke-miterlimit:10"></rect><rect x="277.04" y="362.38" width="13.56" height="12.72" style="fill:none;stroke:#000;stroke-miterlimit:10"></rect><rect x="296.93" y="362.38" width="13.56" height="12.72" style="fill:none;stroke:#000;stroke-miterlimit:10"></rect><rect x="316.83" y="362.38" width="13.56" height="12.72" style="fill:none;stroke:#000;stroke-miterlimit:10"></rect><rect x="257.15" y="382.54" width="13.56" height="12.72" style="fill:none;stroke:#000;stroke-miterlimit:10"></rect><rect x="277.04" y="382.54" width="13.56" height="12.72" style="fill:none;stroke:#000;stroke-miterlimit:10"></rect><rect x="296.93" y="382.54" width="13.56" height="12.72" style="fill:none;stroke:#000;stroke-miterlimit:10"></rect><rect x="316.83" y="382.54" width="13.56" height="12.72" style="fill:none;stroke:#000;stroke-miterlimit:10"></rect><rect x="100.66" y="241.43" width="13.56" height="12.72" style="fill:none;stroke:#000;stroke-miterlimit:10"></rect><rect x="120.56" y="241.43" width="13.56" height="12.72" style="fill:none;stroke:#000;stroke-miterlimit:10"></rect><rect x="140.45" y="241.43" width="13.56" height="12.72" style="fill:none;stroke:#000;stroke-miterlimit:10"></rect><rect x="160.34" y="241.43" width="13.56" height="12.72" style="fill:none;stroke:#000;stroke-miterlimit:10"></rect><rect x="100.66" y="261.59" width="13.56" height="12.72" style="fill:none;stroke:#000;stroke-miterlimit:10"></rect><rect x="120.56" y="261.59" width="13.56" height="12.72" style="fill:none;stroke:#000;stroke-miterlimit:10"></rect><rect x="140.45" y="261.59" width="13.56" height="12.72" style="fill:none;stroke:#000;stroke-miterlimit:10"></rect><rect x="160.34" y="261.59" width="13.56" height="12.72" style="fill:none;stroke:#000;stroke-miterlimit:10"></rect><rect x="100.66" y="281.75" width="13.56" height="12.72" style="fill:none;stroke:#000;stroke-miterlimit:10"></rect><rect x="120.56" y="281.75" width="13.56" height="12.72" style="fill:none;stroke:#000;stroke-miterlimit:10"></rect><rect x="140.45" y="281.75" width="13.56" height="12.72" style="fill:none;stroke:#000;stroke-miterlimit:10"></rect><rect x="160.34" y="281.75" width="13.56" height="12.72" style="fill:none;stroke:#000;stroke-miterlimit:10"></rect><rect x="100.66" y="301.91" width="13.56" height="12.72" style="fill:none;stroke:#000;stroke-miterlimit:10"></rect><rect x="120.56" y="301.91" width="13.56" height="12.72" style="fill:none;stroke:#000;stroke-miterlimit:10"></rect><rect x="140.45" y="301.91" width="13.56" height="12.72" style="fill:none;stroke:#000;stroke-miterlimit:10"></rect><rect x="160.34" y="301.91" width="13.56" height="12.72" style="fill:none;stroke:#000;stroke-miterlimit:10"></rect><rect x="100.66" y="322.06" width="13.56" height="12.72" style="fill:none;stroke:#000;stroke-miterlimit:10"></rect><rect x="120.56" y="322.06" width="13.56" height="12.72" style="fill:none;stroke:#000;stroke-miterlimit:10"></rect><rect x="140.45" y="322.06" width="13.56" height="12.72" style="fill:none;stroke:#000;stroke-miterlimit:10"></rect><rect x="160.34" y="322.06" width="13.56" height="12.72" style="fill:none;stroke:#000;stroke-miterlimit:10"></rect><rect x="100.66" y="342.22" width="13.56" height="12.72" style="fill:none;stroke:#000;stroke-miterlimit:10"></rect><rect x="120.56" y="342.22" width="13.56" height="12.72" style="fill:none;stroke:#000;stroke-miterlimit:10"></rect><rect x="140.45" y="342.22" width="13.56" height="12.72" style="fill:none;stroke:#000;stroke-miterlimit:10"></rect><rect x="160.34" y="342.22" width="13.56" height="12.72" style="fill:none;stroke:#000;stroke-miterlimit:10"></rect><rect x="100.66" y="362.38" width="13.56" height="12.72" style="fill:none;stroke:#000;stroke-miterlimit:10"></rect><rect x="120.56" y="362.38" width="13.56" height="12.72" style="fill:none;stroke:#000;stroke-miterlimit:10"></rect><rect x="140.45" y="362.38" width="13.56" height="12.72" style="fill:none;stroke:#000;stroke-miterlimit:10"></rect><rect x="160.34" y="362.38" width="13.56" height="12.72" style="fill:none;stroke:#000;stroke-miterlimit:10"></rect><rect x="100.66" y="382.54" width="13.56" height="12.72" style="fill:none;stroke:#000;stroke-miterlimit:10"></rect><rect x="120.56" y="382.54" width="13.56" height="12.72" style="fill:none;stroke:#000;stroke-miterlimit:10"></rect><rect x="140.45" y="382.54" width="13.56" height="12.72" style="fill:none;stroke:#000;stroke-miterlimit:10"></rect><rect x="160.34" y="382.54" width="13.56" height="12.72" style="fill:none;stroke:#000;stroke-miterlimit:10"></rect><rect x="545.03" y="201.91" width="13.56" height="12.72" style="fill:none;stroke:#000;stroke-miterlimit:10"></rect><rect x="564.92" y="201.91" width="13.56" height="12.72" style="fill:none;stroke:#000;stroke-miterlimit:10"></rect><rect x="584.81" y="201.91" width="13.56" height="12.72" style="fill:none;stroke:#000;stroke-miterlimit:10"></rect><rect x="604.7" y="201.91" width="13.56" height="12.72" style="fill:none;stroke:#000;stroke-miterlimit:10"></rect><rect x="545.03" y="222.07" width="13.56" height="12.72" style="fill:none;stroke:#000;stroke-miterlimit:10"></rect><rect x="564.92" y="222.07" width="13.56" height="12.72" style="fill:none;stroke:#000;stroke-miterlimit:10"></rect><rect x="584.81" y="222.07" width="13.56" height="12.72" style="fill:none;stroke:#000;stroke-miterlimit:10"></rect><rect x="604.7" y="222.07" width="13.56" height="12.72" style="fill:none;stroke:#000;stroke-miterlimit:10"></rect><rect x="545.03" y="242.23" width="13.56" height="12.72" style="fill:none;stroke:#000;stroke-miterlimit:10"></rect><rect x="564.92" y="242.23" width="13.56" height="12.72" style="fill:none;stroke:#000;stroke-miterlimit:10"></rect><rect x="584.81" y="242.23" width="13.56" height="12.72" style="fill:none;stroke:#000;stroke-miterlimit:10"></rect><rect x="604.7" y="242.23" width="13.56" height="12.72" style="fill:none;stroke:#000;stroke-miterlimit:10"></rect><rect x="545.03" y="262.39" width="13.56" height="12.72" style="fill:none;stroke:#000;stroke-miterlimit:10"></rect><rect x="564.92" y="262.39" width="13.56" height="12.72" style="fill:none;stroke:#000;stroke-miterlimit:10"></rect><rect x="584.81" y="262.39" width="13.56" height="12.72" style="fill:none;stroke:#000;stroke-miterlimit:10"></rect><rect x="604.7" y="262.39" width="13.56" height="12.72" style="fill:none;stroke:#000;stroke-miterlimit:10"></rect><rect x="545.03" y="282.55" width="13.56" height="12.72" style="fill:none;stroke:#000;stroke-miterlimit:10"></rect><rect x="564.92" y="282.55" width="13.56" height="12.72" style="fill:none;stroke:#000;stroke-miterlimit:10"></rect><rect x="584.81" y="282.55" width="13.56" height="12.72" style="fill:none;stroke:#000;stroke-miterlimit:10"></rect><rect x="604.7" y="282.55" width="13.56" height="12.72" style="fill:none;stroke:#000;stroke-miterlimit:10"></rect><rect x="545.03" y="302.71" width="13.56" height="12.72" style="fill:none;stroke:#000;stroke-miterlimit:10"></rect><rect x="564.92" y="302.71" width="13.56" height="12.72" style="fill:none;stroke:#000;stroke-miterlimit:10"></rect><rect x="584.81" y="302.71" width="13.56" height="12.72" style="fill:none;stroke:#000;stroke-miterlimit:10"></rect><rect x="604.7" y="302.71" width="13.56" height="12.72" style="fill:none;stroke:#000;stroke-miterlimit:10"></rect><rect x="545.03" y="322.87" width="13.56" height="12.72" style="fill:none;stroke:#000;stroke-miterlimit:10"></rect><rect x="564.92" y="322.87" width="13.56" height="12.72" style="fill:none;stroke:#000;stroke-miterlimit:10"></rect><rect x="584.81" y="322.87" width="13.56" height="12.72" style="fill:none;stroke:#000;stroke-miterlimit:10"></rect><rect x="604.7" y="322.87" width="13.56" height="12.72" style="fill:none;stroke:#000;stroke-miterlimit:10"></rect><rect x="545.03" y="343.03" width="13.56" height="12.72" style="fill:none;stroke:#000;stroke-miterlimit:10"></rect><rect x="564.92" y="343.03" width="13.56" height="12.72" style="fill:none;stroke:#000;stroke-miterlimit:10"></rect><rect x="584.81" y="343.03" width="13.56" height="12.72" style="fill:none;stroke:#000;stroke-miterlimit:10"></rect><rect x="604.7" y="343.03" width="13.56" height="12.72" style="fill:none;stroke:#000;stroke-miterlimit:10"></rect><line x1="393.31" y1="39.73" x2="393.31" y2="408.08" style="fill:none;stroke:#000;stroke-miterlimit:10"></line><line x1="406.77" y1="39.73" x2="406.77" y2="408.08" style="fill:none;stroke:#000;stroke-miterlimit:10"></line><line x1="420.22" y1="39.73" x2="420.22" y2="408.08" style="fill:none;stroke:#000;stroke-miterlimit:10"></line><line x1="433.67" y1="39.73" x2="433.67" y2="408.08" style="fill:none;stroke:#000;stroke-miterlimit:10"></line><line x1="447.12" y1="39.73" x2="447.12" y2="408.08" style="fill:none;stroke:#000;stroke-miterlimit:10"></line><line x1="460.58" y1="39.73" x2="460.58" y2="408.08" style="fill:none;stroke:#000;stroke-miterlimit:10"></line><line x1="474.03" y1="39.73" x2="474.03" y2="408.08" style="fill:none;stroke:#000;stroke-miterlimit:10"></line><line x1="487.48" y1="39.73" x2="487.48" y2="408.08" style="fill:none;stroke:#000;stroke-miterlimit:10"></line><rect x="109.77" y="401.67" width="241.19" height="11.91" style="fill:none;stroke:#000;stroke-miterlimit:10"></rect><rect x="498.99" y="401.67" width="216.58" height="11.91" style="fill:none;stroke:#000;stroke-miterlimit:10"></rect></g></g><g id="freepik--Floor--inject-276"><line x1="573.46" y1="459.54" x2="717" y2="459.54" style="fill:none;stroke:#263238;stroke-miterlimit:10"></line><line x1="35" y1="459.54" x2="564.3" y2="459.54" style="fill:none;stroke:#263238;stroke-miterlimit:10"></line></g></svg>