<svg xmlns="http://www.w3.org/2000/svg" viewBox="0 0 750 500"><g id="freepik--Clouds--inject-276"><g style="opacity:0.30000000000000004"><path d="M614.4,143.78c-4.26-2.32-6.2-.38-7.75-2.32s4.26-7-7.37-12c0,0-.77-10.86-16.67-11.25s-11.63,10.86-15.9,13.57-5.42-1.55-9.69,1.17-2.33,8.14-5.82,8.91-8.14-3.48-12.4-.77-4.27,5-6.21,5-5.81-1.55-8.14,0-5,3.49-5,3.49h98.1S618.67,146.11,614.4,143.78Z" style="fill:none;stroke:#000;stroke-miterlimit:10"></path></g><g style="opacity:0.30000000000000004"><path d="M373.48,85.66c-1.94-1.06-2.82-.18-3.52-1.06s1.94-3.17-3.34-5.46c0,0-.36-4.92-7.57-5.1s-5.28,4.93-7.22,6.16-2.46-.7-4.4.53-1.05,3.69-2.64,4-3.69-1.59-5.63-.36-1.94,2.29-2.82,2.29-2.64-.7-3.69,0-2.29,1.59-2.29,1.59h44.53A2.28,2.28,0,0,0,373.48,85.66Z" style="fill:none;stroke:#000;stroke-miterlimit:10"></path></g><g style="opacity:0.30000000000000004"><path d="M146.92,101.84c-4-2.16-5.77-.36-7.21-2.16s4-6.49-6.84-11.17c0,0-.72-10.09-15.49-10.45S106.57,88.15,102.6,90.67s-5-1.44-9,1.08-2.16,7.57-5.41,8.29-7.56-3.24-11.52-.72S72.7,104,70.9,104s-5.4-1.44-7.56,0-4.69,3.24-4.69,3.24H149.8S150.88,104,146.92,101.84Z" style="fill:none;stroke:#000;stroke-miterlimit:10"></path></g><g style="opacity:0.30000000000000004"><path d="M366.54,65c-2.66-1.45-3.87-.24-4.84-1.45s2.66-4.36-4.6-7.5c0,0-.48-6.78-10.4-7s-7.26,6.78-9.93,8.47-3.38-1-6,.73-1.45,5.08-3.63,5.56-5.08-2.18-7.74-.48-2.66,3.14-3.87,3.14-3.63-1-5.09,0-3.14,2.18-3.14,2.18h61.23S369.2,66.49,366.54,65Z" style="fill:none;stroke:#000;stroke-miterlimit:10"></path></g></g></svg>