<svg xmlns="http://www.w3.org/2000/svg" viewBox="0 0 750 500"><g id="freepik--Trees--inject-276"><path d="M79,289.77s53,5.25,79.87,38.11c0,0,28.38-38.07,79.36-37.29A103,103,0,1,0,79,289.86Z" style="fill:#BA68C8"></path><path d="M79,289.77s53,5.25,79.87,38.11c0,0,28.38-38.07,79.36-37.29A103,103,0,1,0,79,289.86Z" style="fill:#fff;opacity:0.5"></path><polygon points="157.16 129.08 155.37 459.44 164.31 459.44 157.16 129.08" style="fill:#a3a3a3"></polygon><path d="M159.84,317.86s17.89-32.21,50.1-42.05c0,0-34,8.05-51,35.79Z" style="fill:#a3a3a3"></path><path d="M159.84,226.6s17.89-32.21,50.1-42c0,0-34,8.06-51,35.79Z" style="fill:#a3a3a3"></path><path d="M159.84,272.23s17.89-32.21,50.1-42.05c0,0-34,8-51,35.79Z" style="fill:#a3a3a3"></path><path d="M157.19,249.87s-17.27-32.21-48.35-42.05c0,0,32.81,8.05,49.21,35.78Z" style="fill:#a3a3a3"></path><path d="M157.19,294.6s-17.27-32.21-48.35-42.05c0,0,32.81,8.05,49.21,35.79Z" style="fill:#a3a3a3"></path><path d="M583,306.2s44.71,4.42,67.38,32.14c0,0,23.94-32.11,66.95-31.45A86.92,86.92,0,1,0,583,306.27Z" style="fill:#BA68C8"></path><path d="M583,306.2s44.71,4.42,67.38,32.14c0,0,23.94-32.11,66.95-31.45A86.92,86.92,0,1,0,583,306.27Z" style="fill:#fff;opacity:0.5"></path><polygon points="648.88 170.64 647.37 459.44 654.91 459.44 648.88 170.64" style="fill:#a3a3a3"></polygon><path d="M651.14,329.9s15.1-27.18,42.27-35.48c0,0-28.68,6.79-43,30.19Z" style="fill:#a3a3a3"></path><path d="M651.14,252.91s15.1-27.17,42.27-35.47c0,0-28.68,6.79-43,30.19Z" style="fill:#a3a3a3"></path><path d="M651.14,291.4s15.1-27.17,42.27-35.47c0,0-28.68,6.79-43,30.19Z" style="fill:#a3a3a3"></path><path d="M648.9,272.53s-14.56-27.17-40.78-35.47c0,0,27.67,6.79,41.51,30.19Z" style="fill:#a3a3a3"></path><path d="M648.9,310.27s-14.56-27.17-40.78-35.47c0,0,27.67,6.79,41.51,30.19Z" style="fill:#a3a3a3"></path></g></svg>