<svg xmlns="http://www.w3.org/2000/svg" viewBox="0 0 750 500"><g id="freepik--Car--inject-276"><path d="M167.77,285.14s-61.56,2.24-64.71,6.29S97.67,309,99,312.1s17.07,20.66,17.07,20.66H145.3L153,320a25.84,25.84,0,0,1,22.09-12.43h0A25.86,25.86,0,0,1,198,321.36l9.35,17.69H356.48l9.2-18.57a25,25,0,0,1,12.1-10.21l2.1-.81c6.3-2.44,15.12-1.93,21.28.85h0c5.39,2.42,9.76,7.84,12.35,13.15l5,10.2h14.82l8.09-27.86s0-6.29-1.8-9.88-20.22-4.49-20.22-4.49l-26.51-2.25-69.64-1.35-27-24.26s3.6-2.7,2.25-6.74-17.08-2.7-17.08-2.7-71.89.9-76.83,1.8S173.16,278.85,167.77,285.14Z" style="fill:#BA68C8;stroke:#263238;stroke-miterlimit:10"></path><path d="M327.72,322.82H219.24a3.72,3.72,0,0,1-3.44-2.32l-5.34-13.2a2.43,2.43,0,0,1,2.25-3.35h222" style="fill:none;stroke:#263238;stroke-miterlimit:10"></path><polygon points="316.04 290.08 292.07 269.93 299.55 290.08 316.04 290.08" style="fill:#263238;stroke:#263238;stroke-miterlimit:10"></polygon><path d="M229.81,290.08h66.6l-8.91-24-1.72-1.45a10.48,10.48,0,0,0-6.59-2.45l-41.87-.57s-6.9.08-11.37.5Z" style="fill:#263238;stroke:#263238;stroke-miterlimit:10"></path><path d="M223,262.53a4.38,4.38,0,0,0-.46.14l-18,24.71h11.68l4.5,2.7h6.05Z" style="fill:#263238;stroke:#263238;stroke-miterlimit:10"></path><polygon points="296.27 263.57 293.03 266.16 319.03 288.65 323.23 287.83 296.27 263.57" style="fill:#263238;stroke:#263238;stroke-miterlimit:10"></polygon><circle cx="175.2" cy="333.48" r="23.18" style="fill:#263238;stroke:#263238;stroke-miterlimit:10"></circle><circle cx="175.2" cy="333.48" r="17.3" transform="translate(-71.93 49.17) rotate(-13.28)" style="fill:#fff;stroke:#263238;stroke-miterlimit:10"></circle><circle cx="175.2" cy="333.48" r="8.1" style="fill:#fff;stroke:#263238;stroke-miterlimit:10"></circle><circle cx="388.65" cy="333.48" r="23.18" style="fill:#263238;stroke:#263238;stroke-miterlimit:10"></circle><circle cx="388.65" cy="333.48" r="17.3" transform="translate(-65.81 97.43) rotate(-13.18)" style="fill:#fff;stroke:#263238;stroke-miterlimit:10"></circle><circle cx="388.65" cy="333.48" r="8.1" style="fill:#fff;stroke:#263238;stroke-miterlimit:10"></circle><path d="M442,317.66H423.25s-2.95.37-1.11,1.84,10.31,14,13.25,14.35,12.51-11,12.51-13.25S442,317.66,442,317.66Z" style="fill:#fff;stroke:#263238;stroke-miterlimit:10"></path><path d="M102.34,307H96.08a28.13,28.13,0,0,0,.37,7.36c.73,3.68,4.41,6.62,5.89,6.25S102.34,307,102.34,307Z" style="fill:#fff;stroke:#263238;stroke-miterlimit:10"></path><polygon points="207.31 339.06 356.48 339.06 359.31 334.56 204.93 334.56 207.31 339.06" style="fill:#fff;stroke:#263238;stroke-miterlimit:10"></polygon><line x1="324.69" y1="296.96" x2="324.69" y2="330.36" style="fill:none;stroke:#263238;stroke-miterlimit:10"></line><line x1="229.57" y1="294.94" x2="236.65" y2="327.32" style="fill:none;stroke:#263238;stroke-miterlimit:10"></line></g><g id="freepik--Towing--inject-276"><line x1="466.92" y1="310.16" x2="428.78" y2="361.01" style="fill:none;stroke:#263238;stroke-linecap:round;stroke-miterlimit:10;stroke-width:3px"></line><rect x="458.18" y="225.46" width="21.74" height="15.84" style="fill:#fff;stroke:#263238;stroke-miterlimit:10"></rect><rect x="462.15" y="242.09" width="11.92" height="116.8" style="fill:#263238;stroke:#263238;stroke-miterlimit:10"></rect><polygon points="187.24 362.07 186.48 367.37 166.05 367.37 166.05 391.73 113.08 380.08 113.08 366.31 84.48 366.31 83.42 369.49 83.42 383.26 71.76 383.26 71.76 398.09 99.31 398.09 99.31 392.79 187.24 410.8 187.24 384.32 204.19 384.32 204.19 401.27 279.41 401.27 279.41 417.16 300.6 417.16 306.95 403.39 347.21 403.39 491.29 403.39 491.29 362.07 187.24 362.07" style="fill:#263238;stroke:#263238;stroke-miterlimit:10"></polygon><polygon points="584.04 250.83 617.89 319.16 596.43 319.16 569.42 248.45 582.93 247.65 584.04 250.83" style="fill:#263238;stroke:#263238;stroke-miterlimit:10"></polygon><path d="M677.56,337l-73.18-24.14-27-62H584a2.91,2.91,0,0,0,2.47-4.45l-4.79-7.68a2.89,2.89,0,0,0-2.47-1.38H486V432h95.35l2.95-25.75A43,43,0,0,1,607.2,373h0a43,43,0,0,1,41.47,1l4.46,2.6a43.05,43.05,0,0,1,18.6,22l4.16,11.09H689.4V353.32a17.25,17.25,0,0,0-5-12.19h0A17.16,17.16,0,0,0,677.56,337Z" style="fill:#fff;stroke:#263238;stroke-miterlimit:10"></path><ellipse cx="538.78" cy="347.38" rx="33.73" ry="22.6" style="fill:#BA68C8"></ellipse><rect x="496.32" y="250.83" width="56.41" height="62.31" rx="3.5" style="fill:#263238;stroke:#263238;stroke-miterlimit:10"></rect><path d="M559.88,251.52V317.3a3.73,3.73,0,0,0,4,3.45h24c2.68,0,4.59-2.27,3.77-4.5l-23.8-64.73Z" style="fill:#263238;stroke:#263238;stroke-miterlimit:10"></path><polygon points="689.4 391.47 668.74 391.47 676.68 414.51 691.78 414.51 689.4 391.47" style="fill:#fff;stroke:#263238;stroke-miterlimit:10"></polygon><circle cx="627.6" cy="418.35" r="41.45" transform="translate(-80.44 158.4) rotate(-13.53)" style="fill:#263238;stroke:#263238;stroke-miterlimit:10"></circle><circle cx="627.6" cy="418.35" r="20.13" transform="translate(-79.87 156.83) rotate(-13.4)" style="fill:#fff;stroke:#263238;stroke-miterlimit:10"></circle><circle cx="245.15" cy="418.35" r="41.45" transform="translate(-93.25 71.08) rotate(-13.89)" style="fill:#263238;stroke:#263238;stroke-miterlimit:10"></circle><circle cx="245.15" cy="418.35" r="20.13" transform="translate(-90.28 68.2) rotate(-13.4)" style="fill:#fff;stroke:#263238;stroke-miterlimit:10"></circle><rect x="489.17" y="387.49" width="78.66" height="37.34" style="fill:#263238;stroke:#263238;stroke-miterlimit:10"></rect><line x1="512.38" y1="389.26" x2="512.38" y2="421.45" style="fill:none;stroke:#787878;stroke-miterlimit:10"></line><line x1="543.74" y1="389.26" x2="543.74" y2="421.45" style="fill:none;stroke:#787878;stroke-miterlimit:10"></line><rect x="563.06" y="273.08" width="17.48" height="53.23" rx="2" style="fill:#fff;stroke:#263238;stroke-miterlimit:10"></rect><polygon points="60.11 369.49 487.05 369.49 487.05 355.71 44.22 355.71 60.11 369.49" style="fill:#fff;stroke:#263238;stroke-miterlimit:10"></polygon><path d="M598.53,360a65.44,65.44,0,0,0-6.9,6" style="fill:none;stroke:#263238;stroke-miterlimit:10"></path><path d="M688.91,373.78a64.16,64.16,0,0,0-83.57-18.22" style="fill:none;stroke:#263238;stroke-miterlimit:10"></path><rect x="400.97" y="381.14" width="69.92" height="36.55" style="fill:#fff;stroke:#263238;stroke-miterlimit:10"></rect><path d="M484.39,226.2h0a4.5,4.5,0,0,0-7.79-.74l-.4.56a2.78,2.78,0,0,0-.5,1.6V350.69h8.93V227.34A2.81,2.81,0,0,0,484.39,226.2Z" style="fill:#fff;stroke:#263238;stroke-miterlimit:10"></path><rect x="473.81" y="248.71" width="12.71" height="139.84" style="fill:#fff;stroke:#263238;stroke-miterlimit:10"></rect><path d="M483.24,231.28c0,3.22-1.49,5.83-3.32,5.83s-3.32-2.61-3.32-5.83,1.48-5.82,3.32-5.82S483.24,228.07,483.24,231.28Z" style="fill:#263238;stroke:#263238;stroke-miterlimit:10"></path><line x1="603.58" y1="319.69" x2="603.58" y2="352.53" style="fill:none;stroke:#263238;stroke-miterlimit:10"></line><rect x="495.53" y="341.94" width="14.83" height="29.66" rx="4.67" style="fill:#263238;stroke:#263238;stroke-miterlimit:10"></rect></g></svg>