<svg xmlns="http://www.w3.org/2000/svg" viewBox="0 0 750 500"><g id="freepik--background-simple--inject-2"><path d="M632.12,128.47S529.34,23.2,395.77,15.08,184.31,93.23,147.4,144.69s-129,137.2-118.14,215.72,117.33,138.08,269.85,111.9,196.74-36.1,266.23-16.24,159.74-9.93,161.54-122.74S632.12,128.47,632.12,128.47Z" style="fill:#BA68C8"></path><path d="M632.12,128.47S529.34,23.2,395.77,15.08,184.31,93.23,147.4,144.69s-129,137.2-118.14,215.72,117.33,138.08,269.85,111.9,196.74-36.1,266.23-16.24,159.74-9.93,161.54-122.74S632.12,128.47,632.12,128.47Z" style="fill:#fff;opacity:0.7000000000000001"></path></g><g id="freepik--Bricks--inject-2"><rect x="374.76" y="221.52" width="30.88" height="12.5" style="opacity:0.2"></rect><rect x="363" y="177.04" width="30.88" height="12.5" style="opacity:0.2"></rect><rect x="251.26" y="221.15" width="30.88" height="12.5" style="opacity:0.2"></rect><rect x="296.1" y="109.38" width="30.88" height="12.5" style="opacity:0.2"></rect><rect x="329.92" y="109.38" width="30.88" height="12.5" style="opacity:0.2"></rect><rect x="198.33" y="313.56" width="30.88" height="12.5" style="opacity:0.2"></rect><rect x="182.16" y="329" width="30.88" height="12.5" style="opacity:0.2"></rect><rect x="346.09" y="194.32" width="30.88" height="12.5" style="opacity:0.1"></rect><rect x="392.4" y="264.52" width="30.88" height="12.5" style="opacity:0.1"></rect><rect x="211.56" y="283.64" width="30.88" height="12.5" style="opacity:0.1"></rect><rect x="246.85" y="283.64" width="30.88" height="12.5" style="opacity:0.1"></rect><rect x="249.79" y="265.99" width="30.88" height="12.5" style="opacity:0.1"></rect><rect x="381.37" y="194.32" width="30.88" height="12.5" style="opacity:0.1"></rect><rect x="289.48" y="327.74" width="30.88" height="12.5" style="opacity:0.2"></rect><rect x="272.58" y="345.02" width="30.88" height="12.5" style="opacity:0.1"></rect><rect x="307.86" y="345.02" width="30.88" height="12.5" style="opacity:0.1"></rect><rect x="139.81" y="172.2" width="30.88" height="12.5" style="opacity:0.2"></rect><rect x="122.9" y="189.47" width="30.88" height="12.5" style="opacity:0.1"></rect><rect x="158.18" y="189.47" width="30.88" height="12.5" style="opacity:0.1"></rect><rect x="127.76" y="265.26" width="30.88" height="12.5" style="opacity:0.2"></rect><rect x="264.49" y="205.5" width="30.88" height="12.5" style="opacity:0.1"></rect><rect x="218.18" y="328.27" width="30.88" height="12.5" style="opacity:0.1"></rect><rect x="83.44" y="366.79" width="30.88" height="12.5" style="opacity:0.2"></rect><rect x="67.26" y="382.23" width="30.88" height="12.5" style="opacity:0.2"></rect><rect x="96.67" y="336.86" width="30.88" height="12.5" style="opacity:0.1"></rect><rect x="131.95" y="336.86" width="30.88" height="12.5" style="opacity:0.1"></rect><rect x="174.59" y="380.97" width="30.88" height="12.5" style="opacity:0.2"></rect><rect x="157.68" y="398.25" width="30.88" height="12.5" style="opacity:0.1"></rect><rect x="192.97" y="398.25" width="30.88" height="12.5" style="opacity:0.1"></rect><rect x="103.28" y="381.49" width="30.88" height="12.5" style="opacity:0.1"></rect><rect x="577.81" y="102.42" width="30.88" height="12.5" style="opacity:0.2"></rect><rect x="561.64" y="117.86" width="30.88" height="12.5" style="opacity:0.2"></rect><rect x="591.04" y="72.5" width="30.88" height="12.5" style="opacity:0.1"></rect><rect x="626.33" y="72.5" width="30.88" height="12.5" style="opacity:0.1"></rect><rect x="668.97" y="116.6" width="30.88" height="12.5" style="opacity:0.2"></rect><rect x="652.06" y="133.88" width="30.88" height="12.5" style="opacity:0.1"></rect><rect x="687.34" y="133.88" width="30.88" height="12.5" style="opacity:0.1"></rect><rect x="651.82" y="366.13" width="30.88" height="12.5" style="opacity:0.2"></rect><rect x="634.91" y="383.4" width="30.88" height="12.5" style="opacity:0.1"></rect><rect x="670.19" y="383.4" width="30.88" height="12.5" style="opacity:0.1"></rect><rect x="597.66" y="117.13" width="30.88" height="12.5" style="opacity:0.1"></rect><rect x="495.5" y="131.35" width="30.88" height="12.5" style="opacity:0.2"></rect><rect x="479.33" y="146.79" width="30.88" height="12.5" style="opacity:0.2"></rect><rect x="508.73" y="101.42" width="30.88" height="12.5" style="opacity:0.1"></rect><rect x="544.02" y="101.42" width="30.88" height="12.5" style="opacity:0.1"></rect><rect x="546.96" y="83.78" width="30.88" height="12.5" style="opacity:0.1"></rect><rect x="586.66" y="145.53" width="30.88" height="12.5" style="opacity:0.2"></rect><rect x="569.75" y="162.81" width="30.88" height="12.5" style="opacity:0.1"></rect><rect x="605.04" y="162.81" width="30.88" height="12.5" style="opacity:0.1"></rect><rect x="515.35" y="146.05" width="30.88" height="12.5" style="opacity:0.1"></rect><rect x="313.74" y="93.94" width="30.88" height="12.5" style="opacity:0.1"></rect><rect x="331.41" y="62.61" width="30.88" height="12.5" style="opacity:0.2"></rect><rect x="365.23" y="62.61" width="30.88" height="12.5" style="opacity:0.2"></rect><rect x="349.06" y="47.18" width="30.88" height="12.5" style="opacity:0.1"></rect><rect x="254.08" y="161.03" width="30.88" height="12.5" style="opacity:0.2"></rect><rect x="287.89" y="161.03" width="30.88" height="12.5" style="opacity:0.2"></rect><rect x="271.72" y="145.59" width="30.88" height="12.5" style="opacity:0.1"></rect><rect x="110.11" y="223.88" width="30.88" height="12.5" style="opacity:0.2"></rect><rect x="127.76" y="208.44" width="30.88" height="12.5" style="opacity:0.1"></rect><rect x="206.41" y="133.3" width="30.88" height="12.5" style="opacity:0.1"></rect><rect x="313.74" y="221.52" width="30.88" height="12.5" style="opacity:0.2"></rect><rect x="651.99" y="221.52" width="30.88" height="12.5" style="opacity:0.2"></rect><rect x="528.49" y="221.15" width="30.88" height="12.5" style="opacity:0.2"></rect><rect x="475.56" y="313.56" width="30.88" height="12.5" style="opacity:0.2"></rect><rect x="623.32" y="194.32" width="30.88" height="12.5" style="opacity:0.1"></rect><rect x="669.64" y="264.52" width="30.88" height="12.5" style="opacity:0.1"></rect><rect x="488.8" y="283.64" width="30.88" height="12.5" style="opacity:0.1"></rect><rect x="524.08" y="283.64" width="30.88" height="12.5" style="opacity:0.1"></rect><rect x="527.02" y="265.99" width="30.88" height="12.5" style="opacity:0.1"></rect><rect x="658.61" y="194.32" width="30.88" height="12.5" style="opacity:0.1"></rect><rect x="566.72" y="327.74" width="30.88" height="12.5" style="opacity:0.2"></rect><rect x="549.81" y="345.02" width="30.88" height="12.5" style="opacity:0.1"></rect><rect x="585.1" y="345.02" width="30.88" height="12.5" style="opacity:0.1"></rect><rect x="649.91" y="327.74" width="30.88" height="12.5" style="opacity:0.2"></rect><rect x="633" y="345.02" width="30.88" height="12.5" style="opacity:0.1"></rect><rect x="668.28" y="345.02" width="30.88" height="12.5" style="opacity:0.1"></rect><rect x="541.73" y="205.5" width="30.88" height="12.5" style="opacity:0.1"></rect><rect x="495.41" y="328.27" width="30.88" height="12.5" style="opacity:0.1"></rect><rect x="590.98" y="221.52" width="30.88" height="12.5" style="opacity:0.2"></rect><rect x="196.19" y="68.49" width="30.88" height="12.5" style="opacity:0.2"></rect><rect x="71.45" y="137" width="30.88" height="12.5" style="opacity:0.1"></rect><rect x="109.95" y="147.78" width="30.88" height="12.5" style="opacity:0.1"></rect><rect x="34.49" y="160.1" width="30.88" height="12.5" style="opacity:0.1"></rect><rect x="90.27" y="160.66" width="30.88" height="12.5" style="opacity:0.1"></rect><rect x="177.3" y="86.02" width="30.88" height="12.5" style="opacity:0.2"></rect><rect x="461.18" y="68.49" width="30.88" height="12.5" style="opacity:0.2"></rect><rect x="442.29" y="86.02" width="30.88" height="12.5" style="opacity:0.2"></rect></g><g id="freepik--Floor--inject-2"><line x1="16.77" y1="420.83" x2="734.64" y2="420.83" style="fill:none;stroke:#263238;stroke-miterlimit:10"></line></g></svg>
