<svg xmlns="http://www.w3.org/2000/svg" viewBox="0 0 500 500"><g id="freepik--Dog--inject-66"><g id="freepik--dog--inject-66"><path d="M483,304.86a23.73,23.73,0,0,1-12.17,7.44,27.25,27.25,0,0,1-15.61-.89c-5-1.79-9.13-5.08-13.06-8.59-3.75-3.36-7.4-6.92-11.81-9.42a26.94,26.94,0,0,0-14.55-3.35,38,38,0,0,0-15.25,4.16c-4.89,2.44-9.57,5.49-15.27,5.12s-10.88-3.42-15.94-5.87c-4.61-2.23-9.91-4.3-15.13-3.49a12.59,12.59,0,0,0-3.4,1c-.11.05,0,.34.09.29,5.33-2.09,11-.61,16.05,1.59s10,5.4,15.58,6.61a17.52,17.52,0,0,0,7.89,0,32.63,32.63,0,0,0,7.51-3.17,59.8,59.8,0,0,1,7.53-3.5,37,37,0,0,1,8.23-2,26.92,26.92,0,0,1,15.88,2.75c4.41,2.38,8,5.91,11.71,9.25s7.54,6.6,12.17,8.57a28.65,28.65,0,0,0,15.11,2.06,24.93,24.93,0,0,0,16.1-9.43c.18-.72.36-1.44.53-2.17A22.45,22.45,0,0,1,483,304.86Z" style="fill:#fff"></path><circle cx="325.69" cy="272.15" r="32.54" style="fill:#BA68C8"></circle><circle cx="325.69" cy="272.15" r="32.54" style="fill:#fff;opacity:0.6000000000000001"></circle><g id="freepik--dog--inject-66"><path d="M336.57,302.35c2.5,4.85,23.85,19.81,28,18.52,7.94-2.46,14.84-6.41,20.86-6,4.6.34,13,2.93,12.63,7.05s-2.86,5.14-6.5,5.47c-4.61.41-8.14-.76-10.33.29s-14.32,8.55-20.73,8.92-21.72-4.26-24.87-7.19S336.57,302.35,336.57,302.35Z" style="fill:#37474f"></path><path d="M255.89,392.9c-2.53-3.53,2.47-10.54,4.08-13.54,1.12-2.1,3.16-4.38,3.32-6.76.22-3.12-1.75-6.41-3.41-8.88-3-4.46-6.48-9.08-6.2-14.74a3.2,3.2,0,0,1,.33-1.47,3.41,3.41,0,0,1,1.32-1.14,27.94,27.94,0,0,1,16.4-3.77,6.09,6.09,0,0,1,2.66.67c1,.56,3.55-.95,4.12,0,3.54,6,4.05,15.14,5.29,22,.68,3.78.78,7.24-1.53,10.39-2.14,2.92-11.71,10.72-12,13.72-.42,3.58-.19,3.34,2.07,6.11l2.36,2.9a10,10,0,0,1,2.46,4.36,3.94,3.94,0,0,1-2.74,4.36,5.5,5.5,0,0,1-1,.24c-2.51.35-5.08-1-7-2.44C262.88,402.25,258.41,396.42,255.89,392.9Z" style="fill:#37474f"></path><path d="M240.08,319.37c-13.82-7-29.07-2.49-37.26-6.84-11.37-6-10-17.58-12.2-20.55s-7,3.28-2.17,14.95c3.62,8.75,10.48,13.95,19.8,16.2,8.58,2.06,23.47,2.12,29,7.68Z" style="fill:#37474f"></path><path d="M219.76,388.94c-1.88-5.75,16.08-16.3,15.73-22.3-5.92-27.65-8.77-36.27-1.17-49.21,5.52-9.41,14.46-13.23,31.48-13.87,9.37-.36,35.35.74,38.45-13.61,14.95-6.8,35.47-10.14,33.95,1.24-1.33,10,2.32,16.77.67,28.8-3,21.63-26.68,28.89-48.3,28.65-15.55-.16-24.42,1.44-28.15,3.56-.16,2.27-2.82,17.42-4.58,20.83-2,3.91-4.84,5.24-7.75,7.38s-14.37,6.71-15.61,9.47c-1.47,3.29-1.18,3.13.15,6.44L236,399.8a9.86,9.86,0,0,1,1,4.9,3.94,3.94,0,0,1-3.93,3.33,4.32,4.32,0,0,1-1-.06c-2.5-.42-4.55-2.44-6-4.43C223.63,400,221.1,393.05,219.76,388.94Z" style="fill:#455a64"></path><path d="M337.19,323.34c-.43.42-1,1-1.54.71a1.43,1.43,0,0,1-.65-.92,7.76,7.76,0,0,0-2-3.25c-1-.88-2.49-1-3.19.35a3.75,3.75,0,0,0-.33,1.59,19.59,19.59,0,0,0,3.72,11.7.25.25,0,0,0,.05-.07,26.81,26.81,0,0,0,5.08-10.6A1.63,1.63,0,0,0,337.19,323.34Z" style="fill:#fafafa"></path><path d="M265.53,350.93c-.29-3.71-1.27-9.25-5.71-13.12a20.9,20.9,0,0,1,2.6,14.39A15.78,15.78,0,0,1,265.53,350.93Z" style="fill:#37474f"></path><path d="M320.5,310.06c.46,6.09,15.93,30.81,20.76,31.29,9.25.92,18.08-.13,24.08,2.95,4.6,2.35,12.09,8.67,9.94,12.76s-5.19,4.05-9.08,2.8c-4.92-1.59-8.05-4.33-10.77-4.21s-18.47,2.57-25.23.16-20.51-13.87-22.47-18.26S320.5,310.06,320.5,310.06Z" style="fill:#455a64"></path><path d="M304.77,334.51s2.45,7.05,7.12,11.65c1-.26,1.93-.54,2.87-.84C310.46,341.16,304.77,334.51,304.77,334.51Z" style="fill:#37474f"></path></g><path d="M302.13,294.59c-2.07-1.28-4.43,1.28-3.38,3.16s6.2,9.05,17.64,11.5c12,2.58,20.93-1.27,22.63-2.37,1.92-1.24,1.12-5.18-.64-4.75-4.76,1.79-12.31,3.38-19.07,2S306.69,299,302.13,294.59Z" style="fill:#BA68C8"></path><path d="M302.13,294.59c-2.07-1.28-4.43,1.28-3.38,3.16s6.2,9.05,17.64,11.5c12,2.58,20.93-1.27,22.63-2.37,1.92-1.24,1.12-5.18-.64-4.75-4.76,1.79-12.31,3.38-19.07,2S306.69,299,302.13,294.59Z" style="opacity:0.1"></path><path d="M308.5,302.55c5.25,1.73,10.63,3.28,16.15,3.48a24.45,24.45,0,0,0,14.58-3.74,1,1,0,0,0-.85-.16c-4.76,1.79-12.31,3.38-19.07,2s-12.62-5.17-17.18-9.55c-2.07-1.28-4.43,1.28-3.38,3.16.86,1.53,4.44,6.57,11.91,9.71L310,307a10.12,10.12,0,0,1-3.4-3.06,1.33,1.33,0,0,1-.23-.92C306.52,302.23,307.7,302.29,308.5,302.55Z" style="opacity:0.1"></path><path d="M333.67,254.9c4.25,2.08,8.51,4.27,12,7.46a20.8,20.8,0,0,1,5.16,7,7.31,7.31,0,0,1,.87,3.67c-.11.83,0,3.1-1.35,2.71a2.5,2.5,0,0,1-.85-.52,27.35,27.35,0,0,0-5.68-3.74c-2.07-.91-4.4-.93-6.43-2.06a17,17,0,0,1-5.09-5c-1.52-2.08-4.19-5-4.58-7.6C327.21,253.43,331.8,254,333.67,254.9Z"></path><path d="M320.6,258.23c6.21-2.71,8.42-1.49,11.48-.52a18.63,18.63,0,0,1,6.88,4.23c1.61,1.45,1.93,5.32,2.74,6.45s4.89,2.88,6.5,4.81,1.48,4.16,1.8,7.39a4.36,4.36,0,0,1-1.86,4.4,8.2,8.2,0,0,1-3.34,4.87c-2.74,1.78-7.56,1.28-7.56,1.28s-1.12,2.58-5.77,2.72c-6.82.22-7.13,1.36-10.87,1.18-6.52-.3-7.85-2.89-11.88-7.41s-5.69-9.8-1.52-18.11C310.48,263,315.44,260.49,320.6,258.23Z" style="fill:#455a64"></path><path d="M336.39,284.67a.31.31,0,0,1,0,.42.3.3,0,0,1-.43,0,.31.31,0,0,1,0-.42A.3.3,0,0,1,336.39,284.67Z" style="fill:#37474f"></path><path d="M338.74,283.35a.3.3,0,1,1-.43,0A.32.32,0,0,1,338.74,283.35Z" style="fill:#37474f"></path><circle cx="338.65" cy="285.98" r="0.3" style="fill:#37474f"></circle><path d="M343.76,284.87a4.64,4.64,0,0,1,.66-.87,6.06,6.06,0,0,0,.6-.81.52.52,0,0,1,.21-.18.48.48,0,0,1,.37,0,7.39,7.39,0,0,1,2,1.07s0,0,0,.06,0,0,0,.06a4.53,4.53,0,0,1-3.67,1.92c-.29,0-.82,0-.69-.39A4.51,4.51,0,0,1,343.76,284.87Z"></path><path d="M337.24,291.23c-.44,1.42-.22,4.89.11,9.42-1.6,1.07-10.94,3.68-18.45,1.69a37.28,37.28,0,0,1-16.22-8.41c2.93-4.49,3.89-21,3.89-21Z" style="fill:#455a64"></path><path d="M328.23,270a4.75,4.75,0,0,0-2.22-1.36c-1.28-.22-2.47.69-3.31,1.67a7.41,7.41,0,0,0-2,4.75,1,1,0,0,0,.13.54.85.85,0,0,0,.44.3,4.1,4.1,0,0,0,2.8-.14,18.07,18.07,0,0,1,2.73-.88c1.66-.26,3.26.34,4.85.75A4.89,4.89,0,0,0,334,276c.7-.25.52-.89.07-1.34C332.26,272.92,330.1,271.65,328.23,270Z" style="opacity:0.1"></path><path d="M341.7,268.39c-.69-1-.8-2.36-1.18-3.46s-2.07-1.27-3.07-1.28a2.31,2.31,0,0,0-1.83.57,1.88,1.88,0,0,0-.12,1.93c.78,1.88,3,2.36,4.78,2.7l1,.17,1.43.25A3.06,3.06,0,0,1,341.7,268.39Z" style="opacity:0.1"></path><path d="M325.05,269.62a1.28,1.28,0,0,0-1-.33,4.11,4.11,0,0,0-3.35,4.67c.23,1.22,1.41,1.14,2.41,1a3.19,3.19,0,0,0,2.8-2.69A3.4,3.4,0,0,0,325.05,269.62Z"></path><path d="M324.82,271.06a.76.76,0,1,1-.76-.76A.76.76,0,0,1,324.82,271.06Z" style="fill:#e0e0e0"></path><path d="M335.52,264.42a1.31,1.31,0,0,1,.69-.85,3,3,0,0,1,3.44.5,2.42,2.42,0,0,1,.64,2.38c-.36,1.09-2.36,1.29-3.25.93A2.64,2.64,0,0,1,335.52,264.42Z"></path><path d="M339.27,264.63a.76.76,0,1,1-.76-.76A.76.76,0,0,1,339.27,264.63Z" style="fill:#e0e0e0"></path><path d="M338.57,276.46a3.46,3.46,0,0,0-.36,1.55,2.86,2.86,0,0,0,.87,2.08,3,3,0,0,0,2.47.66.11.11,0,0,0,.08,0,.11.11,0,0,0,0-.08.82.82,0,0,0-.22-.7c-.13-.15-.32-.25-.39-.44a.42.42,0,0,1,.21-.54c.73-.35,1,.67,1.11,1.12a.73.73,0,0,0,.18.35.83.83,0,0,0,.34.13c.56.11,1.11.23,1.66.36a1,1,0,0,0,.45,0,.88.88,0,0,0,.35-.2,2.73,2.73,0,0,0,1.07-2.49c-.06-.36-.22-.7-.27-1.07a.35.35,0,0,1,.05-.3c.15-.18.5-.09.64.06s.26.75.39.34a2.63,2.63,0,0,0-.09-1.18c-.3-1.43-1.38-2.88-3-2.8a5.37,5.37,0,0,0-1.7.42,14.63,14.63,0,0,0-2.21,1.09,5.06,5.06,0,0,0-1.22.93A3.17,3.17,0,0,0,338.57,276.46Z"></path><path d="M345.15,282c-.16-.2-.58-.15-.45.16.23.55-.26,1.09-.6,1.47-1.34,1.52-2,3.44-3.82,4.49a5.68,5.68,0,0,1-3.84.51c-1.11-.18-2.09-1.12-3.26-.8-.64.18.57.43.71.5a11,11,0,0,1,1.43.68,4.22,4.22,0,0,0,1.81.66,5.89,5.89,0,0,0,4.4-1,9.24,9.24,0,0,0,1.73-2.32c.34-.56.71-1.1,1.1-1.62a7.2,7.2,0,0,0,1-1.28A1.35,1.35,0,0,0,345.15,282Z" style="fill:#263238"></path><path d="M348.83,284.4a3.39,3.39,0,0,0-1.35-1,10.11,10.11,0,0,0-1.19-.35,1.82,1.82,0,0,1-.44-.17,1.49,1.49,0,0,1-.51-.6c0-.09-.24-.26-.31-.08,0-.07,0,0,0,0a.29.29,0,0,0,0,.1.62.62,0,0,0,0,.27,1.41,1.41,0,0,0,.26.5,3,3,0,0,0,1.46.84,2.67,2.67,0,0,1,1,.51,2.14,2.14,0,0,1,.44.53A2.21,2.21,0,0,0,348.83,284.4Z" style="fill:#263238"></path><path d="M311.77,263c-1.88-1.18-4.39.45-7.41,4.85s-6.78,9.92-6.78,11.43,4.9,12.56,11.68,15.57,8.4,1.21,7-1.76-4-7.68-4.9-13.57-1.38-13.55.12-14.06S313.28,264.28,311.77,263Z"></path><path d="M322.75,272.35a.53.53,0,0,1-1.05,0,.53.53,0,1,1,1.05,0Z" style="fill:#455a64"></path><path d="M323,273.8a.28.28,0,0,1-.28.28.29.29,0,0,1-.28-.28.28.28,0,0,1,.28-.28A.27.27,0,0,1,323,273.8Z" style="fill:#455a64"></path><path d="M337.25,265.19a.53.53,0,0,1-.53.53.53.53,0,0,1,0-1.06A.53.53,0,0,1,337.25,265.19Z" style="fill:#455a64"></path><circle cx="337.92" cy="266.28" r="0.28" style="fill:#455a64"></circle><path d="M331.75,291.24a15.29,15.29,0,0,0-4.63-.16,30.47,30.47,0,0,1-4.58.06A9.37,9.37,0,0,1,318.7,290a6.8,6.8,0,0,1-1.41-1,11.86,11.86,0,0,1-1.3-1.71c-.09-.12-.5-.29-.48,0a4.72,4.72,0,0,0,2.07,3.08,8.55,8.55,0,0,0,3.95,1.58,20.25,20.25,0,0,0,4.67.06c.87-.07,1.75-.17,2.63-.25s2-.07,3-.2C331.94,291.53,331.87,291.27,331.75,291.24Z" style="fill:#263238"></path><path d="M319.51,266.7a6.37,6.37,0,0,0-1.83,3.8c0,.41,0,1.14.53,1.2s1.1-.74,1.37-1.15c.56-.81,1.32-1.53,2-2.28a3.87,3.87,0,0,0,.74-1.1c.67-1.78-1.59-1.66-2.46-.81C319.72,266.47,319.61,266.58,319.51,266.7Z" style="fill:#37474f"></path><path d="M334.09,259.22a6.4,6.4,0,0,1,4.14.81c.33.24.92.68.65,1.14s-1.25.44-1.74.42a27.48,27.48,0,0,0-3,.2,3.89,3.89,0,0,1-1.32-.06c-1.83-.53-.39-2.27.82-2.45Z" style="fill:#37474f"></path><path d="M356.77,281.83a27.17,27.17,0,0,1-9,10.79,30.2,30.2,0,0,1-14.88,5.08,35.28,35.28,0,0,1-26.16-8.59,31.43,31.43,0,0,1-10.39-25.28,28.53,28.53,0,0,1,3.23-11.07,32.55,32.55,0,1,0,57.21,29.07Z" style="fill:#BA68C8;opacity:0.30000000000000004"></path><path d="M325.69,305.14a33,33,0,1,1,33-33A33,33,0,0,1,325.69,305.14Zm0-65.09a32.1,32.1,0,1,0,32.1,32.1A32.14,32.14,0,0,0,325.69,240.05Z" style="fill:#BA68C8"></path><path d="M311.83,246.62a28.93,28.93,0,0,0-9.74,8.83,29.59,29.59,0,0,0-3.78,7.51,24.15,24.15,0,0,0-1,10.44c.3,3.08,3.39,4.39,6,2.55a4.16,4.16,0,0,0,.64-.54c1.36-1.37,2-3.27,2.83-5A22.93,22.93,0,0,1,318,259.46c2.42-1.09,5.21-1.9,6.68-4.11,1.74-2.62.72-6.31-1.4-8.39C320.31,244.06,315.11,244.82,311.83,246.62Zm26.07,1.62a5.7,5.7,0,0,0-2.06-3.19,6.23,6.23,0,0,0-6-.48,3,3,0,0,0-1.54,3.27,3.7,3.7,0,0,0,.74,1.25,7.67,7.67,0,0,0,5.73,2.8,3.67,3.67,0,0,0,1.73-.34A3.11,3.11,0,0,0,337.9,248.24Z" style="fill:#fff;opacity:0.30000000000000004"></path></g></g></svg>