<svg xmlns="http://www.w3.org/2000/svg" viewBox="0 0 500 500"><g id="freepik--number-2--inject-66"><g id="freepik--4--inject-66"><polygon points="262.53 195.1 254.64 190.55 254.64 162.48 242.97 155.74 235.68 159.95 235.68 179.6 226.86 174.51 245.77 125.27 233.22 118.02 225.94 122.23 205.66 174.62 205.66 185.47 235.68 202.8 235.68 219.04 247.35 225.78 254.64 221.57 254.64 213.74 255.24 214.09 262.53 209.88 262.53 195.1" style="fill:#BA68C8"></polygon><polygon points="262.53 195.1 254.64 190.55 254.64 162.48 242.97 155.74 235.68 159.95 235.68 179.6 226.86 174.51 245.77 125.27 233.22 118.02 225.94 122.23 205.66 174.62 205.66 185.47 235.68 202.8 235.68 219.04 247.35 225.78 254.64 221.57 254.64 213.74 255.24 214.09 262.53 209.88 262.53 195.1" style="opacity:0.30000000000000004"></polygon><g id="freepik--4--inject-66"><polygon points="247.35 194.76 247.35 166.69 235.68 159.95 235.68 188.02 219.57 178.72 238.48 129.47 225.94 122.23 205.66 174.62 205.66 185.47 235.68 202.8 235.68 219.04 247.35 225.78 247.35 209.53 255.24 214.09 255.24 199.31 247.35 194.76" style="fill:#BA68C8"></polygon><polygon points="247.35 194.76 247.35 166.69 235.68 159.95 235.68 188.02 219.57 178.72 238.48 129.47 225.94 122.23 205.66 174.62 205.66 185.47 235.68 202.8 235.68 219.04 247.35 225.78 247.35 209.53 255.24 214.09 255.24 199.31 247.35 194.76" style="fill:#fff;opacity:0.30000000000000004"></polygon></g><polygon points="225.94 122.23 238.48 129.47 245.77 125.27 233.22 118.02 225.94 122.23" style="fill:#BA68C8"></polygon><polygon points="225.94 122.23 238.48 129.47 245.77 125.27 233.22 118.02 225.94 122.23" style="fill:#fff;opacity:0.5"></polygon><polygon points="235.68 159.95 242.97 155.74 254.64 162.48 247.35 166.69 235.68 159.95" style="fill:#BA68C8"></polygon><polygon points="235.68 159.95 242.97 155.74 254.64 162.48 247.35 166.69 235.68 159.95" style="fill:#fff;opacity:0.5"></polygon><polygon points="247.35 194.76 254.64 190.55 262.53 195.1 255.24 199.31 247.35 194.76" style="fill:#BA68C8"></polygon><polygon points="247.35 194.76 254.64 190.55 262.53 195.1 255.24 199.31 247.35 194.76" style="fill:#fff;opacity:0.5"></polygon><polygon points="219.57 178.72 226.86 174.51 235.68 179.6 235.68 188.02 219.57 178.72" style="fill:#BA68C8"></polygon><polygon points="219.57 178.72 226.86 174.51 235.68 179.6 235.68 188.02 219.57 178.72" style="fill:#fff;opacity:0.5"></polygon></g></g></svg>