<svg xmlns="http://www.w3.org/2000/svg" viewBox="0 0 500 500"><g id="freepik--Planet--inject-128"><g id="freepik--planet--inject-128"><g id="freepik--planet--inject-128"><circle cx="159.38" cy="216.68" r="44.19" transform="translate(-88.4 321.36) rotate(-76.57)" style="fill:#BA68C8"></circle><circle cx="159.38" cy="216.68" r="44.19" transform="translate(-88.4 321.36) rotate(-76.57)" style="fill:#fff;opacity:0.9"></circle><path d="M202.78,207.62h0a24.41,24.41,0,0,1-10.88,3c-8.12.53-17.32-1.74-25.62-5.83s-15.7-10-20.21-16.78a23.58,23.58,0,0,1-4.35-11.8,44.72,44.72,0,0,0-6.88,3.77c3.56,13.36,18.82,27.84,37.36,33.37a38.11,38.11,0,0,0,31-3.64C203.05,209,202.92,208.32,202.78,207.62Z" style="fill:#fff;opacity:0.8"></path><path d="M145.92,188c4.51,6.77,11.91,12.69,20.21,16.78s17.5,6.37,25.62,5.84a24.75,24.75,0,0,0,10.89-3c-.17-.77-.35-1.53-.55-2.29a21.78,21.78,0,0,1-10.49,3.08c-15.52,1-35.18-8.69-43.82-21.62-2.7-4-4-8-4-11.47-.75.28-1.49.59-2.22.91A23.34,23.34,0,0,0,145.92,188Z" style="fill:#fff;opacity:0.5"></path><path d="M203.23,222.16h0a36,36,0,0,1-9.31,1.75c-10.6.7-22.61-2.27-33.45-7.62s-20.49-13.06-26.39-21.9a35.61,35.61,0,0,1-4.79-10.07h0q-.79.75-1.56,1.53c.68,11.55,15,31.67,39.38,40.77,15.64,5.82,27.38,5.6,34,4.62A43.73,43.73,0,0,0,203.23,222.16Z" style="fill:#fff;opacity:0.1"></path><path d="M134.08,194.38c5.9,8.83,15.56,16.56,26.4,21.9s22.84,8.31,33.44,7.62a36.5,36.5,0,0,0,9.31-1.75c.11-.81.18-1.63.24-2.45a33.81,33.81,0,0,1-9.69,2c-20.49,1.33-46.43-11.47-57.84-28.54a31.93,31.93,0,0,1-4.75-10.49c-.65.53-1.28,1.09-1.89,1.67A35.29,35.29,0,0,0,134.08,194.38Z" style="fill:#BA68C8;opacity:0.1"></path><path d="M197.94,238.24h0a45.67,45.67,0,0,1-5.15.61c-12.38.82-26.41-2.64-39.07-8.89s-23.92-15.27-30.81-25.59a44,44,0,0,1-3.58-6.36,44.59,44.59,0,0,0-3,8.42c5.68,11.18,23.69,28.74,47.56,34.56,16.52,4,26.63,2.39,32,.53.14-.19.28-.39.41-.59C196.9,240.05,197.43,239.15,197.94,238.24Z" style="fill:#BA68C8;opacity:0.1"></path><path d="M187,251.17a44.27,44.27,0,0,1-9.4,5.76,94.29,94.29,0,0,1-31.69-8.31c-15.38-7-25.69-18.86-30.13-24.73a44.11,44.11,0,0,1-.59-7.36c7.47,10.05,18.77,18.83,31.35,25C159.64,248,174.09,251.69,187,251.17Z" style="fill:#BA68C8;opacity:0.1"></path><path d="M197.73,194.73a16.43,16.43,0,0,1-8.2,2.51c-5.6.36-11.95-1.2-17.68-4S161,186.3,157.91,181.64a15.83,15.83,0,0,1-3-8.91h-.26a45.91,45.91,0,0,0-4.67.77c1.32,13.06,12.54,23.72,29.82,29.35,10.39,3.39,18.88,1.52,21.63.2A43.82,43.82,0,0,0,197.73,194.73Z" style="fill:#fff;opacity:0.8"></path><path d="M169.11,177.1a20.87,20.87,0,0,0,17.21,8.49,9.92,9.92,0,0,0,3.59-.85c-.61-.58-1.23-1.14-1.88-1.69a10,10,0,0,1-1.86.31c-5.38.35-12.2-3-15.2-7.5a8.76,8.76,0,0,1-1.05-2.1c-.81-.2-1.61-.38-2.43-.53A9.79,9.79,0,0,0,169.11,177.1Z" style="fill:#fff;opacity:0.5"></path><path d="M157.91,181.64c3.12,4.67,8.22,8.75,14,11.57s12.07,4.4,17.67,4a16.53,16.53,0,0,0,8.2-2.51c-.37-.65-.75-1.28-1.15-1.91a14.26,14.26,0,0,1-7.19,2.18c-10.49.69-23.78-5.87-29.62-14.61a13.46,13.46,0,0,1-2.63-7.84c-.75,0-1.5.09-2.25.17A15.83,15.83,0,0,0,157.91,181.64Z" style="fill:#fff;opacity:0.5"></path><path d="M192.26,246.21c-11.68,11.86-44.55,8.22-58.74-13.19-15.09-22.77-.4-53.75,18.32-59.87h0a44.19,44.19,0,1,0,40.41,73.07Z" style="fill:#BA68C8;opacity:0.1"></path><path d="M122.44,192.43a44.19,44.19,0,0,0,55.61,64.31c-1.68.75-22.92,10.33-45.65-11.36-23.66-22.57-10-52.94-5.71-58.45A43.92,43.92,0,0,0,122.44,192.43Z" style="fill:#BA68C8;opacity:0.15"></path><g style="opacity:0.2"><path d="M118.14,232.53a44.22,44.22,0,0,0,3,6.37,83.68,83.68,0,0,0,20,13.63A82.58,82.58,0,0,0,166,260.36a44.49,44.49,0,0,0,7-1.66C153.62,258.26,131,247.41,118.14,232.53Z" style="fill:#BA68C8;opacity:0.32"></path><path d="M188.3,248.87c-25.84,1.69-58.56-14.46-73-36h0c-.11,1.22-.15,2.44-.16,3.66,7.48,10.06,18.78,18.83,31.36,25,13.09,6.46,27.54,10.13,40.46,9.61,1-.77,1.88-1.58,2.78-2.43C189.29,248.79,188.81,248.84,188.3,248.87Z" style="fill:#BA68C8;opacity:0.32"></path><path d="M199.26,235.7a44.21,44.21,0,0,1-6.62.92c-24,1.57-54.49-13.45-67.87-33.49a42.34,42.34,0,0,1-4.12-7.7c-.47.85-.92,1.71-1.32,2.58a45.93,45.93,0,0,0,3.57,6.36c6.89,10.32,18.17,19.34,30.83,25.59s26.68,9.7,39.06,8.9a50.8,50.8,0,0,0,5.15-.61Q198.65,237,199.26,235.7Z" style="fill:#BA68C8;opacity:0.32"></path></g><path d="M187.67,204.73a6.91,6.91,0,1,0-8.56-4.72A6.91,6.91,0,0,0,187.67,204.73ZM176,186.87a11.89,11.89,0,1,0-8.12,14.71A11.88,11.88,0,0,0,176,186.87Zm1.6,22.32a5.44,5.44,0,1,0-3.72,6.74A5.44,5.44,0,0,0,177.61,209.19Z" style="fill:#fff"></path></g><g id="freepik--Rings--inject-128"><g style="opacity:0.4"><path d="M204.82,220.83c-.43-.49-.88-1-1.33-1.47-.05.89-.13,1.79-.24,2.69a41.33,41.33,0,0,1-.7,4.08c3.43,7.44,1.07,12.93-6.31,14.94a33.27,33.27,0,0,1-11.63.62c-20-1.94-47-15.79-60.25-30.95a32.66,32.66,0,0,1-6.27-9.84c-2.66-7.15.42-12.26,8.47-13.81a42.19,42.19,0,0,1,4.94-4.7c-.66-.09-1.31-.16-2-.23-25-2.44-31.91,10.94-15.36,29.88.38.42.75.85,1.15,1.25,16.52,18,48.18,34.29,72.46,37.23.57.08,1.13.14,1.68.19C214.51,253.15,221.38,239.76,204.82,220.83Z" style="fill:#BA68C8"></path></g><g style="opacity:0.1"><path d="M204.82,220.83c-.43-.49-.88-1-1.33-1.47-.05.89-.13,1.79-.24,2.69a41.33,41.33,0,0,1-.7,4.08c3.43,7.44,1.07,12.93-6.31,14.94a33.27,33.27,0,0,1-11.63.62c-20-1.94-47-15.79-60.25-30.95a32.66,32.66,0,0,1-6.27-9.84c-2.66-7.15.42-12.26,8.47-13.81a42.19,42.19,0,0,1,4.94-4.7c-.66-.09-1.31-.16-2-.23-25-2.44-31.91,10.94-15.36,29.88.38.42.75.85,1.15,1.25,16.52,18,48.18,34.29,72.46,37.23.57.08,1.13.14,1.68.19C214.51,253.15,221.38,239.76,204.82,220.83Z" style="fill:#fff"></path></g><g style="opacity:0.4"><path d="M213.76,225.29a102.55,102.55,0,0,0-10.21-10.06c0,1,0,2,0,2.93q1.62,1.65,3.08,3.31c17.31,19.79,10.12,33.77-16,31.22-1.55-.15-3.14-.35-4.75-.61-23.9-3.82-53.58-19.06-70.62-36.28q-1.75-1.74-3.3-3.52c-17.28-19.77-10.1-33.76,16.06-31.22,1.47.14,3,.34,4.49.59.77-.6,1.57-1.19,2.39-1.72a104.6,104.6,0,0,0-14.14-2.44c-31-3-39.46,13.54-19,36.95a112.2,112.2,0,0,0,15.08,14.05,178.39,178.39,0,0,0,57.78,29.69,111.7,111.7,0,0,0,20.21,4.07C225.75,265.26,234.24,248.71,213.76,225.29Z" style="fill:#BA68C8"></path></g><g style="opacity:0.1"><path d="M213.76,225.29a102.55,102.55,0,0,0-10.21-10.06c0,1,0,2,0,2.93q1.62,1.65,3.08,3.31c17.31,19.79,10.12,33.77-16,31.22-1.55-.15-3.14-.35-4.75-.61-23.9-3.82-53.58-19.06-70.62-36.28q-1.75-1.74-3.3-3.52c-17.28-19.77-10.1-33.76,16.06-31.22,1.47.14,3,.34,4.49.59.77-.6,1.57-1.19,2.39-1.72a104.6,104.6,0,0,0-14.14-2.44c-31-3-39.46,13.54-19,36.95a112.2,112.2,0,0,0,15.08,14.05,178.39,178.39,0,0,0,57.78,29.69,111.7,111.7,0,0,0,20.21,4.07C225.75,265.26,234.24,248.71,213.76,225.29Z" style="fill:#fff"></path></g><g style="opacity:0.4"><path d="M124.72,180a47.44,47.44,0,0,0-13.2.54,24.07,24.07,0,0,0-6.2,2.13,14.38,14.38,0,0,0-5,4.1,12.54,12.54,0,0,0-2.37,6,17.39,17.39,0,0,0,.56,6.45,35.36,35.36,0,0,0,6,11.61,93.93,93.93,0,0,0,19,18.24,163.68,163.68,0,0,0,46.83,24.07,94.56,94.56,0,0,0,25.87,4.8,37.73,37.73,0,0,0,13-1.74,18.73,18.73,0,0,0,5.71-3.06,12.17,12.17,0,0,0,3.81-5.15,13.14,13.14,0,0,0,.76-6.4,22.32,22.32,0,0,0-1.74-6.33,45.3,45.3,0,0,0-7.19-11.06,45.87,45.87,0,0,1,7.45,11,23.29,23.29,0,0,1,1.89,6.39,13.59,13.59,0,0,1-.66,6.65,12.67,12.67,0,0,1-3.92,5.44,19.62,19.62,0,0,1-5.87,3.24,39,39,0,0,1-13.2,1.94,75.64,75.64,0,0,1-13.26-1.41,114.45,114.45,0,0,1-12.9-3.29,157.53,157.53,0,0,1-47.14-24.23,114.17,114.17,0,0,1-10.19-8.58,73.62,73.62,0,0,1-8.85-10,36.23,36.23,0,0,1-5.94-11.94,18.2,18.2,0,0,1-.49-6.7,12.94,12.94,0,0,1,2.56-6.2,14.86,14.86,0,0,1,5.25-4.13,24.59,24.59,0,0,1,6.34-2A47.44,47.44,0,0,1,124.72,180Z" style="fill:#BA68C8"></path></g><g style="opacity:0.2"><path d="M121.43,185.29a15.16,15.16,0,0,0-8,4.09l-.76.84-.6,1-.3.48c-.08.17-.14.35-.21.52l-.42,1a11.77,11.77,0,0,0-.35,4.46,21.29,21.29,0,0,0,3,8.45,43.74,43.74,0,0,0,5.44,7.27,88.38,88.38,0,0,0,13.73,12,126.25,126.25,0,0,0,15.58,9.49,128.59,128.59,0,0,0,16.73,7.28A92.69,92.69,0,0,0,183,246.54,49.19,49.19,0,0,0,192,247a24.54,24.54,0,0,0,8.81-1.9,13.06,13.06,0,0,0,2-1.06l.94-.63c.29-.24.56-.5.84-.75a10.44,10.44,0,0,0,1.48-1.7c.22-.3.36-.66.55-1a5,5,0,0,0,.46-1,13.17,13.17,0,0,0-.38-8.92,13.25,13.25,0,0,1,.58,9,4.48,4.48,0,0,1-.44,1.06,10.17,10.17,0,0,1-.55,1,10.46,10.46,0,0,1-1.47,1.78c-.29.27-.55.55-.85.8l-1,.66a14.29,14.29,0,0,1-2,1.15,25.2,25.2,0,0,1-9,2.07,49.6,49.6,0,0,1-9.2-.31A88.88,88.88,0,0,1,165,242.9a128.93,128.93,0,0,1-16.87-7.26A125.94,125.94,0,0,1,132.51,226a84.64,84.64,0,0,1-13.77-12.15,44.61,44.61,0,0,1-5.42-7.45,21.85,21.85,0,0,1-3-8.7,12.31,12.31,0,0,1,.48-4.59l.45-1.07c.08-.18.15-.36.24-.53l.32-.49.63-1,.8-.84A15.31,15.31,0,0,1,121.43,185.29Z"></path></g><g style="opacity:0.1"><path d="M237.13,262.61c3.66-5.7,6.27-15.54-2.09-30.05a76.12,76.12,0,0,0-9-12.29,132.43,132.43,0,0,0-19.38-17.69c.19.65.36,1.31.53,2a129.32,129.32,0,0,1,17.92,16.55A74.76,74.76,0,0,1,234,233.18c8,14,5.6,23.35,2.12,28.75-5.91,9.22-19.28,13.35-37.66,11.64-10.81-1-22.77-4-34.86-8.33a212.45,212.45,0,0,1-45.9-23.36c-10.68-7.2-20.11-15.13-27.29-23.27a75.94,75.94,0,0,1-8.83-12.07c-8.05-14-5.59-23.37-2.13-28.78,5.93-9.21,19.3-13.34,37.67-11.64a129.94,129.94,0,0,1,24,4.77c.62-.26,1.27-.52,1.91-.75a133.35,133.35,0,0,0-25.75-5.26c-18.86-1.74-32.65,2.59-38.83,12.2-3.66,5.71-6.27,15.55,2.09,30.08a78,78,0,0,0,9,12.27c7.78,8.83,18.19,17.41,29.93,25.09a215.38,215.38,0,0,0,41.08,20.88c13.11,5,26.16,8.32,37.87,9.41C217.17,276.57,231,272.23,237.13,262.61Z" style="fill:#BA68C8"></path></g><g style="opacity:0.2"><path d="M230.25,258.7c3.09-4.8,5.24-13.17-2-25.77a69.78,69.78,0,0,0-8.17-11.14,118.58,118.58,0,0,0-15.53-14.5q.19.87.33,1.74a116.13,116.13,0,0,1,14.33,13.53,68.68,68.68,0,0,1,8,11c7,12.09,5,20,2,24.55-5.05,7.87-16.82,11.37-33.15,9.85a127.86,127.86,0,0,1-27.87-6.19A195.24,195.24,0,0,1,117.73,236a127.57,127.57,0,0,1-21.44-18.89,69.28,69.28,0,0,1-8-10.94c-7-12.1-5-20-2-24.57,5-7.88,16.83-11.38,33.15-9.87a117,117,0,0,1,19.41,3.64c.52-.27,1.06-.53,1.59-.75a118.87,118.87,0,0,0-20.89-4c-16.78-1.56-28.94,2.12-34.25,10.39-3.08,4.8-5.23,13.16,2,25.78a71,71,0,0,0,8.14,11.13,131.42,131.42,0,0,0,23.41,20.31,197.74,197.74,0,0,0,47,23.92,131.68,131.68,0,0,0,30.2,6.95C212.8,270.64,225,267,230.25,258.7Z" style="fill:#BA68C8"></path></g><g style="opacity:0.4"><path d="M225.45,255.93c2.62-4.09,4.41-11.28-2-22.4a64.06,64.06,0,0,0-7.57-10.33,109.89,109.89,0,0,0-12.68-12.09c.07.53.13,1.07.18,1.6a106.14,106.14,0,0,1,11.66,11.23,63.28,63.28,0,0,1,7.44,10.14c6.11,10.63,4.47,17.42,2,21.24-4.37,6.81-14.93,9.81-29.72,8.44A115.38,115.38,0,0,1,172,259a182.94,182.94,0,0,1-54.25-27.6,115.52,115.52,0,0,1-17.29-15.68A62.86,62.86,0,0,1,93,205.63c-6.13-10.64-4.49-17.43-2-21.26,4.38-6.81,14.93-9.81,29.72-8.43a106.59,106.59,0,0,1,16,2.82c.46-.29.93-.56,1.4-.81a109.89,109.89,0,0,0-17.26-3.13c-15.23-1.41-26.16,1.76-30.77,8.94-2.62,4.09-4.41,11.3,2,22.43A64.64,64.64,0,0,0,99.6,216.5a118.7,118.7,0,0,0,18.86,16.86A184.74,184.74,0,0,0,170,259.57a118.71,118.71,0,0,0,24.71,5.31C209.92,266.29,220.84,263.11,225.45,255.93Z" style="fill:#BA68C8"></path></g><g style="opacity:0.5"><path d="M224.19,253.65c2.56-5,1.61-11.58-2.64-19a62.54,62.54,0,0,0-7.35-10,104.14,104.14,0,0,0-10.7-10.42c0,.52.05,1,.07,1.53a101.67,101.67,0,0,1,9.79,9.63,62.09,62.09,0,0,1,7.23,9.84c4,7,5,13.19,2.6,17.89-3.45,6.77-13.47,9.76-28.2,8.39a109.32,109.32,0,0,1-19.38-3.76,178.29,178.29,0,0,1-59-30,110.82,110.82,0,0,1-14.48-13.49c-9.77-11.1-13.25-20.94-9.8-27.73s13.46-9.75,28.19-8.38a101.09,101.09,0,0,1,13.58,2.25l1.26-.84a103.06,103.06,0,0,0-14.73-2.52c-15.23-1.42-25.63,1.78-29.31,9-2.56,5.05-1.6,11.59,2.66,19a62.59,62.59,0,0,0,7.31,10,112.36,112.36,0,0,0,15.84,14.55,180.56,180.56,0,0,0,56.72,28.86,112.66,112.66,0,0,0,21,4.21C210.11,264.06,220.51,260.86,224.19,253.65Z" style="fill:#BA68C8"></path></g></g></g></g></svg>