<svg xmlns="http://www.w3.org/2000/svg" viewBox="0 0 500 500"><g id="freepik--number-1--inject-66"><g id="freepik--4--inject-66"><polygon points="117.77 278.63 109.88 274.07 109.88 246.01 98.21 239.27 90.92 243.48 90.92 263.13 82.1 258.04 101.01 208.79 88.46 201.55 81.17 205.76 60.9 258.15 60.9 269 90.92 286.32 90.92 302.57 102.59 309.3 109.88 305.1 109.88 297.27 110.48 297.62 117.77 293.41 117.77 278.63" style="fill:#BA68C8"></polygon><polygon points="117.77 278.63 109.88 274.07 109.88 246.01 98.21 239.27 90.92 243.48 90.92 263.13 82.1 258.04 101.01 208.79 88.46 201.55 81.17 205.76 60.9 258.15 60.9 269 90.92 286.32 90.92 302.57 102.59 309.3 109.88 305.1 109.88 297.27 110.48 297.62 117.77 293.41 117.77 278.63" style="opacity:0.30000000000000004"></polygon><g id="freepik--4--inject-66"><polygon points="102.59 278.28 102.59 250.22 90.92 243.48 90.92 271.55 74.81 262.25 93.72 213 81.17 205.76 60.9 258.15 60.9 269 90.92 286.32 90.92 302.57 102.59 309.3 102.59 293.06 110.48 297.62 110.48 282.84 102.59 278.28" style="fill:#BA68C8"></polygon><polygon points="102.59 278.28 102.59 250.22 90.92 243.48 90.92 271.55 74.81 262.25 93.72 213 81.17 205.76 60.9 258.15 60.9 269 90.92 286.32 90.92 302.57 102.59 309.3 102.59 293.06 110.48 297.62 110.48 282.84 102.59 278.28" style="fill:#fff;opacity:0.30000000000000004"></polygon></g><polygon points="81.17 205.76 93.72 213 101.01 208.79 88.46 201.55 81.17 205.76" style="fill:#BA68C8"></polygon><polygon points="81.17 205.76 93.72 213 101.01 208.79 88.46 201.55 81.17 205.76" style="fill:#fff;opacity:0.5"></polygon><polygon points="90.92 243.48 98.21 239.27 109.88 246.01 102.59 250.22 90.92 243.48" style="fill:#BA68C8"></polygon><polygon points="90.92 243.48 98.21 239.27 109.88 246.01 102.59 250.22 90.92 243.48" style="fill:#fff;opacity:0.5"></polygon><polygon points="102.59 278.28 109.88 274.07 117.77 278.63 110.48 282.84 102.59 278.28" style="fill:#BA68C8"></polygon><polygon points="102.59 278.28 109.88 274.07 117.77 278.63 110.48 282.84 102.59 278.28" style="fill:#fff;opacity:0.5"></polygon><polygon points="74.81 262.25 82.1 258.04 90.92 263.13 90.92 271.55 74.81 262.25" style="fill:#BA68C8"></polygon><polygon points="74.81 262.25 82.1 258.04 90.92 263.13 90.92 271.55 74.81 262.25" style="fill:#fff;opacity:0.5"></polygon></g></g></svg>