<svg xmlns="http://www.w3.org/2000/svg" xmlns:xlink="http://www.w3.org/1999/xlink" viewBox="0 0 500 500"><defs><clipPath id="freepik--clip-path--inject-2"><path d="M347.67,388.48l.12-44.21c.48-1.78.87-8.34,1.89-12.91,1.74-7.66-5.1-16.9-5.58-17.2-1.92-1.19-6-1.17-6-1.17s-4-4.57-7.57-6a17.87,17.87,0,0,0-7.66-1,36.61,36.61,0,0,0-9.1-5.51,7.49,7.49,0,0,0-7.66,1.44l-4.47,7a5.21,5.21,0,0,0,.61,6.52c2.14,2.11,4.88,1.12,6.26,1.12,1.91,0,2.63-2.16,2.63-2.16s.47,11.26,0,12.69h0c-.49,1.43-4.07,4.78-4.07,4.78l-12-15.83a114.51,114.51,0,0,1-10.77-17.78,8.5,8.5,0,0,0-1.35-2.09c-2.1-2.38-6.59-3.07-7.76,1.32a8.7,8.7,0,0,0,.19,4.24c5,14.78,11.38,25.95,17.19,37.59,3.45,6.91,2.17,6.83,3.89,9.95-.2.14-.1.4-.32.53-.84,3.36-1.43,6.73-2.28,10.09a46,46,0,0,0-3.83-12.18,27.5,27.5,0,0,0,.53-7.12,9.38,9.38,0,0,0-3-6.31,6.17,6.17,0,0,0-3.49-1.36,3.64,3.64,0,0,0-3.84,3.12,37.51,37.51,0,0,1-1,5.41,54.48,54.48,0,0,1-2.76,6.8c0,4.46,2.76,3.73,4.77,21.67,1.56,14,19.56,23.21,29.36,33.3l10.44,32.86A202.3,202.3,0,0,0,356,417.79Z" style="fill:#fff"></path></clipPath><clipPath id="freepik--clip-path-2--inject-2"><path d="M237.2,336.42c-.43-2-3.24-1.69-3.24-1.69-9.45.56-10.72,15.37-10.72,15.37l-3.39,10.14-1-15.26.1-19.67s2.86-18.82,1.59-21.77a4.31,4.31,0,0,0-3.91-2.86c-5.5-1.38-5.82,6.55-5.82,6.55l-4.64,16.18-1.91,17.45-1.58-.84s-.75-18.52-.43-18.83,2.22-12.79,2.22-12.79,1.05-2.33,2.33-5.29a6.43,6.43,0,0,0,0-5.29c-2.23-4.54-6.87-2.42-7.83,0a70.39,70.39,0,0,1-3.8,7.19l-5.3,14.49c.2,3.28-1.68,19.46-1.68,19.46l-1.91-.87-3.07-9.5,2.34-9.73s5.07-5.6,4.22-8.88-5.18-2.32-5.18-2.32L175.88,318h-2.55l-6,7.61a48.27,48.27,0,0,0-1.38,25.29l1.38,6.43v41.56s-4.12,6.66-4.12,7.29c0,.29-1.7,5.54-4.07,12.09,10.37,6.1,19.3,10.82,25.63,13.31,3,1.18,6,2.3,9,3.37,3.8-10.67,8.24-22.08,10.69-24.75,4.86-5.28,14.38-15.44,14.38-15.44s10.81-17.37,12.08-23.14c1-4.74,3.58-13.35,4.46-16.3a5.77,5.77,0,0,0,.24-2.07c-.07-1.56-.22-4.59-.22-7.26C235.36,342.2,237.62,338.39,237.2,336.42Z" style="fill:#fff"></path></clipPath><clipPath id="freepik--clip-path-3--inject-2"><path d="M450,317.12a71.82,71.82,0,0,1-1,11.86c-2.9,17.31-12,29.93-22.76,29.93a13.68,13.68,0,0,1-2.86-.3c-11.75-2.49-20.86-20.11-20.86-41.49,0-23.08,10.62-31.25,23.72-31.25S450,294,450,317.12Z" style="fill:#fff;stroke:#263238;stroke-miterlimit:10"></path></clipPath></defs><g id="freepik--Coffee--inject-2"><circle cx="423.44" cy="228.39" r="41.45" style="fill:none;stroke:#263238;stroke-linecap:round;stroke-linejoin:round"></circle><path d="M470.36,229.48c-8.84,14.49-12,12.53-42.12,27-15.31,7.34-30.1-16.23-20.09-40.42.49-1.18,4.81-7.15,4.81-7.15a22.08,22.08,0,0,1,38.58-9.12,23.84,23.84,0,0,1,21.18-5.06c.35,1,.68,2,1,3,.12.38.25.75.36,1.13.38,1.17.74,2.34,1.07,3.52q1,3.36,1.84,6.76a13.55,13.55,0,0,0-9.84.59c-2.21,1.08-4.06,2.86-6.36,3.74s-5.48.38-6.36-1.92c1.11,4.62,6,3.24,10.62,4.15C472.25,217.09,474.08,223.38,470.36,229.48Z" style="opacity:0.2"></path><path d="M456.75,222.33s7.42-1,10.94-.47A6.75,6.75,0,0,1,472,224.3a2.37,2.37,0,0,1,.51,1.33l.4,5.8a2.37,2.37,0,0,1-.64,1.79c-1.45,1.51-5.82,4.26-18.76,5.25C435.28,239.86,456.75,222.33,456.75,222.33Z" style="fill:#fff;stroke:#263238;stroke-linecap:round;stroke-linejoin:round"></path><path d="M451.32,207.34A27.69,27.69,0,0,1,457.4,225c0,6.91-8,30.51-28.49,33.39-21.69,3-39.13-15.52-35.41-37.86C396.08,205.05,433.91,185.7,451.32,207.34Z" style="fill:#fff;stroke:#263238;stroke-linecap:round;stroke-linejoin:round"></path><ellipse cx="424.82" cy="223.41" rx="31.47" ry="29.79" style="fill:#fff"></ellipse><ellipse cx="424.76" cy="224.97" rx="25.84" ry="24.45" style="fill:#263238"></ellipse><path d="M456.29,223.41c0-16.45-14.09-29.78-31.47-29.78S393.35,207,393.35,223.41" style="fill:none;stroke:#263238;stroke-linecap:round;stroke-linejoin:round"></path><path d="M448,243.57a28.79,28.79,0,0,0,8.3-20.16" style="fill:none;stroke:#263238;stroke-linecap:round;stroke-linejoin:round"></path><path d="M402.78,244.67a32.28,32.28,0,0,0,22,8.53,32.85,32.85,0,0,0,14.61-3.39" style="fill:none;stroke:#263238;stroke-linecap:round;stroke-linejoin:round"></path><path d="M398.24,239.36c.41.62.85,1.22,1.3,1.8" style="fill:none;stroke:#263238;stroke-linecap:round;stroke-linejoin:round"></path><path d="M393.35,223.41a28.39,28.39,0,0,0,3,12.71" style="fill:none;stroke:#263238;stroke-linecap:round;stroke-linejoin:round"></path><path d="M471,231.57s-5.61-3.93-14.72-.37" style="fill:#fff;stroke:#263238;stroke-linecap:round;stroke-linejoin:round"></path><path d="M466.18,234.29a57.1,57.1,0,0,1-11.64,1.83" style="fill:#fff;stroke:#263238;stroke-linecap:round;stroke-linejoin:round"></path><path d="M469.09,233.05a5.44,5.44,0,0,1-1.4.73" style="fill:#fff;stroke:#263238;stroke-linecap:round;stroke-linejoin:round"></path><path d="M474.08,198.83c-.11-.38-.24-.75-.36-1.13-1.91-5.92-4.37-12.42-7.36-19.28-.55-1.27-1.13-2.56-1.71-3.86l-.67.06c-2.87.29-5.89.65-8.25,2.28s-3.77,5.07-2.24,7.52,5.43,3.78,4.81,6.55c-6.41,3.61-14.23,3.19-21.36,5A34.78,34.78,0,0,0,425,201.6h0a36.71,36.71,0,0,0-3.24,2.72,12.81,12.81,0,0,0-1.32,1.42s0,0,0,0a4.89,4.89,0,0,0-1.13,2.54c-.25,2.67,2.18,4.49,4.77,5.65a.58.58,0,0,1,0,1.08,14.9,14.9,0,0,0-4.67,2.7l0,0a1.16,1.16,0,0,0,1,2l.4,0a7.55,7.55,0,0,1,3,.36,3.63,3.63,0,0,1,2.71,2.86c.16,2-2.15,3.86-5.15,4.09-.73.07-.17.94.9,1.12a16,16,0,0,0,6.4-.52c2.51-.6,5.19-1.47,6.61-3.62a4.52,4.52,0,0,0,.6-3.18,3.22,3.22,0,0,0-2.66-2.92,87.49,87.49,0,0,0,13.72-2.75h0l1.41-.43a13.16,13.16,0,0,0,3.87-1.69,5.39,5.39,0,0,0,1.69-1.86c1-2-.43-5.19-2.65-4.77,6.45-2.53,13.27-4,19.79-6.34C472,199.67,473.06,199.27,474.08,198.83Z" style="fill:#fff"></path></g></svg>