<svg xmlns="http://www.w3.org/2000/svg" xmlns:xlink="http://www.w3.org/1999/xlink" viewBox="0 0 500 500"><defs><clipPath id="freepik--clip-path--inject-2"><path d="M347.67,388.48l.12-44.21c.48-1.78.87-8.34,1.89-12.91,1.74-7.66-5.1-16.9-5.58-17.2-1.92-1.19-6-1.17-6-1.17s-4-4.57-7.57-6a17.87,17.87,0,0,0-7.66-1,36.61,36.61,0,0,0-9.1-5.51,7.49,7.49,0,0,0-7.66,1.44l-4.47,7a5.21,5.21,0,0,0,.61,6.52c2.14,2.11,4.88,1.12,6.26,1.12,1.91,0,2.63-2.16,2.63-2.16s.47,11.26,0,12.69h0c-.49,1.43-4.07,4.78-4.07,4.78l-12-15.83a114.51,114.51,0,0,1-10.77-17.78,8.5,8.5,0,0,0-1.35-2.09c-2.1-2.38-6.59-3.07-7.76,1.32a8.7,8.7,0,0,0,.19,4.24c5,14.78,11.38,25.95,17.19,37.59,3.45,6.91,2.17,6.83,3.89,9.95-.2.14-.1.4-.32.53-.84,3.36-1.43,6.73-2.28,10.09a46,46,0,0,0-3.83-12.18,27.5,27.5,0,0,0,.53-7.12,9.38,9.38,0,0,0-3-6.31,6.17,6.17,0,0,0-3.49-1.36,3.64,3.64,0,0,0-3.84,3.12,37.51,37.51,0,0,1-1,5.41,54.48,54.48,0,0,1-2.76,6.8c0,4.46,2.76,3.73,4.77,21.67,1.56,14,19.56,23.21,29.36,33.3l10.44,32.86A202.3,202.3,0,0,0,356,417.79Z" style="fill:#fff"></path></clipPath><clipPath id="freepik--clip-path-2--inject-2"><path d="M237.2,336.42c-.43-2-3.24-1.69-3.24-1.69-9.45.56-10.72,15.37-10.72,15.37l-3.39,10.14-1-15.26.1-19.67s2.86-18.82,1.59-21.77a4.31,4.31,0,0,0-3.91-2.86c-5.5-1.38-5.82,6.55-5.82,6.55l-4.64,16.18-1.91,17.45-1.58-.84s-.75-18.52-.43-18.83,2.22-12.79,2.22-12.79,1.05-2.33,2.33-5.29a6.43,6.43,0,0,0,0-5.29c-2.23-4.54-6.87-2.42-7.83,0a70.39,70.39,0,0,1-3.8,7.19l-5.3,14.49c.2,3.28-1.68,19.46-1.68,19.46l-1.91-.87-3.07-9.5,2.34-9.73s5.07-5.6,4.22-8.88-5.18-2.32-5.18-2.32L175.88,318h-2.55l-6,7.61a48.27,48.27,0,0,0-1.38,25.29l1.38,6.43v41.56s-4.12,6.66-4.12,7.29c0,.29-1.7,5.54-4.07,12.09,10.37,6.1,19.3,10.82,25.63,13.31,3,1.18,6,2.3,9,3.37,3.8-10.67,8.24-22.08,10.69-24.75,4.86-5.28,14.38-15.44,14.38-15.44s10.81-17.37,12.08-23.14c1-4.74,3.58-13.35,4.46-16.3a5.77,5.77,0,0,0,.24-2.07c-.07-1.56-.22-4.59-.22-7.26C235.36,342.2,237.62,338.39,237.2,336.42Z" style="fill:#fff"></path></clipPath><clipPath id="freepik--clip-path-3--inject-2"><path d="M450,317.12a71.82,71.82,0,0,1-1,11.86c-2.9,17.31-12,29.93-22.76,29.93a13.68,13.68,0,0,1-2.86-.3c-11.75-2.49-20.86-20.11-20.86-41.49,0-23.08,10.62-31.25,23.72-31.25S450,294,450,317.12Z" style="fill:#fff;stroke:#263238;stroke-miterlimit:10"></path></clipPath></defs><g id="freepik--Hands--inject-2"><path d="M310.33,440l-4.69-28.25a23.07,23.07,0,0,0-6.35-11.06c-9.33-9-21.66-18.24-22.19-30-.81-18-3.62-17.49-3.32-21.94a54.06,54.06,0,0,0,3.21-6.6,38.47,38.47,0,0,0,1.36-5.34,3.64,3.64,0,0,1,4-2.85,6.19,6.19,0,0,1,3.39,1.59,9.39,9.39,0,0,1,2.54,6.5,27.79,27.79,0,0,1-1,7.06,46.16,46.16,0,0,1,3,12.41c1.07-3.3,1.88-6.63,2.95-9.92.22-.12.14-.38.35-.5-1.51-3.24-.23-3.06-3.22-10.19-5-12-10.64-23.57-14.65-38.65a8.57,8.57,0,0,1,.09-4.24c1.45-4.31,5.89-3.32,7.83-.81a8.28,8.28,0,0,1,1.2,2.18,116.46,116.46,0,0,0,9.57,18.45l10.89,16.6s3.79-3.11,4.37-4.5h0c.57-1.4.85-12.67.85-12.67s-.86,2.11-2.77,2c-1.38-.1-4.18.7-6.17-1.54a5.21,5.21,0,0,1-.18-6.54l4.93-6.66a7.48,7.48,0,0,1,7.74-.93,36.82,36.82,0,0,1,8.71,6.1,17.81,17.81,0,0,1,7.58,1.46c3.49,1.68,7.15,6.5,7.15,6.5s4.07.25,5.9,1.58c.46.33,6.67,10,4.43,17.53-1.33,4.49-2.15,11-2.75,12.76l-3.05,44.09,6.15,29-13.15,7.33A94,94,0,0,1,320,436.68Z" style="opacity:0.2"></path><path d="M347.67,388.48l.12-44.21c.48-1.78.87-8.34,1.89-12.91,1.74-7.66-5.1-16.9-5.58-17.2-1.92-1.19-6-1.17-6-1.17s-4-4.57-7.57-6a17.87,17.87,0,0,0-7.66-1,36.61,36.61,0,0,0-9.1-5.51,7.49,7.49,0,0,0-7.66,1.44l-4.47,7a5.21,5.21,0,0,0,.61,6.52c2.14,2.11,4.88,1.12,6.26,1.12,1.91,0,2.63-2.16,2.63-2.16s.47,11.26,0,12.69h0c-.49,1.43-4.07,4.78-4.07,4.78l-12-15.83a114.51,114.51,0,0,1-10.77-17.78,8.5,8.5,0,0,0-1.35-2.09c-2.1-2.38-6.59-3.07-7.76,1.32a8.7,8.7,0,0,0,.19,4.24c5,14.78,11.38,25.95,17.19,37.59,3.45,6.91,2.17,6.83,3.89,9.95-.2.14-.1.4-.32.53-.84,3.36-1.43,6.73-2.28,10.09a46,46,0,0,0-3.83-12.18,27.5,27.5,0,0,0,.53-7.12,9.38,9.38,0,0,0-3-6.31,6.17,6.17,0,0,0-3.49-1.36,3.64,3.64,0,0,0-3.84,3.12,37.51,37.51,0,0,1-1,5.41,54.48,54.48,0,0,1-2.76,6.8c0,4.46,2.76,3.73,4.77,21.67,1.56,14,19.56,23.21,29.36,33.3l10.44,32.86A202.3,202.3,0,0,0,356,417.79Z" style="fill:#fff"></path><g style="clip-path:url(#freepik--clip-path--inject-2)"><path d="M342.55,328.41a7.69,7.69,0,0,1,2.29-3.46,2.93,2.93,0,0,1,3.83.13q-1.12-3.43-2.38-6.83a10.56,10.56,0,0,0-2.78-4.68c-1.42-1.16-3.76-1.4-5,0a54.05,54.05,0,0,1,.28,15.81c-.37,2.84-.85,6.1,1.06,8.23.53.43,1.45-.34,1.11-.93-.16-.28-.72-.3-1-.28A50.82,50.82,0,0,1,342.55,328.41Z" style="fill:#BA68C8"></path><path d="M342.55,328.41a7.69,7.69,0,0,1,2.29-3.46,2.93,2.93,0,0,1,3.83.13q-1.12-3.43-2.38-6.83a10.56,10.56,0,0,0-2.78-4.68c-1.42-1.16-3.76-1.4-5,0a54.05,54.05,0,0,1,.28,15.81c-.37,2.84-.85,6.1,1.06,8.23.53.43,1.45-.34,1.11-.93-.16-.28-.72-.3-1-.28A50.82,50.82,0,0,1,342.55,328.41Z" style="fill:#BA68C8"></path><path d="M342.55,328.41a7.69,7.69,0,0,1,2.29-3.46,2.93,2.93,0,0,1,3.83.13q-1.12-3.43-2.38-6.83a10.56,10.56,0,0,0-2.78-4.68c-1.42-1.16-3.76-1.4-5,0a54.05,54.05,0,0,1,.28,15.81c-.37,2.84-.85,6.1,1.06,8.23.53.43,1.45-.34,1.11-.93-.16-.28-.72-.3-1-.28A50.82,50.82,0,0,1,342.55,328.41Z" style="fill:#fff;opacity:0.5"></path><path d="M326.59,323.67a28.27,28.27,0,0,0,.54,5.74,7.14,7.14,0,0,0,3.2,4.61c-1-3.72-.46-7.67.08-11.48l1-7a5.17,5.17,0,0,1,.71-2.32,1.8,1.8,0,0,1,2.11-.76c-1,.58-2.27-.2-2.87-1.18a29.42,29.42,0,0,0-1.53-3.08c-1.34-1.72-4.2-2.1-6.18-1.64C324.24,312.31,326.36,317.77,326.59,323.67Z" style="fill:#BA68C8"></path><path d="M326.59,323.67a28.27,28.27,0,0,0,.54,5.74,7.14,7.14,0,0,0,3.2,4.61c-1-3.72-.46-7.67.08-11.48l1-7a5.17,5.17,0,0,1,.71-2.32,1.8,1.8,0,0,1,2.11-.76c-1,.58-2.27-.2-2.87-1.18a29.42,29.42,0,0,0-1.53-3.08c-1.34-1.72-4.2-2.1-6.18-1.64C324.24,312.31,326.36,317.77,326.59,323.67Z" style="fill:#BA68C8"></path><g style="opacity:0.5"><path d="M326.59,323.67a28.27,28.27,0,0,0,.54,5.74,7.14,7.14,0,0,0,3.2,4.61c-1-3.72-.46-7.67.08-11.48l1-7a5.17,5.17,0,0,1,.71-2.32,1.8,1.8,0,0,1,2.11-.76c-1,.58-2.27-.2-2.87-1.18a29.42,29.42,0,0,0-1.53-3.08c-1.34-1.72-4.2-2.1-6.18-1.64C324.24,312.31,326.36,317.77,326.59,323.67Z" style="fill:#fff"></path></g><path d="M310.27,308.25a3.51,3.51,0,0,1-1.06-2.1,3,3,0,0,0-1.17-2c-3.07,1.95-1.39,7.66-4.5,9.55-.6.37-1.37.58-1.7,1.2a1.58,1.58,0,0,0,.33,1.76,3,3,0,0,0,1.7.8,6.85,6.85,0,0,0,6.54-2.84c1.22-1.68,2.06-4.38,1.46-6.37A1.54,1.54,0,0,1,310.27,308.25Z" style="fill:#BA68C8"></path><path d="M278.34,345.64c0,.21-.09.48.08.62s.61-.12.81-.4a5.35,5.35,0,0,1,5.95-1.93c.81,0,1.09-1.25.56-1.86a2.89,2.89,0,0,0-2.24-.72,4.36,4.36,0,0,1-2.36-.39,2.34,2.34,0,0,1-1-2.52C279.63,340.85,279,343.24,278.34,345.64Z" style="fill:#BA68C8"></path><g style="opacity:0.5"><path d="M310.27,308.25a3.51,3.51,0,0,1-1.06-2.1,3,3,0,0,0-1.17-2c-3.07,1.95-1.39,7.66-4.5,9.55-.6.37-1.37.58-1.7,1.2a1.58,1.58,0,0,0,.33,1.76,3,3,0,0,0,1.7.8,6.85,6.85,0,0,0,6.54-2.84c1.22-1.68,2.06-4.38,1.46-6.37A1.54,1.54,0,0,1,310.27,308.25Z" style="fill:#fff"></path><path d="M278.34,345.64c0,.21-.09.48.08.62s.61-.12.81-.4a5.35,5.35,0,0,1,5.95-1.93c.81,0,1.09-1.25.56-1.86a2.89,2.89,0,0,0-2.24-.72,4.36,4.36,0,0,1-2.36-.39,2.34,2.34,0,0,1-1-2.52C279.63,340.85,279,343.24,278.34,345.64Z" style="fill:#fff"></path></g><path d="M319.06,307.49c-1.75-.23-3.6-.28-5.13-1.17-1.9-1.12-3.21-3.5-5.42-3.6-2-.09-3.43,1.71-4.54,3.33a6.07,6.07,0,0,1,3.94-5.63,9.78,9.78,0,0,1,7.15.28,26.83,26.83,0,0,1,6.2,3.87,8.31,8.31,0,0,1,2.1,2C325.83,310.5,320.6,307.7,319.06,307.49Z" style="fill:#BA68C8"></path><path d="M319.06,307.49c-1.75-.23-3.6-.28-5.13-1.17-1.9-1.12-3.21-3.5-5.42-3.6-2-.09-3.43,1.71-4.54,3.33a6.07,6.07,0,0,1,3.94-5.63,9.78,9.78,0,0,1,7.15.28,26.83,26.83,0,0,1,6.2,3.87,8.31,8.31,0,0,1,2.1,2C325.83,310.5,320.6,307.7,319.06,307.49Z" style="fill:#fff;opacity:0.5"></path><path d="M287.78,364.28a6.9,6.9,0,0,0,.32-.67A.76.76,0,0,0,287.78,364.28Z" style="fill:#BA68C8"></path><path d="M290.75,348.79c-.2-2.46.15-4.94.05-7.41s-.75-5.07-2.55-6.77c-2.58-2.43-9.65-1.19-7.28,3.43a3,3,0,0,0,3.67,1.37,2.67,2.67,0,0,0,1.25-3.61,12.81,12.81,0,0,1-.61,14.56,11.62,11.62,0,0,1,2.82,13.25,1.46,1.46,0,0,1,1.65,0,5,5,0,0,1,1.27,2.26c.35.81,1,1.65,1.88,1.59,1.2-2.95.81-6.3,0-9.38S291,352,290.75,348.79Z" style="fill:#BA68C8"></path><path d="M316.62,302.42a10,10,0,0,0-4.73-2Z" style="fill:#BA68C8"></path><path d="M328.38,333.71c-.38-1.7-1.17-3.28-1.64-5-1.09-3.91-.4-8.09-.9-12.12a20.92,20.92,0,0,0-7.43-13.45l-1.79-.76a10.09,10.09,0,0,1,3.6,5.24c1.39,4.78,1.82,9.76,2.44,14.7A197.1,197.1,0,0,0,326.81,345C328,341.32,329.21,337.46,328.38,333.71Z" style="fill:#BA68C8"></path><path d="M309.34,315.93a6.29,6.29,0,0,0,2.11-4.11,17,17,0,0,0-.11-4.22,1.4,1.4,0,0,1-1.58.95,3.55,3.55,0,0,1-1.89-1.72l-.36,1.25-.15-.68-.48.61c.71,2,1.4,4.33.3,6.16a7.23,7.23,0,0,1-2.25,2.08A3.8,3.8,0,0,0,309.34,315.93Z" style="fill:#BA68C8"></path><path d="M311.28,307.1l.06.5A.8.8,0,0,0,311.28,307.1Z" style="fill:#BA68C8"></path><path d="M306.05,327.34c-3.5-6.89-7-13.78-10.87-20.48a66.25,66.25,0,0,0-7.64-11.17c-1.34-1.49-5.16-4.95-7.27-2.67-1.41,1.52.44,4.28-1.29,5.93.4,0,2.35-.19,2.56.07a30.41,30.41,0,0,1,6.71,19.39c1.41-1.11,3.35.43,4.45,1.85a326.39,326.39,0,0,1,19,27.1c-1.14-4.13-1.17-8.52-2.39-12.62A45,45,0,0,0,306.05,327.34Z" style="fill:#BA68C8"></path><path d="M346.79,344.13a43.81,43.81,0,0,0,3.13-13.84,22.65,22.65,0,0,0-3.14-12.53c-.58-.93-3-4.77-4.29-4.46-2.35.56.73,4.64,1.27,5.66,2,3.85,4.11,7.92,4,12.27-.1,3.35-1.51,6.5-2.64,9.65a20.79,20.79,0,0,0-1.41,6.86c-.17.26-.33.53-.52.77a10.27,10.27,0,0,1-6.28,4.15c1-3,1.93-6,2.9-9,.35-1.07.47-2.53-.15-3.27a2.8,2.8,0,0,0,.31-1.3,6.61,6.61,0,0,0-.85-2.3c-1.34-2.88-.89-6.23-.56-9.39.4-3.9.55-7.91-.59-11.66s-3.79-7.23-7.51-8.47l1,1-1.26-.92,2.34,4.88-.86,1.23c1.29-.68,2.94.3,3.53,1.63a8.58,8.58,0,0,1,.29,4.31,86.2,86.2,0,0,0,1.18,24.26,11.78,11.78,0,0,1-1.44,5.33,5.25,5.25,0,0,1-5,2.71,5.26,5.26,0,0,0-1.93-5.33c-2,2.8-.82,7.15-.52,10.34a112.45,112.45,0,0,0,2.33,14.36,46.42,46.42,0,0,1,2.55-12q1.62,5.92,3.26,11.85a7,7,0,0,1,.62-3.23,2.41,2.41,0,0,1,2.76-1.28,3.41,3.41,0,0,1,1.65,2.06,36.75,36.75,0,0,1,2,21.63c1.34.75,3.12-.15,3.87-1.49a9,9,0,0,0,.71-4.5Q347.13,364.14,346.79,344.13Z" style="fill:#BA68C8"></path><path d="M312.89,348.36c-.64,1.12,2,5.58,2.41,6.64q3.3,8.07,6.61,16.15a76.45,76.45,0,0,0-5.12-20.68C316.34,349.36,314.16,346.13,312.89,348.36Z" style="fill:#BA68C8"></path><path d="M316.31,319.84c-.38.57-.91,1.27-1.56,1.07s-.72-1-.71-1.63q.1-5.61.19-11.23c-3,2.17-2.64,5-2.85,8.24-.12,1.87.42,10.8-.86,11.89a33.33,33.33,0,0,0,7.44-9.06C317.44,318.69,316.68,319.27,316.31,319.84Z" style="fill:#BA68C8"></path><g style="opacity:0.5"><path d="M287.78,364.28a6.9,6.9,0,0,0,.32-.67A.76.76,0,0,0,287.78,364.28Z" style="fill:#fff"></path><path d="M290.75,348.79c-.2-2.46.15-4.94.05-7.41s-.75-5.07-2.55-6.77c-2.58-2.43-9.65-1.19-7.28,3.43a3,3,0,0,0,3.67,1.37,2.67,2.67,0,0,0,1.25-3.61,12.81,12.81,0,0,1-.61,14.56,11.62,11.62,0,0,1,2.82,13.25,1.46,1.46,0,0,1,1.65,0,5,5,0,0,1,1.27,2.26c.35.81,1,1.65,1.88,1.59,1.2-2.95.81-6.3,0-9.38S291,352,290.75,348.79Z" style="fill:#fff"></path><path d="M316.62,302.42a10,10,0,0,0-4.73-2Z" style="fill:#fff"></path><path d="M328.38,333.71c-.38-1.7-1.17-3.28-1.64-5-1.09-3.91-.4-8.09-.9-12.12a20.92,20.92,0,0,0-7.43-13.45l-1.79-.76a10.09,10.09,0,0,1,3.6,5.24c1.39,4.78,1.82,9.76,2.44,14.7A197.1,197.1,0,0,0,326.81,345C328,341.32,329.21,337.46,328.38,333.71Z" style="fill:#fff"></path><path d="M309.34,315.93a6.29,6.29,0,0,0,2.11-4.11,17,17,0,0,0-.11-4.22,1.4,1.4,0,0,1-1.58.95,3.55,3.55,0,0,1-1.89-1.72l-.36,1.25-.15-.68-.48.61c.71,2,1.4,4.33.3,6.16a7.23,7.23,0,0,1-2.25,2.08A3.8,3.8,0,0,0,309.34,315.93Z" style="fill:#fff"></path><path d="M311.28,307.1l.06.5A.8.8,0,0,0,311.28,307.1Z" style="fill:#fff"></path><path d="M306.05,327.34c-3.5-6.89-7-13.78-10.87-20.48a66.25,66.25,0,0,0-7.64-11.17c-1.34-1.49-5.16-4.95-7.27-2.67-1.41,1.52.44,4.28-1.29,5.93.4,0,2.35-.19,2.56.07a30.41,30.41,0,0,1,6.71,19.39c1.41-1.11,3.35.43,4.45,1.85a326.39,326.39,0,0,1,19,27.1c-1.14-4.13-1.17-8.52-2.39-12.62A45,45,0,0,0,306.05,327.34Z" style="fill:#fff"></path><path d="M346.79,344.13a43.81,43.81,0,0,0,3.13-13.84,22.65,22.65,0,0,0-3.14-12.53c-.58-.93-3-4.77-4.29-4.46-2.35.56.73,4.64,1.27,5.66,2,3.85,4.11,7.92,4,12.27-.1,3.35-1.51,6.5-2.64,9.65a20.79,20.79,0,0,0-1.41,6.86c-.17.26-.33.53-.52.77a10.27,10.27,0,0,1-6.28,4.15c1-3,1.93-6,2.9-9,.35-1.07.47-2.53-.15-3.27a2.8,2.8,0,0,0,.31-1.3,6.61,6.61,0,0,0-.85-2.3c-1.34-2.88-.89-6.23-.56-9.39.4-3.9.55-7.91-.59-11.66s-3.79-7.23-7.51-8.47l1,1-1.26-.92,2.34,4.88-.86,1.23c1.29-.68,2.94.3,3.53,1.63a8.58,8.58,0,0,1,.29,4.31,86.2,86.2,0,0,0,1.18,24.26,11.78,11.78,0,0,1-1.44,5.33,5.25,5.25,0,0,1-5,2.71,5.26,5.26,0,0,0-1.93-5.33c-2,2.8-.82,7.15-.52,10.34a112.45,112.45,0,0,0,2.33,14.36,46.42,46.42,0,0,1,2.55-12q1.62,5.92,3.26,11.85a7,7,0,0,1,.62-3.23,2.41,2.41,0,0,1,2.76-1.28,3.41,3.41,0,0,1,1.65,2.06,36.75,36.75,0,0,1,2,21.63c1.34.75,3.12-.15,3.87-1.49a9,9,0,0,0,.71-4.5Q347.13,364.14,346.79,344.13Z" style="fill:#fff"></path><path d="M312.89,348.36c-.64,1.12,2,5.58,2.41,6.64q3.3,8.07,6.61,16.15a76.45,76.45,0,0,0-5.12-20.68C316.34,349.36,314.16,346.13,312.89,348.36Z" style="fill:#fff"></path><path d="M316.31,319.84c-.38.57-.91,1.27-1.56,1.07s-.72-1-.71-1.63q.1-5.61.19-11.23c-3,2.17-2.64,5-2.85,8.24-.12,1.87.42,10.8-.86,11.89a33.33,33.33,0,0,0,7.44-9.06C317.44,318.69,316.68,319.27,316.31,319.84Z" style="fill:#fff"></path></g></g><path d="M324,307.59a78.74,78.74,0,0,1,2.72,20,10.81,10.81,0,0,0,.36,3.36,3.34,3.34,0,0,0,2.29,2.29" style="fill:none"></path><path d="M338.11,314.16c3,6.26-.07,20.25.15,21.23a3.53,3.53,0,0,0,1.69,2.4" style="fill:none"></path><path d="M312.33,306.74c-.35,2-.64,4.29-1,6.28a11.54,11.54,0,0,1-4-8" style="fill:none"></path><path d="M293.17,360.09,291,361" style="fill:none"></path><path d="M293.72,361.82a12.5,12.5,0,0,0,0,5.06" style="fill:none"></path><path d="M306.36,343.14c.8,1.43,1.59,2.87,2.39,4.31" style="fill:none"></path><path d="M311,327.36l2.38-3.36" style="fill:none"></path><path d="M344.43,343.14l-.72,2.63" style="fill:none"></path><path d="M338.61,335.93q1-3.36,2.11-6.72" style="fill:none"></path><path d="M345.65,324a2.71,2.71,0,0,1,3.64,1.13" style="fill:none"></path><path d="M331.28,312.53a5.17,5.17,0,0,1,4.81,1.1" style="fill:none"></path><path d="M286.74,319.2a7.31,7.31,0,0,1,6.2-2.34" style="fill:none"></path><path d="M277.71,300.34a6.7,6.7,0,0,1,5-1.18" style="fill:none"></path><path d="M279.57,345.09a12.76,12.76,0,0,0-2.93,3.29Z" style="fill:#fff"></path><path d="M280.53,340.55c1.58-1.13,4.1,1.39,5.55.1a2.3,2.3,0,0,0,.49-2.16,7.5,7.5,0,0,1-.29-2.29" style="fill:none"></path><path d="M325.12,333.61a18.11,18.11,0,0,1,1.1,12.82" style="fill:none"></path><path d="M336.74,339.78a8.33,8.33,0,0,1-1,5.5" style="fill:none"></path><path d="M321.11,436.09l-10.44-32.86c-9.8-10.09-27.8-19.32-29.36-33.3-2-17.94-4.77-17.21-4.77-21.67a54.48,54.48,0,0,0,2.76-6.8,37.51,37.51,0,0,0,1-5.41,3.64,3.64,0,0,1,3.84-3.12,6.17,6.17,0,0,1,3.49,1.36,9.38,9.38,0,0,1,3,6.31,27.5,27.5,0,0,1-.53,7.12,46,46,0,0,1,3.83,12.18c.85-3.36,1.44-6.73,2.28-10.09.22-.13.12-.39.32-.53-1.72-3.12-.44-3-3.89-9.95-5.81-11.64-12.18-22.81-17.19-37.59a8.7,8.7,0,0,1-.19-4.24c1.17-4.39,5.66-3.7,7.76-1.32a8.5,8.5,0,0,1,1.35,2.09,114.51,114.51,0,0,0,10.77,17.78l12,15.83s3.58-3.35,4.07-4.78h0c.47-1.43,0-12.69,0-12.69s-.72,2.16-2.63,2.16c-1.38,0-4.12,1-6.26-1.12a5.21,5.21,0,0,1-.61-6.52l4.47-7a7.49,7.49,0,0,1,7.66-1.44,36.61,36.61,0,0,1,9.1,5.51,17.87,17.87,0,0,1,7.66,1c3.6,1.45,7.57,6,7.57,6s4.07,0,6,1.17c.48.3,7.32,9.54,5.58,17.2-1,4.57-1.41,11.13-1.89,12.91l-.12,44.21L356,417.79" style="fill:none;stroke:#263238;stroke-miterlimit:10"></path><path d="M324,307.59a78.74,78.74,0,0,1,2.72,20,10.81,10.81,0,0,0,.36,3.36,3.34,3.34,0,0,0,2.29,2.29" style="fill:none;stroke:#263238;stroke-miterlimit:10"></path><path d="M338.11,314.16c3,6.26-.07,20.25.15,21.23a3.53,3.53,0,0,0,1.69,2.4" style="fill:none;stroke:#263238;stroke-miterlimit:10"></path><path d="M312.33,306.74c-.35,2-.64,4.29-1,6.28a11.54,11.54,0,0,1-4-8" style="fill:none;stroke:#263238;stroke-miterlimit:10"></path><path d="M293.17,360.09,291,361" style="fill:none;stroke:#263238;stroke-miterlimit:10"></path><path d="M293.72,361.82a12.5,12.5,0,0,0,0,5.06" style="fill:none;stroke:#263238;stroke-miterlimit:10"></path><path d="M306.36,343.14c.8,1.43,1.59,2.87,2.39,4.31" style="fill:none;stroke:#263238;stroke-miterlimit:10"></path><path d="M311,327.36l2.38-3.36" style="fill:none;stroke:#263238;stroke-miterlimit:10"></path><path d="M344.43,343.14l-.72,2.63" style="fill:none;stroke:#263238;stroke-miterlimit:10"></path><path d="M338.61,335.93q1-3.36,2.11-6.72" style="fill:none;stroke:#263238;stroke-miterlimit:10"></path><path d="M345.65,324a2.71,2.71,0,0,1,3.64,1.13" style="fill:none;stroke:#263238;stroke-miterlimit:10"></path><path d="M331.28,312.53a5.17,5.17,0,0,1,4.81,1.1" style="fill:none;stroke:#263238;stroke-miterlimit:10"></path><path d="M286.74,319.2a7.31,7.31,0,0,1,6.2-2.34" style="fill:none;stroke:#263238;stroke-miterlimit:10"></path><path d="M277.71,300.34a6.7,6.7,0,0,1,5-1.18" style="fill:none;stroke:#263238;stroke-miterlimit:10"></path><path d="M279.57,345.09a12.76,12.76,0,0,0-2.93,3.29" style="fill:none;stroke:#263238;stroke-miterlimit:10"></path><path d="M280.53,340.55c1.58-1.13,4.1,1.39,5.55.1a2.3,2.3,0,0,0,.49-2.16,7.5,7.5,0,0,1-.29-2.29" style="fill:none;stroke:#263238;stroke-miterlimit:10"></path><path d="M325.12,333.61a18.11,18.11,0,0,1,1.1,12.82" style="fill:none;stroke:#263238;stroke-miterlimit:10"></path><path d="M336.74,339.78a8.33,8.33,0,0,1-1,5.5" style="fill:none;stroke:#263238;stroke-miterlimit:10"></path><path d="M240.05,354.79a6.06,6.06,0,0,1-.09,2.08c-.65,3-2.53,11.78-3.22,16.58-.82,5.86-10.29,24-10.29,24s-8.72,10.84-13.16,16.48c-2.18,2.77-5.63,14-8.56,24.66q-5.55-1.68-11-3.62c-3-1.07-6-2.2-9-3.37A147.09,147.09,0,0,1,169.11,424c1.66-6,2.77-10.67,2.75-10.94-.05-.63,3.56-7.58,3.56-7.58L172.27,364l-1.86-6.31a47.39,47.39,0,0,1-1.83-10,48.34,48.34,0,0,1,1.29-15.33l5.43-8.06,2.54-.19,7.86-11s4.25-1.28,5.34,1.92-3.54,9.18-3.54,9.18l-1.59,9.87,3.78,9.24,2,.72s.66-16.27.21-19.52L196,309.73a70.54,70.54,0,0,0,3.26-7.46c.76-2.49,5.23-5,7.8-.59a6.43,6.43,0,0,1,.4,5.27c-1.05,3.05-1.92,5.45-1.92,5.45s-1,12.58-1.25,12.93,1.85,18.73,1.85,18.73l1.64.73.58-17.55,3.41-16.49s-.28-7.93,5.31-7a4.32,4.32,0,0,1,4.11,2.56c1.49,2.85.07,21.83.07,21.83l1.38,19.62,2.21,15.13,2.6-10.37s.15-14.86,9.53-16.13c0,0,2.79-.5,3.36,1.44s-1.39,5.9-1.11,9.7C239.48,350.23,239.86,353.24,240.05,354.79Z" style="opacity:0.2"></path><path d="M237.2,336.42c-.43-2-3.24-1.69-3.24-1.69-9.45.56-10.72,15.37-10.72,15.37l-3.39,10.14-1-15.26.1-19.67s2.86-18.82,1.59-21.77a4.31,4.31,0,0,0-3.91-2.86c-5.5-1.38-5.82,6.55-5.82,6.55l-4.64,16.18-1.91,17.45-1.58-.84s-.75-18.52-.43-18.83,2.22-12.79,2.22-12.79,1.05-2.33,2.33-5.29a6.43,6.43,0,0,0,0-5.29c-2.23-4.54-6.87-2.42-7.83,0a70.39,70.39,0,0,1-3.8,7.19l-5.3,14.49c.2,3.28-1.68,19.46-1.68,19.46l-1.91-.87-3.07-9.5,2.34-9.73s5.07-5.6,4.22-8.88-5.18-2.32-5.18-2.32L175.88,318h-2.55l-6,7.61a48.27,48.27,0,0,0-1.38,25.29l1.38,6.43v41.56s-4.12,6.66-4.12,7.29c0,.29-1.7,5.54-4.07,12.09,10.37,6.1,19.3,10.82,25.63,13.31,3,1.18,6,2.3,9,3.37,3.8-10.67,8.24-22.08,10.69-24.75,4.86-5.28,14.38-15.44,14.38-15.44s10.81-17.37,12.08-23.14c1-4.74,3.58-13.35,4.46-16.3a5.77,5.77,0,0,0,.24-2.07c-.07-1.56-.22-4.59-.22-7.26C235.36,342.2,237.62,338.39,237.2,336.42Z" style="fill:#fff"></path><g style="clip-path:url(#freepik--clip-path-2--inject-2)"><path d="M172.3,332.24c1.62-2,4.94-2.79,6.82-1a7.17,7.17,0,0,1,1.71,4,8.53,8.53,0,0,0,1.51,4.12c1,1.13,2.89,1.57,3.9.49.14,2.19.27,4.38.41,6.57A26.05,26.05,0,0,0,190.09,333c0-2.27-.39-4.58.14-6.8s2.24-4.36,4.52-4.47c2.52-.11,4.51,2.34,5,4.82s-.08,5-.23,7.54a22.94,22.94,0,0,0,2.16,11.21l1.59-3.22c.48,2.16,1,4.31,1.43,6.46q.62-7.11,1.24-14.21a10.36,10.36,0,0,1,.87-3.9,3.46,3.46,0,0,1,3.21-2c1.8.18,2.84,2.1,3.44,3.8,4.51,12.75,2.65,26.74.74,40.12,1.25.23,2.31-1,2.62-2.27a29,29,0,0,1,.67-3.74c.47-1.19,1.91-2.16,3-1.48,1.58,1,.48,4.06,2.13,4.91a22.82,22.82,0,0,1,4.53-10.93c1.11-1.44,2.77-2.87,4.53-2.41a3.56,3.56,0,0,1,2.37,3c.19,1.34,2.13-4.2,1.79-2.89.76-7.71-.76-8.52,0-16.24.14-1.39,2.39-3.8,1.43-4.82s-3.63-2.4-4.84-1.84-5.13,2.52-5.91,3.59c-4.92,6.79-4.58,16.61-6.11,24.85-1.31-12.56-2.6-25.33-.3-37.74,1.27-6.85,3.61-14,1.4-20.59-1-3-3.69-6-6.82-5.46-2.52.46-4,3-5.07,5.36-3.44,7.9-5,16.48-6.48,25L208.76,303a17.35,17.35,0,0,0,.58-6.74c-.41-2.24-1.94-4.43-4.16-4.9s-4.4.84-6.06,2.36c-6,5.44-8.16,13.74-10.1,21.56a15.52,15.52,0,0,0,1.16-6.31c-.21-2.14-1.57-4.32-3.67-4.79-2.73-.59-5.2,1.84-6.4,4.35s-1.78,5.42-3.69,7.45c-1.39-1.56-4-1.47-5.74-.31a11.09,11.09,0,0,0-3.65,5,46.52,46.52,0,0,0-3.87,22.48,8.23,8.23,0,0,1,8.21-4.68c-.2-1.7-.39-3.4-.59-5.11" style="fill:#BA68C8"></path><path d="M178.89,348.51c-.09,1.26-.17,2.52-.26,3.78a1.82,1.82,0,0,1,2.77-.7,4.14,4.14,0,0,1,.63-2.34c.32-.76.35-1.84-.39-2.2s-1.74.58-2.21,1.44c0-.31-.07-.62-.11-.94Z" style="fill:#BA68C8"></path><path d="M193.23,346.25a8.84,8.84,0,0,0-2,4.18,4.31,4.31,0,0,1,1.47-1.08,1.48,1.48,0,0,1,1.66.38c.22.3.3.74.64.91a.79.79,0,0,0,1-.36,2.28,2.28,0,0,0,.25-1.1,6.08,6.08,0,0,0-.12-2.17,2.11,2.11,0,0,0-1.44-1.51,1.3,1.3,0,0,0-1.57,1.1Z" style="fill:#BA68C8"></path><path d="M207.12,349.69a11.36,11.36,0,0,0-2.1,5,4.38,4.38,0,0,0,1.95-1.05,3.86,3.86,0,0,1,2-1,1.39,1.39,0,0,1,1.55,1.22,9.41,9.41,0,0,1,.08-2.54,5.35,5.35,0,0,0-.18-2.52,2.13,2.13,0,0,0-1.93-1.42,1.34,1.34,0,0,0-1.18,1.8Z" style="fill:#BA68C8"></path><path d="M168.91,354.71a10,10,0,0,0-1.17,4.7,1.64,1.64,0,0,1,1.47-1.46,3.28,3.28,0,0,1,2.13.57,5.78,5.78,0,0,0,.14-2.3,2,2,0,0,0-1.46-1.6c-.77-.12-1.61.61-1.4,1.35l-.23-.57Z" style="fill:#BA68C8"></path><path d="M172.3,332.24c1.62-2,4.94-2.79,6.82-1a7.17,7.17,0,0,1,1.71,4,8.53,8.53,0,0,0,1.51,4.12c1,1.13,2.89,1.57,3.9.49.14,2.19.27,4.38.41,6.57A26.05,26.05,0,0,0,190.09,333c0-2.27-.39-4.58.14-6.8s2.24-4.36,4.52-4.47c2.52-.11,4.51,2.34,5,4.82s-.08,5-.23,7.54a22.94,22.94,0,0,0,2.16,11.21l1.59-3.22c.48,2.16,1,4.31,1.43,6.46q.62-7.11,1.24-14.21a10.36,10.36,0,0,1,.87-3.9,3.46,3.46,0,0,1,3.21-2c1.8.18,2.84,2.1,3.44,3.8,4.51,12.75,2.65,26.74.74,40.12,1.25.23,2.31-1,2.62-2.27a29,29,0,0,1,.67-3.74c.47-1.19,1.91-2.16,3-1.48,1.58,1,.48,4.06,2.13,4.91a22.82,22.82,0,0,1,4.53-10.93c1.11-1.44,2.77-2.87,4.53-2.41a3.56,3.56,0,0,1,2.37,3c.19,1.34,2.13-4.2,1.79-2.89.76-7.71-.76-8.52,0-16.24.14-1.39,2.39-3.8,1.43-4.82s-3.63-2.4-4.84-1.84-5.13,2.52-5.91,3.59c-4.92,6.79-4.58,16.61-6.11,24.85-1.31-12.56-2.6-25.33-.3-37.74,1.27-6.85,3.61-14,1.4-20.59-1-3-3.69-6-6.82-5.46-2.52.46-4,3-5.07,5.36-3.44,7.9-5,16.48-6.48,25L208.76,303a17.35,17.35,0,0,0,.58-6.74c-.41-2.24-1.94-4.43-4.16-4.9s-4.4.84-6.06,2.36c-6,5.44-8.16,13.74-10.1,21.56a15.52,15.52,0,0,0,1.16-6.31c-.21-2.14-1.57-4.32-3.67-4.79-2.73-.59-5.2,1.84-6.4,4.35s-1.78,5.42-3.69,7.45c-1.39-1.56-4-1.47-5.74-.31a11.09,11.09,0,0,0-3.65,5,46.52,46.52,0,0,0-3.87,22.48,8.23,8.23,0,0,1,8.21-4.68c-.2-1.7-.39-3.4-.59-5.11" style="fill:#fff;opacity:0.5"></path><g style="opacity:0.5"><path d="M178.89,348.51c-.09,1.26-.17,2.52-.26,3.78a1.82,1.82,0,0,1,2.77-.7,4.14,4.14,0,0,1,.63-2.34c.32-.76.35-1.84-.39-2.2s-1.74.58-2.21,1.44c0-.31-.07-.62-.11-.94Z" style="fill:#fff"></path><path d="M193.23,346.25a8.84,8.84,0,0,0-2,4.18,4.31,4.31,0,0,1,1.47-1.08,1.48,1.48,0,0,1,1.66.38c.22.3.3.74.64.91a.79.79,0,0,0,1-.36,2.28,2.28,0,0,0,.25-1.1,6.08,6.08,0,0,0-.12-2.17,2.11,2.11,0,0,0-1.44-1.51,1.3,1.3,0,0,0-1.57,1.1Z" style="fill:#fff"></path><path d="M207.12,349.69a11.36,11.36,0,0,0-2.1,5,4.38,4.38,0,0,0,1.95-1.05,3.86,3.86,0,0,1,2-1,1.39,1.39,0,0,1,1.55,1.22,9.41,9.41,0,0,1,.08-2.54,5.35,5.35,0,0,0-.18-2.52,2.13,2.13,0,0,0-1.93-1.42,1.34,1.34,0,0,0-1.18,1.8Z" style="fill:#fff"></path><path d="M168.91,354.71a10,10,0,0,0-1.17,4.7,1.64,1.64,0,0,1,1.47-1.46,3.28,3.28,0,0,1,2.13.57,5.78,5.78,0,0,0,.14-2.3,2,2,0,0,0-1.46-1.6c-.77-.12-1.61.61-1.4,1.35l-.23-.57Z" style="fill:#fff"></path></g></g><path d="M159.11,418.29c2.37-6.55,4.07-11.8,4.07-12.09,0-.63,4.12-7.29,4.12-7.29V357.35l-1.38-6.43a48.27,48.27,0,0,1,1.38-25.29l6-7.61h2.55l8.66-10.36s4.34-1,5.18,2.32-4.22,8.88-4.22,8.88l-2.34,9.73,3.07,9.5,1.91.87s1.88-16.18,1.68-19.46l5.3-14.49a70.39,70.39,0,0,0,3.8-7.19c1-2.42,5.6-4.54,7.83,0a6.43,6.43,0,0,1,0,5.29c-1.28,3-2.33,5.29-2.33,5.29s-1.9,12.47-2.22,12.79.43,18.83.43,18.83l1.58.84,1.91-17.45,4.64-16.18s.32-7.93,5.82-6.55a4.31,4.31,0,0,1,3.91,2.86c1.27,2.95-1.59,21.77-1.59,21.77L218.8,345l1,15.26,3.39-10.14s1.27-14.81,10.72-15.37c0,0,2.81-.29,3.24,1.69s-1.84,5.78-1.84,9.59c0,2.67.15,5.7.22,7.26a5.77,5.77,0,0,1-.24,2.07c-.88,3-3.42,11.56-4.46,16.3-1.27,5.77-12.08,23.14-12.08,23.14s-9.52,10.16-14.38,15.44c-2.45,2.67-6.89,14.08-10.69,24.75" style="fill:none;stroke:#263238;stroke-miterlimit:10"></path><path d="M188,340.52a6,6,0,0,1-1.42,5.7" style="fill:#fff;stroke:#263238;stroke-miterlimit:10"></path><path d="M171.84,354.5c1.37-2.12,2.71-5.05,2.34-7.55-.72-4.91-3-10.56-2-15.42.64-3.1,1.28-6.21,1.93-9.31" style="fill:#fff;stroke:#263238;stroke-miterlimit:10"></path><path d="M211.71,308.12a9.81,9.81,0,0,1,5,0c0-.47,0-.93.05-1.4" style="fill:none;stroke:#263238;stroke-miterlimit:10"></path><path d="M198.58,301.88a3.2,3.2,0,0,0,5-2.67" style="fill:none;stroke:#263238;stroke-miterlimit:10"></path><path d="M234.72,336.59a6.13,6.13,0,0,0-4.59,6.33l2.45.74" style="fill:none;stroke:#263238;stroke-miterlimit:10"></path><path d="M202.54,337.81c.11,1.68-.1,5.69,0,7.37" style="fill:#fff;stroke:#263238;stroke-miterlimit:10"></path><path d="M204.38,340.14q-.3,4.11-.61,8.24c0-.35,0-.7,0-1.05" style="fill:#fff;stroke:#263238;stroke-miterlimit:10"></path><path d="M219.64,363.31a13.74,13.74,0,0,1-.94,9.06" style="fill:#fff;stroke:#263238;stroke-miterlimit:10"></path><path d="M194.29,348.9c-2.18,2.39-1.86,8.13-.32,11.28" style="fill:none;stroke:#263238;stroke-miterlimit:10"></path><path d="M210.4,352.85a11.23,11.23,0,0,1-2.67,7.33" style="fill:none;stroke:#263238;stroke-miterlimit:10"></path><path d="M178.41,350a10.22,10.22,0,0,0,1.49,7" style="fill:none;stroke:#263238;stroke-miterlimit:10"></path><path d="M169.13,357.51a8.53,8.53,0,0,0,1.54,5.34" style="fill:none;stroke:#263238;stroke-miterlimit:10"></path><path d="M181.85,311.41a3.17,3.17,0,0,1,3.5.56l1.23-1.63" style="fill:none;stroke:#263238;stroke-miterlimit:10"></path><path d="M192.11,318.75a4.16,4.16,0,0,1,5.29.89" style="fill:none;stroke:#263238;stroke-miterlimit:10"></path><path d="M208.13,323.75a6.7,6.7,0,0,1,5.69.12" style="fill:none;stroke:#263238;stroke-miterlimit:10"></path><path d="M172.48,332.14a5.41,5.41,0,0,1,5.24-2.6" style="fill:none;stroke:#263238;stroke-miterlimit:10"></path><path d="M165.77,341.7a2.84,2.84,0,0,1,2.37-2.66" style="fill:none;stroke:#263238;stroke-miterlimit:10"></path></g></svg>