<svg xmlns="http://www.w3.org/2000/svg" xmlns:xlink="http://www.w3.org/1999/xlink" viewBox="0 0 500 500"><defs><clipPath id="freepik--clip-path--inject-2"><path d="M347.67,388.48l.12-44.21c.48-1.78.87-8.34,1.89-12.91,1.74-7.66-5.1-16.9-5.58-17.2-1.92-1.19-6-1.17-6-1.17s-4-4.57-7.57-6a17.87,17.87,0,0,0-7.66-1,36.61,36.61,0,0,0-9.1-5.51,7.49,7.49,0,0,0-7.66,1.44l-4.47,7a5.21,5.21,0,0,0,.61,6.52c2.14,2.11,4.88,1.12,6.26,1.12,1.91,0,2.63-2.16,2.63-2.16s.47,11.26,0,12.69h0c-.49,1.43-4.07,4.78-4.07,4.78l-12-15.83a114.51,114.51,0,0,1-10.77-17.78,8.5,8.5,0,0,0-1.35-2.09c-2.1-2.38-6.59-3.07-7.76,1.32a8.7,8.7,0,0,0,.19,4.24c5,14.78,11.38,25.95,17.19,37.59,3.45,6.91,2.17,6.83,3.89,9.95-.2.14-.1.4-.32.53-.84,3.36-1.43,6.73-2.28,10.09a46,46,0,0,0-3.83-12.18,27.5,27.5,0,0,0,.53-7.12,9.38,9.38,0,0,0-3-6.31,6.17,6.17,0,0,0-3.49-1.36,3.64,3.64,0,0,0-3.84,3.12,37.51,37.51,0,0,1-1,5.41,54.48,54.48,0,0,1-2.76,6.8c0,4.46,2.76,3.73,4.77,21.67,1.56,14,19.56,23.21,29.36,33.3l10.44,32.86A202.3,202.3,0,0,0,356,417.79Z" style="fill:#fff"></path></clipPath><clipPath id="freepik--clip-path-2--inject-2"><path d="M237.2,336.42c-.43-2-3.24-1.69-3.24-1.69-9.45.56-10.72,15.37-10.72,15.37l-3.39,10.14-1-15.26.1-19.67s2.86-18.82,1.59-21.77a4.31,4.31,0,0,0-3.91-2.86c-5.5-1.38-5.82,6.55-5.82,6.55l-4.64,16.18-1.91,17.45-1.58-.84s-.75-18.52-.43-18.83,2.22-12.79,2.22-12.79,1.05-2.33,2.33-5.29a6.43,6.43,0,0,0,0-5.29c-2.23-4.54-6.87-2.42-7.83,0a70.39,70.39,0,0,1-3.8,7.19l-5.3,14.49c.2,3.28-1.68,19.46-1.68,19.46l-1.91-.87-3.07-9.5,2.34-9.73s5.07-5.6,4.22-8.88-5.18-2.32-5.18-2.32L175.88,318h-2.55l-6,7.61a48.27,48.27,0,0,0-1.38,25.29l1.38,6.43v41.56s-4.12,6.66-4.12,7.29c0,.29-1.7,5.54-4.07,12.09,10.37,6.1,19.3,10.82,25.63,13.31,3,1.18,6,2.3,9,3.37,3.8-10.67,8.24-22.08,10.69-24.75,4.86-5.28,14.38-15.44,14.38-15.44s10.81-17.37,12.08-23.14c1-4.74,3.58-13.35,4.46-16.3a5.77,5.77,0,0,0,.24-2.07c-.07-1.56-.22-4.59-.22-7.26C235.36,342.2,237.62,338.39,237.2,336.42Z" style="fill:#fff"></path></clipPath><clipPath id="freepik--clip-path-3--inject-2"><path d="M450,317.12a71.82,71.82,0,0,1-1,11.86c-2.9,17.31-12,29.93-22.76,29.93a13.68,13.68,0,0,1-2.86-.3c-11.75-2.49-20.86-20.11-20.86-41.49,0-23.08,10.62-31.25,23.72-31.25S450,294,450,317.12Z" style="fill:#fff;stroke:#263238;stroke-miterlimit:10"></path></clipPath></defs><g id="freepik--speech-bubbles--inject-2"><path d="M171.9,239.07H150.81a5,5,0,0,0-5,5v10.26a5,5,0,0,0,5,5h5.51l4.18,9.47,5.89-9.47h5.51a5,5,0,0,0,5-5V244A5,5,0,0,0,171.9,239.07Z" style="fill:#fff;stroke:#263238;stroke-linecap:round;stroke-linejoin:round"></path><path d="M158.42,244.94a1,1,0,0,1,1-1,1,1,0,0,1,1,.93,1,1,0,0,1-1,1A1,1,0,0,1,158.42,244.94Zm.22,2.09h1.61v6.86h-1.61Z" style="fill:#263238"></path><path d="M164.12,246.67v.41H166v1.29h-1.83v5.52h-1.61v-5.52h-1.13v-1.29h1.13v-.43a2.22,2.22,0,0,1,2.45-2.38,2.64,2.64,0,0,1,1.46.37l-.45,1.21a1.59,1.59,0,0,0-.89-.28C164.47,245.57,164.12,245.94,164.12,246.67Z" style="fill:#263238"></path><path d="M236.12,240.5H215a5,5,0,0,0-5,5v10.27a5,5,0,0,0,5,5h5.52l4.17,9.47,5.89-9.47h5.52a5,5,0,0,0,5-5V245.46A5,5,0,0,0,236.12,240.5Z" style="fill:#fff;stroke:#263238;stroke-linecap:round;stroke-linejoin:round"></path><path d="M219.46,252.41h-5.39a2.08,2.08,0,0,0,2.23,1.65,2.46,2.46,0,0,0,1.86-.75l.86,1a3.85,3.85,0,0,1-6.55-2.4,3.41,3.41,0,0,1,3.54-3.51,3.34,3.34,0,0,1,3.47,3.55C219.48,252.07,219.47,252.26,219.46,252.41Zm-5.4-1.06H218a1.86,1.86,0,0,0-1.94-1.67A1.89,1.89,0,0,0,214.06,251.35Z" style="fill:#263238"></path><path d="M221,245.8h1.6v9.53H221Z" style="fill:#263238"></path><path d="M224,254.65l.61-1.22a4.62,4.62,0,0,0,2.39.68c1,0,1.44-.28,1.44-.76,0-1.31-4.24-.08-4.24-2.81,0-1.3,1.17-2.15,3-2.15a5.51,5.51,0,0,1,2.57.59l-.62,1.22a3.78,3.78,0,0,0-2-.51c-1,0-1.44.32-1.44.77,0,1.39,4.24.15,4.24,2.84,0,1.28-1.18,2.12-3.11,2.12A5.4,5.4,0,0,1,224,254.65Z" style="fill:#263238"></path><path d="M237.77,252.41h-5.39a2.08,2.08,0,0,0,2.23,1.65,2.46,2.46,0,0,0,1.86-.75l.86,1a3.85,3.85,0,0,1-6.55-2.4,3.41,3.41,0,0,1,3.54-3.51,3.34,3.34,0,0,1,3.47,3.55C237.79,252.07,237.78,252.26,237.77,252.41Zm-5.4-1.06h3.89a1.86,1.86,0,0,0-1.94-1.67A1.89,1.89,0,0,0,232.37,251.35Z" style="fill:#263238"></path><path d="M298.38,239.9h-21.1a5,5,0,0,0-5,4.95v10.27a5,5,0,0,0,5,5h5.52l4.17,9.47,5.89-9.47h5.52a5,5,0,0,0,5-5V244.85A5,5,0,0,0,298.38,239.9Z" style="fill:#fff;stroke:#263238;stroke-linecap:round;stroke-linejoin:round"></path><path d="M282.12,247.5v.41H284v1.29h-1.84v5.52h-1.6V249.2h-1.13v-1.29h1.13v-.43A2.22,2.22,0,0,1,283,245.1a2.54,2.54,0,0,1,1.45.37l-.45,1.21a1.54,1.54,0,0,0-.88-.28C282.47,246.4,282.12,246.77,282.12,247.5Z" style="fill:#263238"></path><path d="M284.42,251.29a3.66,3.66,0,1,1,3.65,3.52A3.46,3.46,0,0,1,284.42,251.29Zm5.69,0a2,2,0,1,0-2,2.15A2,2,0,0,0,290.11,251.29Z" style="fill:#263238"></path><path d="M297.23,247.78v1.53a2.6,2.6,0,0,0-.37,0,1.87,1.87,0,0,0-2,2.12v3.33h-1.61v-6.86h1.53v1A2.71,2.71,0,0,1,297.23,247.78Z" style="fill:#263238"></path><path d="M359.74,239.07h-21.1a5,5,0,0,0-5,5v10.26a5,5,0,0,0,5,5h5.52l4.17,9.47,5.89-9.47h5.52a5,5,0,0,0,5-5V244A5,5,0,0,0,359.74,239.07Z" style="fill:#fff;stroke:#263238;stroke-linecap:round;stroke-linejoin:round"></path><path d="M346.45,246.69h5.92V248h-5.92Zm0,3.11h5.92v1.29h-5.92Z" style="fill:#263238"></path><path d="M204.06,227.19H183a5,5,0,0,0-5,5v10.26a5,5,0,0,0,5,5h5.52l4.17,9.47,5.89-9.47h5.52a5,5,0,0,0,5-5V232.15A5,5,0,0,0,204.06,227.19Z" style="fill:#fff;stroke:#263238;stroke-linecap:round;stroke-linejoin:round"></path><path d="M188.55,231.45h3.07v1.29h-1.47v9.45h1.47v1.29h-3.07Z" style="fill:#263238"></path><path d="M195.6,243.48v-1.29h1.45v-9.45H195.6v-1.29h3.05v12Z" style="fill:#263238"></path><path d="M266.78,226.14h-21.1a5,5,0,0,0-5,5v10.26a5,5,0,0,0,5,5h5.52l4.18,9.47,5.89-9.47h5.51a5,5,0,0,0,5-5V231.1A5,5,0,0,0,266.78,226.14Z" style="fill:#fff;stroke:#263238;stroke-linecap:round;stroke-linejoin:round"></path><path d="M251.94,236.38c.51.16.76.51.76,1.31v2.44a.86.86,0,0,0,1,1h.27v1.29h-.65a1.91,1.91,0,0,1-2.18-2.1v-2.64c0-.43-.22-.62-.58-.62h-.42v-1.31h.42c.36,0,.58-.19.58-.62v-2.64a1.91,1.91,0,0,1,2.18-2.1h.65v1.29h-.27a.86.86,0,0,0-1,1v2.44C252.7,235.86,252.45,236.21,251.94,236.38Z" style="fill:#263238"></path><path d="M261.74,235.72V237h-.44c-.35,0-.57.19-.57.62v2.64a1.91,1.91,0,0,1-2.19,2.1h-.65V241.1h.27a.87.87,0,0,0,1-1v-2.44c0-.8.23-1.15.74-1.31-.51-.17-.74-.52-.74-1.32v-2.44a.87.87,0,0,0-1-1h-.27v-1.29h.65a1.91,1.91,0,0,1,2.19,2.1v2.64c0,.43.22.62.57.62Z" style="fill:#263238"></path><path d="M328.84,224.06h-21.1a5,5,0,0,0-5,5v10.26a5,5,0,0,0,5,5h5.51l4.18,9.47,5.89-9.47h5.52a5,5,0,0,0,5-5V229A5,5,0,0,0,328.84,224.06Z" style="fill:#fff;stroke:#263238;stroke-linecap:round;stroke-linejoin:round"></path><path d="M317.45,231.66a1.06,1.06,0,1,1,2.11,0,1.06,1.06,0,1,1-2.11,0Zm2.11,4.89a3,3,0,0,1-.3,1.11l-.66,1.81h-1l.52-2a1,1,0,0,1-.61-.95,1,1,0,1,1,2.09,0Z" style="fill:#263238"></path><path d="M246.36,403.5h21.09a5,5,0,0,0,5-5V388.28a5,5,0,0,0-5-5h-5.51l-1.61-9.47-8.46,9.47h-5.51a5,5,0,0,0-5,5v10.26A5,5,0,0,0,246.36,403.5Z" style="fill:#fff;stroke:#263238;stroke-linecap:round;stroke-linejoin:round"></path><path d="M253.77,391.3,249.34,393l4.43,1.65V396l-5.92-2.3v-1.39l5.92-2.3Z" style="fill:#263238"></path><path d="M258.45,386.63h1.43l-4.24,12.11h-1.43Z" style="fill:#263238"></path><path d="M266.11,392.26v1.39l-5.92,2.3v-1.34l4.43-1.65-4.43-1.66V390Z" style="fill:#263238"></path><path d="M112.24,328.75h21.09a5,5,0,0,0,5-4.95V313.53a5,5,0,0,0-5-5h-5.51l1.2-9.47-11.27,9.47h-5.51a5,5,0,0,0-5,5V323.8A5,5,0,0,0,112.24,328.75Z" style="fill:#fff;stroke:#263238;stroke-linecap:round;stroke-linejoin:round"></path><path d="M118.49,322.25a1,1,0,0,1,1-1,1,1,0,0,1,1,1,1,1,0,0,1-1,1A1,1,0,0,1,118.49,322.25Zm.09-8.09h1.9l-.32,6h-1.27Z" style="fill:#263238"></path><path d="M122.14,316.46h5.92v1.29h-5.92Zm0,3.11h5.92v1.29h-5.92Z" style="fill:#263238"></path></g></svg>