<svg xmlns="http://www.w3.org/2000/svg" viewBox="0 0 750 500"><g id="freepik--background-complete--inject-26"><path d="M255.84,429.26c-2.77,3.46-.81,9,2.84,11.5s8.32,2.85,12.75,3.1l59.43,3.39c-5.66,2.37-11.49,4.85-15.79,9.23s-6.73,11.21-4.24,16.82c3.56,8,14.2,9.3,22.93,8.9,63.43-2.94,123-35.55,186.52-36.08,26.41-.21,52.52,5.16,78.83,7.47s53.93,1.32,77.44-10.71c3-1.52,6.14-3.57,6.84-6.83s-2.78-7.23-7.66-6.79" style="fill:#ebebeb"></path><path d="M63.91,429.56c-3.86,3.67-.39,8.45,1.27,10.16a17.37,17.37,0,0,0,6.07,3.62c15.53,6.39,32.35,9,49.09,10.42,10,.83,20.32,1.27,29.75,4.82,8.15,3.07,15.41,8.36,23.83,10.6s19.1.18,22.71-7.74c2.59-5.68,1.16-13.37,5.92-17.41,2.1-1.79,4.95-2.35,7.55-3.27s5.31-2.56,6-5.24c.73-3-.3-5-3.1-6.26" style="fill:#ebebeb"></path><path d="M365.25,52.27c.58-4.27-5.45-7.79-10-8.16-2.16-.17-4.41.16-6.46-.56-4.44-1.54-6.21-7.28-10.54-9.11-3.24-1.36-7-.15-10.11,1.43s-6.25,3.57-9.75,3.8c-3.06.19-6.37-.94-9,.55-2,1.11-3,3.4-4.86,4.76s-4.14,1.6-6.36,1.72-4.53.14-6.56,1.07-3.71,3.07-3.28,5.26Z" style="fill:#e0e0e0"></path><path d="M289.93,102.73c.85-6.14-7.83-11.2-14.34-11.73-3.11-.25-6.34.23-9.29-.8-6.38-2.22-8.92-10.46-15.15-13.09-4.65-2-10-.22-14.52,2.06s-9,5.12-14,5.45c-4.38.28-9.14-1.35-13,.79-2.86,1.6-4.36,4.89-7,6.84s-5.94,2.3-9.14,2.47-6.51.21-9.42,1.54-5.32,4.42-4.72,7.56Z" style="fill:#ebebeb"></path><path d="M706.83,120.29c.84-6.14-7.83-11.2-14.35-11.73-3.11-.25-6.34.23-9.28-.8-6.38-2.22-8.93-10.46-15.15-13.09-4.66-2-10-.22-14.53,2s-9,5.13-14,5.46c-4.39.28-9.15-1.35-13,.79-2.86,1.6-4.36,4.89-7,6.84s-5.94,2.3-9.13,2.47-6.51.21-9.43,1.54-5.32,4.42-4.71,7.56Z" style="fill:#ebebeb"></path><path d="M111.29,77.41c.4-2.91-3.71-5.31-6.79-5.56-1.48-.12-3,.11-4.4-.38-3-1-4.23-5-7.18-6.2-2.2-.93-4.74-.1-6.87,1s-4.25,2.43-6.64,2.58c-2.08.13-4.33-.64-6.15.38C71.91,70,71.2,71.52,70,72.44a8,8,0,0,1-4.33,1.18,12.17,12.17,0,0,0-4.46.72,3.52,3.52,0,0,0-2.23,3.58Z" style="fill:#ebebeb"></path><path d="M637.36,62.74c.4-2.91-3.71-5.3-6.8-5.55-1.47-.12-3,.11-4.39-.38-3-1.05-4.23-5-7.18-6.2-2.2-.93-4.74-.1-6.88,1s-4.25,2.43-6.63,2.58c-2.08.14-4.33-.63-6.15.38-1.35.76-2.06,2.32-3.31,3.24A7.87,7.87,0,0,1,591.69,59a12.18,12.18,0,0,0-4.46.73A3.52,3.52,0,0,0,585,63.26Z" style="fill:#ebebeb"></path><path d="M533.12,30.81a11.12,11.12,0,0,1-1.11-.24,8.92,8.92,0,0,0-3.06-.09,8.37,8.37,0,0,0-7,6.38l0,0-.17.68-.26-.64a9.22,9.22,0,0,0-3.46-4.19,8.88,8.88,0,0,0-4.22-1.43,11.39,11.39,0,0,0-4.14.53,3.35,3.35,0,0,1,1-.46,8.87,8.87,0,0,1,3.11-.39,9,9,0,0,1,4.43,1.4A9.35,9.35,0,0,1,522,36.78l-.43,0v-.05A8.76,8.76,0,0,1,524.6,32a8.39,8.39,0,0,1,4.31-1.79,8.29,8.29,0,0,1,3.14.23A3.58,3.58,0,0,1,533.12,30.81Z" style="fill:#e0e0e0"></path><path d="M435.86,44.79s-.36.42-1,1.17a25.48,25.48,0,0,0-2.48,3.37,24.56,24.56,0,0,0-3.69,13.1v.16l-.46,0a22,22,0,0,0-6-12A29.31,29.31,0,0,0,417.77,47s.14,0,.37.16.57.3,1,.57a19.48,19.48,0,0,1,3.29,2.61,21.64,21.64,0,0,1,6.25,12.19l-.45,0v-.16a24,24,0,0,1,3.88-13.28,22.43,22.43,0,0,1,2.62-3.33c.34-.36.64-.61.83-.79A1.28,1.28,0,0,1,435.86,44.79Z" style="fill:#e0e0e0"></path><path d="M482.05,117.71c0,.05-.79-.27-2.26-.6a18,18,0,0,0-6.3-.24,16.92,16.92,0,0,0-8.48,3.66,17.59,17.59,0,0,0-6,9.52l0,.1-.18.68-.26-.64a19,19,0,0,0-7.17-8.67,18.4,18.4,0,0,0-8.77-2.92,19.41,19.41,0,0,0-6.26.58c-1.44.38-2.21.71-2.22.67a3.56,3.56,0,0,1,.54-.26,14.36,14.36,0,0,1,1.64-.59,18.72,18.72,0,0,1,15.29,2.17A19.13,19.13,0,0,1,459,130l-.43,0,0-.11a17.92,17.92,0,0,1,6.17-9.74,17.48,17.48,0,0,1,15.1-3.26,13.86,13.86,0,0,1,1.66.53A2.75,2.75,0,0,1,482.05,117.71Z" style="fill:#e0e0e0"></path><path d="M565.76,81.24s-.44-.13-1.25-.29a9.8,9.8,0,0,0-3.44-.1,9.25,9.25,0,0,0-4.62,2,9.68,9.68,0,0,0-3.26,5.19v0l-.18.68-.26-.64a10.4,10.4,0,0,0-3.9-4.73,10.07,10.07,0,0,0-4.77-1.61,11,11,0,0,0-3.43.28c-.79.2-1.22.37-1.23.33s.09-.07.29-.16a6.29,6.29,0,0,1,.89-.34,10.28,10.28,0,0,1,8.48,1.15,10.61,10.61,0,0,1,4.1,4.91l-.44,0,0-.06a9.91,9.91,0,0,1,3.43-5.41,9.65,9.65,0,0,1,8.37-1.76,6.84,6.84,0,0,1,.92.31C565.67,81.17,565.77,81.22,565.76,81.24Z" style="fill:#e0e0e0"></path><path d="M503.86,69s-.43.49-1.21,1.37a30.48,30.48,0,0,0-3,4A29.15,29.15,0,0,0,495.3,89.9v.19l-.46,0A25.45,25.45,0,0,0,492,81.72a25.89,25.89,0,0,0-4.32-5.84,26.22,26.22,0,0,0-3.75-3.18c-1-.66-1.51-1-1.49-1s.15,0,.42.2.68.35,1.17.68a23.8,23.8,0,0,1,3.88,3.1,25.79,25.79,0,0,1,7.39,14.42l-.46,0v-.2a28.57,28.57,0,0,1,4.58-15.71,26.08,26.08,0,0,1,3.1-3.94c.39-.43.75-.73,1-1A1.79,1.79,0,0,1,503.86,69Z" style="fill:#e0e0e0"></path></g></svg>