<svg xmlns="http://www.w3.org/2000/svg" viewBox="0 0 750 500"><g id="freepik--Mountains--inject-26"><polygon points="571.58 243.54 474.64 166.58 417.42 222.69 312.36 120.88 208.94 222.69 92.65 428.54 660.43 428.54 571.58 243.54" style="fill:#7E57C2"></polygon><g style="opacity:0.8"><polygon points="571.58 243.54 474.64 166.58 417.42 222.69 312.36 120.88 208.94 222.69 92.65 428.54 660.43 428.54 571.58 243.54" style="fill:#fff"></polygon></g><polygon points="253.22 179.1 303.03 145.12 290.71 170.8 319.07 143.45 354.04 161.28 312.36 120.88 253.22 179.1" style="fill:#fafafa"></polygon><polygon points="417.42 222.69 395.91 251.96 469.72 187.73 475.47 200.66 484.31 184.28 504.22 190.06 474.64 166.58 417.42 222.69" style="fill:#fafafa"></polygon><path d="M412.4,224.3a4.71,4.71,0,0,1-.61-.49l-1.65-1.48c-1.44-1.28-3.48-3.18-6-5.56-5-4.74-11.71-11.48-19.06-19s-14-14.28-19-19.09L360.31,173l-1.59-1.55a4.32,4.32,0,0,1-.53-.56,4.1,4.1,0,0,1,.6.49l1.66,1.47c1.43,1.28,3.47,3.19,6,5.56,5,4.75,11.72,11.48,19.07,19s14,14.27,18.95,19.09l5.85,5.67,1.59,1.55A3.94,3.94,0,0,1,412.4,224.3Z" style="fill:#7E57C2"></path><path d="M658.84,425.14l-4.71-9.88-18-37.54L571.78,243.44l0-.05,0,0c-29.37-23.33-62-49.26-96.91-77l-.17-.14-.16.15-57.05,55.94-14.71-14.26L312.53,120.7l-.17-.17-.18.17L208.8,222.55l0,0,0,0-54,102.86q-5,9.57-8.83,16.86c.42-.7.85-1.39,1.29-2.08q3.43-6.51,7.75-14.67l54.14-102.75C238.81,193.59,274,159,312.36,121.23l90,87.22,14.89,14.43.18.18.19-.18,57.05-56,96.74,76.76c26.74,55.6,49,101.82,64.53,134.15L654,415.31c2.09,4.32,3.69,7.63,4.78,9.86s1.65,3.37,1.65,3.37S659.9,427.38,658.84,425.14Z" style="fill:#263238"></path></g></svg>