<svg xmlns="http://www.w3.org/2000/svg" viewBox="0 0 750 500"><g id="freepik--Sun--inject-26"><path d="M363.86,144.55c-.11.09-11.55-13.25-25.54-29.8s-25.25-30-25.14-30.13,11.54,13.25,25.54,29.8S364,144.45,363.86,144.55Z" style="fill:#7E57C2"></path><path d="M393.74,131.13c-.14,0-3.21-15.94-6.86-35.64s-6.49-35.72-6.35-35.74,3.21,15.93,6.86,35.64S393.89,131.1,393.74,131.13Z" style="fill:#7E57C2"></path><path d="M445.82,58.48c.14.05-5,16.91-11.45,37.67s-11.81,37.56-11.95,37.51,5-16.9,11.45-37.67S445.69,58.44,445.82,58.48Z" style="fill:#7E57C2"></path><path d="M512.07,79.46c.11.09-13,15.56-29.35,34.55S453.08,148.32,453,148.22s13-15.56,29.35-34.55S512,79.36,512.07,79.46Z" style="fill:#7E57C2"></path><path d="M528.11,147.3c.06.14-9.41,4.16-21.14,9s-21.28,8.65-21.34,8.52,9.41-4.16,21.15-9S528.06,147.17,528.11,147.3Z" style="fill:#7E57C2"></path><path d="M359.44,165.76c11.39-17.9,34.22-27.7,55-23.64s38.87,17.71,43.63,39.58l-41,40.21Z" style="fill:#7E57C2"></path><path d="M435.31,155a4.29,4.29,0,0,1-.69-.41c-.44-.28-1.06-.75-1.92-1.25a52.58,52.58,0,0,0-7.47-3.89,53.21,53.21,0,0,0-12-3.49A51.82,51.82,0,0,0,372.8,156.3a51.07,51.07,0,0,0-6.21,5.68c-.7.71-1.18,1.32-1.54,1.7a4.13,4.13,0,0,1-.56.58,4.64,4.64,0,0,1,.48-.65c.33-.4.79-1,1.47-1.77a47.75,47.75,0,0,1,6.13-5.83A51.78,51.78,0,0,1,398,145.09a51.89,51.89,0,0,1,27.38,4,47.44,47.44,0,0,1,7.43,4c.84.53,1.45,1,1.87,1.33A5.27,5.27,0,0,1,435.31,155Z" style="fill:#fff"></path><path d="M442.83,162.27c-.14.06-.73-1.13-1.75-2.39s-2.05-2.1-2-2.22a6.95,6.95,0,0,1,3.71,4.61Z" style="fill:#fff"></path></g></svg>