<svg xmlns="http://www.w3.org/2000/svg" viewBox="0 0 750 500"><g id="freepik--Trees--inject-26"><polygon points="241 328.12 234.2 291.29 223.87 325.57 226.93 324.37 219.43 344.85 223.75 342.93 218.55 350.76 241.99 350.67 239.98 343.82 241.98 347.38 237.56 325.82 241 328.12" style="fill:#7E57C2"></polygon><polygon points="241 328.12 234.2 291.29 223.87 325.57 226.93 324.37 219.43 344.85 223.75 342.93 218.55 350.76 241.99 350.67 239.98 343.82 241.98 347.38 237.56 325.82 241 328.12" style="fill:#fff;opacity:0.6"></polygon><polygon points="263.41 313.13 254.47 263.69 240.44 309.62 244.55 308.02 234.39 335.45 240.2 332.9 233.18 350.76 264.62 350.76 261.96 334.18 264.62 338.96 258.81 310.03 263.41 313.13" style="fill:#7E57C2"></polygon><polygon points="263.41 313.13 254.47 263.69 240.44 309.62 244.55 308.02 234.39 335.45 240.2 332.9 233.18 350.76 264.62 350.76 261.96 334.18 264.62 338.96 258.81 310.03 263.41 313.13" style="fill:#fff;opacity:0.4"></polygon><polygon points="491.37 317.58 484.7 280.7 474.23 314.97 477.3 313.78 469.72 334.24 474.05 332.33 468.82 345.66 492.27 345.66 490.29 333.29 492.27 336.86 487.94 315.27 491.37 317.58" style="fill:#7E57C2"></polygon><polygon points="491.37 317.58 484.7 280.7 474.23 314.97 477.3 313.78 469.72 334.24 474.05 332.33 468.82 345.66 492.27 345.66 490.29 333.29 492.27 336.86 487.94 315.27 491.37 317.58" style="fill:#fff;opacity:0.6"></polygon><polygon points="218.08 335.74 214.51 316.02 208.91 334.34 210.55 333.71 206.5 344.65 208.81 343.63 206.02 350.76 218.56 350.76 217.5 344.14 218.56 346.05 216.24 334.51 218.08 335.74" style="fill:#7E57C2"></polygon><polygon points="218.08 335.74 214.51 316.02 208.91 334.34 210.55 333.71 206.5 344.65 208.81 343.63 206.02 350.76 218.56 350.76 217.5 344.14 218.56 346.05 216.24 334.51 218.08 335.74" style="fill:#fff;opacity:0.4"></polygon><polygon points="475.13 322.22 469.53 291.26 460.75 320.02 463.32 319.02 456.96 336.2 460.6 334.6 456.2 345.78 475.89 345.78 474.23 335.4 475.89 338.39 472.25 320.28 475.13 322.22" style="fill:#7E57C2"></polygon><polygon points="475.13 322.22 469.53 291.26 460.75 320.02 463.32 319.02 456.96 336.2 460.6 334.6 456.2 345.78 475.89 345.78 474.23 335.4 475.89 338.39 472.25 320.28 475.13 322.22" style="fill:#fff;opacity:0.4"></polygon><path d="M497.39,345.91H451.66c-.1,0-.18-.06-.18-.13s.08-.12.18-.12h45.73c.1,0,.18,0,.18.12S497.49,345.91,497.39,345.91Z" style="fill:#263238"></path><path d="M279,350.88H198.26c-.18,0-.32-.05-.32-.12s.14-.13.32-.13H279c.18,0,.32.06.32.13S279.15,350.88,279,350.88Z" style="fill:#263238"></path><polygon points="600.44 292.65 568.05 113.75 517.29 279.95 532.17 274.18 495.41 373.44 516.42 364.2 491.04 428.84 604.81 428.84 595.18 368.82 604.81 386.13 583.77 281.43 600.44 292.65" style="fill:#263238"></polygon><polygon points="179.71 298.8 146.22 71.4 99.89 286.62 114.17 281.07 78.88 376.37 99.05 367.51 74.68 429.56 183.91 429.56 174.67 371.94 183.91 388.56 163.7 288.03 179.71 298.8" style="fill:#263238"></polygon><rect x="190.98" y="371.79" width="9.88" height="57.47" style="fill:#263238"></rect><path d="M193.23,127.05c0,1.35-26.52,84.94-26.52,84.94L180,198.51l-19.1,58.42,12.58-17.53-14.83,73.26,7.19-7.64L153.23,356.7,164,343.21l-10.78,38.65,85.39-6.29-20.23-72.8,12.22,13.48-15.81-53,8.09,4.49L204.46,199.4l8.54,5.85Z" style="fill:#455a64"></path><polygon points="686.3 342.01 665.43 226.7 632.71 333.83 642.3 330.11 618.61 394.09 632.14 388.14 616.52 429.19 689.04 429.26 682.92 391.12 689.12 402.28 675.56 334.78 686.3 342.01" style="fill:#455a64"></polygon><polygon points="612.91 340.76 600.32 333.53 596.14 311.83 592.62 312.8 595.67 333.3 583.6 325.13 580.95 328.16 596.93 338.33 612.91 345.82 612.91 340.76" style="fill:#263238"></polygon><rect x="611.17" y="309.11" width="9.23" height="119.75" style="fill:#263238"></rect><path d="M613.26,80.38c0,1.26-24.78,79.38-24.78,79.38l12.39-12.6L583,201.76l11.76-16.38-13.86,68.46,6.72-7.14L575.88,295,586,282.4l-10.08,36.12,79.8-5.88-18.9-68,11.42,12.6-14.78-49.56,7.56,4.2L623.76,148l8,5.46Z" style="fill:#7E57C2"></path><path d="M615.94,219.82a6,6,0,0,1-.4,1.16c-.31.81-.73,1.87-1.24,3.17l-4.47,10.93-.2.49-.24-.46a55.87,55.87,0,0,1-3.26-7.24c-.36-1-.68-1.94-1-2.87l.48,0c-2.2,5.61-4.35,10.5-6,14-.81,1.74-1.48,3.12-2,4.07-.22.43-.41.78-.57,1.08a1.62,1.62,0,0,1-.22.36,10.3,10.3,0,0,1,.62-1.52l1.82-4.13c1.54-3.51,3.63-8.41,5.81-14l.27-.69.22.71c.28.92.61,1.87,1,2.84a57.75,57.75,0,0,0,3.2,7.18l-.44,0c1.86-4.35,3.46-8.11,4.64-10.86l1.37-3.11A6.17,6.17,0,0,1,615.94,219.82Z" style="fill:#263238"></path><path d="M624.44,190.66a5.29,5.29,0,0,1-.45-.84c-.3-.64-.69-1.44-1.14-2.39-1-2-2.44-4.86-4.32-8l.45-.06c-.4,1.54-.82,3.19-1.27,4.91-.28,1.07-.56,2.11-.82,3.12l-.19.7-.29-.66c-1.7-3.78-3.18-7.12-4.21-9.52l-1.2-2.82a5,5,0,0,1-.37-1,4.67,4.67,0,0,1,.54,1c.35.74.8,1.66,1.33,2.77,1.12,2.35,2.65,5.66,4.37,9.44l-.48,0c.26-1,.54-2.05.82-3.12.45-1.72.89-3.37,1.29-4.91l.15-.58.31.52a83.29,83.29,0,0,1,4.17,8.15c.46,1,.8,1.87,1,2.45A3.59,3.59,0,0,1,624.44,190.66Z" style="fill:#263238"></path><path d="M613.14,130.81a22.23,22.23,0,0,1-1.41,2.78c-.93,1.7-2.26,4.06-3.79,6.74l-.35.61-.13-.69c-.14-.78-.28-1.58-.43-2.4-.25-1.43-.48-2.79-.71-4.06l.46.09c-1.43,2.26-2.67,4.18-3.56,5.54a16.12,16.12,0,0,1-1.5,2.12,14.28,14.28,0,0,1,1.24-2.28c.82-1.4,2-3.37,3.4-5.64l.34-.55.11.63.74,4.06q.21,1.23.42,2.4l-.48-.08c1.56-2.67,2.94-5,4-6.66A20.08,20.08,0,0,1,613.14,130.81Z" style="fill:#263238"></path><rect x="81.76" y="354.25" width="12.89" height="75" style="fill:#455a64"></rect><path d="M85.46,107.6c0,1.38-27,86.6-27,86.6l13.52-13.74L52.47,240,65.3,222.15,50.18,296.84l7.33-7.79L44.68,341.74l11-13.74-11,39.4L131.74,361l-20.62-74.23,12.45,13.75-16.12-54.07L115.7,251,96.91,181.37l8.71,6Z" style="fill:#7E57C2"></path><path d="M98.42,245.36s-.11-.07-.29-.24l-.79-.76c-.72-.72-1.7-1.7-2.92-2.9L84.36,231.24l.41-.13c-.57,3.34-1.19,7-1.84,10.82l-1.09,6.24-.15.89-.33-.83a93.3,93.3,0,0,1-5-16.84c-.42-2.16-.68-3.9-.84-5.09-.08-.6-.12-1.07-.15-1.38a1.67,1.67,0,0,1,0-.49,2.71,2.71,0,0,1,.11.47l.24,1.37c.21,1.19.52,2.91,1,5A101.26,101.26,0,0,0,81.83,248l-.49.06c.35-2,.7-4.11,1.07-6.25.67-3.82,1.3-7.48,1.88-10.81l.08-.48.34.35,9.92,10.35,2.82,3,.74.81A1.44,1.44,0,0,1,98.42,245.36Z" style="fill:#263238"></path><path d="M66.75,313a66,66,0,0,1,2-11.5,33.09,33.09,0,0,1-.72,5.79A32.07,32.07,0,0,1,66.75,313Z" style="fill:#263238"></path><path d="M96.5,283.79a2.86,2.86,0,0,1-.23.65l-.76,1.82-2.88,6.68-9.76,22.19-.32.73-.17-.78-.44-2c-1.29-5.88-2.51-11.42-3.56-16.23l.41.08-8,11.72L68.55,312l-.61.85a1.84,1.84,0,0,1-.24.29,1.48,1.48,0,0,1,.17-.33l.56-.89,2.17-3.36,7.81-11.83.3-.45.12.53c1.07,4.8,2.31,10.34,3.62,16.22l.44,2-.49-.05c3.88-8.68,7.37-16.45,9.9-22.12,1.27-2.76,2.29-5,3-6.62l.84-1.78A2.94,2.94,0,0,1,96.5,283.79Z" style="fill:#263238"></path><path d="M103.35,350.82a90,90,0,0,1-6.14-7.44,89.22,89.22,0,0,1-5.73-7.77,91.32,91.32,0,0,1,6.14,7.45A90.06,90.06,0,0,1,103.35,350.82Z" style="fill:#263238"></path><path d="M95.07,174.41a6.85,6.85,0,0,1-.65-.88L92.71,171l-5.85-9,.43-.08c-.59,3-1.14,6.3-1.54,9.82-.32,2.79-.53,5.49-.64,8l0,.94-.42-.84a57.2,57.2,0,0,1-4.23-11.37c-.36-1.45-.6-2.62-.74-3.42a7.07,7.07,0,0,1-.16-1.24,6.71,6.71,0,0,1,.32,1.21c.19.79.47,1.94.88,3.37a62.07,62.07,0,0,0,4.37,11.22l-.47.1c.1-2.48.3-5.19.62-8,.41-3.54,1-6.88,1.59-9.86l.13-.58.31.5,5.7,9.1,1.59,2.62A5.77,5.77,0,0,1,95.07,174.41Z" style="fill:#263238"></path></g><g id="freepik--Rock--inject-26"><polygon points="458.6 429.19 469 392.24 534.83 355.86 572.21 355.86 578.16 368.1 587.42 367.1 603.3 395.22 616.53 393.23 651.52 429.42 458.6 429.19" style="fill:#e0e0e0"></polygon><polygon points="469 392.24 525.46 392.24 572.21 355.86 534.83 355.86 469 392.24" style="fill:#f5f5f5"></polygon><path d="M570.84,396.56c-.67,0-32.09,17.48-32.09,17.48l-10.61,14.71,7.29-.05L544,414.54l33-17.1Z" style="fill:#f5f5f5"></path><path d="M600.6,427.45c-.12.08-5.24-6.68-11.43-15.11S578,397,578.15,396.93s5.24,6.67,11.44,15.1S600.71,427.36,600.6,427.45Z" style="fill:#f5f5f5"></path><path d="M458.6,429.2l1,0,2.86,0,11,0,40.79-.1L652,428.78l-.18.44-27-27.17-8.56-8.63.22.07-13.23,2-.18,0-.09-.15L587.2,367.23l.25.12-9.26,1-.18,0-.07-.16L572,356l.22.14-37.38,0,.11,0-65.87,36.32.07-.09c-6.65,23.28-10.25,35.9-10.54,36.92,0,0,0-.21.16-.62s.28-1,.5-1.84c.46-1.64,1.13-4.06,2-7.21,1.76-6.33,4.34-15.59,7.6-27.33l0-.05.05,0,65.79-36.46,0,0h.06l37.38,0h.15l.07.14,6,12.24-.25-.14,9.26-1,.17,0,.08.15,15.88,28.11-.26-.13,13.23-2,.13,0,.09.09q4.26,4.29,8.57,8.63l26.94,27.18.43.44H652l-138,0-40.72,0-10.93,0H458.6Z" style="fill:#263238"></path></g><g id="freepik--Plants--inject-26"><path d="M219.63,343.79a4.74,4.74,0,0,0-6.41,5.51c-3.09-1.36-6.92.46-8.59,3.39s-1.53,6.59-.57,9.82a5.35,5.35,0,0,0-3.16,9.54,5.34,5.34,0,0,0-2.14,10.35A7.06,7.06,0,0,0,204.57,395a7.44,7.44,0,0,0,11.15,6.29,11.42,11.42,0,0,0,17.44,1.39c2.25,1.39,4.75,2.71,7.41,2.56s5.36-2.32,5.12-5c2.4.82,5.06,1.51,7.41.57s3.85-4.21,2.17-6.1a7.63,7.63,0,0,0,8.58-7.49,5.92,5.92,0,0,0,7.65-8.11c2.89-1.11,3.83-5,2.66-7.92s-3.8-4.86-6.42-6.52a8.37,8.37,0,0,0-7.65-13.08,6.25,6.25,0,0,0-10.38-6.09c.15-4.26-4.66-7.89-8.71-6.55-1.25.41-2.43,1.2-3.74,1.15-1.8-.05-3.16-1.61-4.85-2.2a4.9,4.9,0,0,0-6.21,3.84,2.26,2.26,0,0,0-2.66-2,3.63,3.63,0,0,0-2.61,2.51,10.73,10.73,0,0,0-.38,3.75" style="fill:#7E57C2"></path><path d="M218.74,380.42c.15,0,1.47,11,3,24.54s2.58,24.58,2.44,24.6-1.47-11-3-24.54S218.6,380.44,218.74,380.42Z" style="fill:#263238"></path><path d="M220.71,396.4a42.13,42.13,0,0,1-4.27-5.12,42.93,42.93,0,0,1-3.86-5.44,44.13,44.13,0,0,1,4.27,5.12A42.93,42.93,0,0,1,220.71,396.4Z" style="fill:#263238"></path><path d="M228.6,365.49c.15,0,.78,14.31,1.41,32s1,32,.88,32-.77-14.31-1.4-32S228.46,365.49,228.6,365.49Z" style="fill:#263238"></path><path d="M236.45,366.15a2.69,2.69,0,0,1,0,.65c0,.47,0,1.08,0,1.83-.05,1.67-.11,4-.19,6.77-.16,5.7-.33,13.59-.36,22.3s.07,16.6.19,22.31c.06,2.81.1,5.1.14,6.76,0,.76,0,1.37,0,1.84a4.72,4.72,0,0,1,0,.65,2.52,2.52,0,0,1-.08-.64c0-.48-.07-1.08-.12-1.84-.1-1.59-.21-3.9-.31-6.76-.21-5.71-.38-13.6-.34-22.32s.25-16.61.51-22.32c.12-2.85.25-5.16.36-6.75l.13-1.84A4.73,4.73,0,0,1,236.45,366.15Z" style="fill:#263238"></path><path d="M239.76,387.19a14.72,14.72,0,0,1-4.25,7.16c-.11-.1,1-1.57,2.2-3.54S239.62,387.14,239.76,387.19Z" style="fill:#263238"></path><path d="M251,375.33a2.09,2.09,0,0,1-.08.56c-.08.41-.19.93-.32,1.56-.32,1.42-.74,3.36-1.26,5.72-1.06,4.83-2.47,11.51-3.87,18.92s-2.51,14.15-3.29,19c-.37,2.38-.68,4.34-.91,5.78-.11.64-.19,1.16-.26,1.57a2.41,2.41,0,0,1-.13.55,2.19,2.19,0,0,1,0-.56c.05-.42.1-1,.17-1.59.15-1.37.41-3.36.75-5.81.68-4.9,1.74-11.65,3.14-19.08s2.87-14.09,4-18.91c.58-2.4,1.06-4.34,1.42-5.68l.42-1.54A2.2,2.2,0,0,1,251,375.33Z" style="fill:#263238"></path><path d="M255.43,386.53a33.73,33.73,0,0,1-4.21,4.17,34.54,34.54,0,0,1-4.57,3.79,33.09,33.09,0,0,1,4.22-4.18A34.26,34.26,0,0,1,255.43,386.53Z" style="fill:#263238"></path><path d="M248.81,384.43a29.79,29.79,0,0,1-3.63-6.88,28.8,28.8,0,0,1,3.63,6.88Z" style="fill:#263238"></path><path d="M271.49,355.65a6.92,6.92,0,0,1,5.11-7.35,6.74,6.74,0,0,1-5.11,7.35" style="fill:#7E57C2"></path><path d="M273.12,359c1.53,2.44,6.33,3,9.2,1.45a6.77,6.77,0,0,0-9.2-1.45" style="fill:#7E57C2"></path><g style="opacity:0.30000000000000004"><path d="M240.38,355.84a8.53,8.53,0,0,0,.61,6.64c1.09,2,3.29,3.06,5.5,3.64A10.76,10.76,0,0,0,240.38,355.84Z"></path></g><path d="M122.65,386.5a11.21,11.21,0,0,1,.7,1.62c.42,1.05,1,2.59,1.65,4.51,1.34,3.82,3,9.17,4.52,15.16s2.55,11.51,3.18,15.51c.31,2,.54,3.62.66,4.75a10.72,10.72,0,0,1,.15,1.75,11.86,11.86,0,0,1-.35-1.72l-.83-4.72c-.72-4-1.82-9.46-3.32-15.44s-3.11-11.33-4.36-15.18l-1.49-4.55A11.51,11.51,0,0,1,122.65,386.5Z" style="fill:#fafafa"></path><path d="M132.46,395.1a7.66,7.66,0,0,1,.47,1.32c.28.86.66,2.12,1.1,3.67.9,3.11,2.07,7.42,3.24,12.22s2.14,9.15,2.79,12.32c.32,1.59.57,2.87.72,3.76a6.53,6.53,0,0,1,.19,1.4,8.23,8.23,0,0,1-.39-1.35c-.23-1-.53-2.23-.88-3.73-.74-3.14-1.76-7.49-2.93-12.28s-2.29-9.11-3.09-12.24c-.38-1.49-.69-2.74-.94-3.71A6.23,6.23,0,0,1,132.46,395.1Z" style="fill:#fafafa"></path><path d="M147.93,384.76a10.4,10.4,0,0,1-.29,1.72c-.22,1.1-.52,2.69-.86,4.66a139.85,139.85,0,0,0-1.8,15.51,138.25,138.25,0,0,0,0,15.62c.11,2,.23,3.61.32,4.73a9.45,9.45,0,0,1,.09,1.74,13.87,13.87,0,0,1-.29-1.72c-.16-1.11-.33-2.73-.49-4.73a115.13,115.13,0,0,1,1.79-31.22c.39-2,.74-3.55,1-4.63A12.63,12.63,0,0,1,147.93,384.76Z" style="fill:#fafafa"></path><path d="M153.28,410.67a23.75,23.75,0,0,1-.54,2.79A56.57,56.57,0,0,0,151.56,427a20.13,20.13,0,0,1,0,2.84,12.15,12.15,0,0,1-.41-2.82,40.79,40.79,0,0,1,0-6.89,41.38,41.38,0,0,1,1.15-6.79A12.25,12.25,0,0,1,153.28,410.67Z" style="fill:#fafafa"></path><path d="M444.33,379.05l0,.13c0,.1.06.22.11.37.09.33.25.81.42,1.43.36,1.24.83,3.06,1.29,5.33a85.11,85.11,0,0,1,1.49,18c-.12,7.07-.82,13.44-1.33,18-.27,2.28-.48,4.14-.64,5.45-.06.63-.12,1.12-.16,1.48l0,.39c0,.09,0,.13,0,.13s0,0,0-.13l.07-.38c0-.36.12-.85.22-1.48.18-1.28.43-3.14.72-5.44A170.72,170.72,0,0,0,448,404.29a81.51,81.51,0,0,0-1.58-18c-.49-2.27-1-4.09-1.39-5.32-.18-.62-.36-1.09-.47-1.42,0-.14-.1-.26-.13-.36S444.34,379.05,444.33,379.05Z" style="fill:#7E57C2"></path><path d="M447.4,393.52c.28.29,2.05-1,3.66-3.15s2.37-4.2,2-4.39-1.63,1.48-3.18,3.52S447.12,393.24,447.4,393.52Z" style="fill:#7E57C2"></path><path d="M442,387.61c-.25.32.77,1.53,2.19,2.82s2.73,2.17,3,1.89-.59-1.65-2.05-3S442.22,387.3,442,387.61Z" style="fill:#7E57C2"></path><path d="M446.67,387.77c.34.18,1.81-1.95,2.76-5s1-5.59.6-5.64-1.06,2.33-2,5.21S446.31,387.58,446.67,387.77Z" style="fill:#7E57C2"></path><path d="M439.34,379.12c-.29.26,1,2.22,3,4.36s3.76,3.67,4.05,3.4-1-2.22-3-4.37S439.64,378.85,439.34,379.12Z" style="fill:#7E57C2"></path><path d="M447.73,400.54c.27.29,2.32-1.18,4.36-3.5s3.23-4.54,2.91-4.77-2,1.56-4,3.81S447.46,400.25,447.73,400.54Z" style="fill:#7E57C2"></path><path d="M443.22,393.38c-.32.24.41,1.73,1.63,3.32s2.46,2.69,2.78,2.45-.41-1.73-1.63-3.33S443.54,393.14,443.22,393.38Z" style="fill:#7E57C2"></path><path d="M447.74,407.77c.27.28,2.22-1.21,3.94-3.65s2.48-4.77,2.12-4.93-1.65,1.78-3.3,4.1S447.45,407.49,447.74,407.77Z" style="fill:#7E57C2"></path><path d="M443.4,401.32c-.29.28.48,1.57,1.63,3s2.26,2.41,2.59,2.17-.29-1.65-1.47-3.09S443.69,401.05,443.4,401.32Z" style="fill:#7E57C2"></path><path d="M447.23,413.9c.3.27,2.14-1.33,4.11-3.56s3.32-4.26,3-4.53-2.14,1.34-4.11,3.57S446.93,413.64,447.23,413.9Z" style="fill:#7E57C2"></path><path d="M441.82,408.31c-.31.26.73,2,2.19,3.93s2.84,3.41,3.18,3.18-.52-2.07-2-4.06S442.12,408.05,441.82,408.31Z" style="fill:#7E57C2"></path><path d="M446.53,421.74c.28.28,2.51-1.4,5-3.77s4.25-4.51,4-4.8-2.51,1.39-5,3.76S446.26,421.45,446.53,421.74Z" style="fill:#7E57C2"></path><path d="M441.81,414.84c-.35.17.19,2,1.52,3.76s2.86,2.87,3.13,2.58-.72-1.72-2-3.43S442.17,414.65,441.81,414.84Z" style="fill:#7E57C2"></path><path d="M42.59,389.55a12.7,12.7,0,0,1,1,1.43c.6.94,1.44,2.32,2.44,4,2,3.45,4.59,8.32,7.1,13.86s4.44,10.72,5.71,14.5c.63,1.89,1.11,3.43,1.41,4.5a11.6,11.6,0,0,1,.43,1.68,12.59,12.59,0,0,1-.62-1.62l-1.57-4.44c-1.35-3.74-3.34-8.87-5.83-14.4s-5-10.41-7-13.9l-2.3-4.11A11.43,11.43,0,0,1,42.59,389.55Z" style="fill:#263238"></path><path d="M62.64,373.46a2,2,0,0,1,0,.58c0,.43-.07,1-.13,1.65-.13,1.43-.29,3.49-.47,6.05-.37,5.11-.69,12.19-.6,20s.6,14.89,1.1,20c.24,2.55.46,4.62.63,6,.07.67.12,1.21.17,1.64a2.32,2.32,0,0,1,0,.58,3.34,3.34,0,0,1-.13-.56c-.07-.43-.15-1-.26-1.63-.23-1.42-.51-3.48-.8-6-.59-5.1-1.14-12.18-1.25-20s.29-14.93.75-20.05c.23-2.56.45-4.62.64-6,.09-.67.17-1.21.23-1.64A3.71,3.71,0,0,1,62.64,373.46Z" style="fill:#263238"></path><path d="M74.83,395.34a6.67,6.67,0,0,1-.48,1.31c-.34.82-.82,2-1.39,3.51a101,101,0,0,0-6,24.14c-.19,1.58-.33,2.87-.42,3.76a6,6,0,0,1-.19,1.37,8.73,8.73,0,0,1,0-1.39c0-.89.11-2.19.26-3.78a84.44,84.44,0,0,1,6-24.24c.62-1.47,1.16-2.66,1.56-3.46A7.59,7.59,0,0,1,74.83,395.34Z" style="fill:#263238"></path><path d="M57,429.56a38.49,38.49,0,0,0-3.91-7.21,38.09,38.09,0,0,0-5.75-5.85,7.85,7.85,0,0,1,2.06,1.31A21.92,21.92,0,0,1,53.47,422a21.63,21.63,0,0,1,2.84,5.17A8,8,0,0,1,57,429.56Z" style="fill:#263238"></path><path d="M425.13,374.55a2.37,2.37,0,0,1,.21.52l.52,1.53c.44,1.32,1,3.25,1.72,5.65,1.39,4.79,3.09,11.48,4.56,19s2.39,14.32,2.91,19.28c.26,2.48.44,4.49.53,5.89,0,.65.07,1.18.1,1.6a2.17,2.17,0,0,1,0,.56,3.19,3.19,0,0,1-.1-.55c-.05-.42-.11-.95-.19-1.59-.17-1.46-.41-3.45-.69-5.87-.62-4.94-1.61-11.76-3.06-19.22s-3.11-14.15-4.4-19l-1.57-5.69-.42-1.55A2.08,2.08,0,0,1,425.13,374.55Z" style="fill:#263238"></path><path d="M423.39,403.38a4.85,4.85,0,0,1,.53,1c.31.63.74,1.56,1.24,2.7,1,2.3,2.34,5.51,3.66,9.11s2.38,6.91,3.09,9.32c.36,1.2.63,2.18.8,2.87a5.05,5.05,0,0,1,.22,1.07,4,4,0,0,1-.41-1c-.27-.77-.58-1.71-1-2.81-.8-2.38-1.91-5.66-3.23-9.25s-2.58-6.81-3.51-9.14c-.42-1.09-.79-2-1.09-2.77A4.44,4.44,0,0,1,423.39,403.38Z" style="fill:#263238"></path><path d="M429.81,427.07a65.35,65.35,0,0,0-4-6.8,63.33,63.33,0,0,0-5.23-5.93,8,8,0,0,1,1.87,1.41,27.48,27.48,0,0,1,6.62,9.11A8,8,0,0,1,429.81,427.07Z" style="fill:#263238"></path><path d="M489,429.9a3.9,3.9,0,0,1-.28-.5c-.18-.39-.41-.88-.7-1.47s-.66-1.43-1-2.36-.85-2-1.28-3.16c-.91-2.36-1.87-5.22-2.8-8.44s-1.76-6.8-2.44-10.61-1.07-7.47-1.31-10.81-.29-6.36-.22-8.89c0-1.26.08-2.4.12-3.41s.11-1.86.18-2.57.12-1.19.16-1.62a2.33,2.33,0,0,1,.1-.56,3.13,3.13,0,0,1,0,.57c0,.43,0,1-.07,1.62s-.08,1.57-.09,2.57-.07,2.15,0,3.41c0,2.52.1,5.52.34,8.85s.69,7,1.34,10.75,1.52,7.36,2.39,10.57,1.82,6.07,2.69,8.44c.4,1.19.84,2.25,1.2,3.18s.68,1.74,1,2.39l.61,1.51A2.22,2.22,0,0,1,489,429.9Z" style="fill:#7E57C2"></path><path d="M483.09,413.79c1.24-7.52,3.73-24.61,11.23-34.77a24.59,24.59,0,0,0-9,9.75,66.63,66.63,0,0,0-4.85,12.49S483,414.15,483.09,413.79Z" style="fill:#7E57C2"></path><path d="M484.29,417.62a14.12,14.12,0,0,1,8.78-15c-2.71,3.34-5.56,7-5.75,11.31-.17,3.7-.33,7.39-.5,11.09-.89-2.39-1.64-5-2.53-7.38" style="fill:#7E57C2"></path><path d="M482.49,411.17a62.55,62.55,0,0,0-6-7.18,18.46,18.46,0,0,0-7.18-5.09,88.09,88.09,0,0,1,15.39,20.45" style="fill:#7E57C2"></path><path d="M479,387.44A21.61,21.61,0,0,0,471,375.71a15.62,15.62,0,0,0,1.2,2.51c2.48,4.51,4.62,9,7.11,13.53" style="fill:#7E57C2"></path><path d="M479.33,378.21a28.57,28.57,0,0,1,4.32-10.07,17.06,17.06,0,0,1,8.65-6.53,46.06,46.06,0,0,0-13.19,20.84" style="fill:#7E57C2"></path><path d="M479.9,377c-.07-3.91-1.37-8-4.38-10.49a3.73,3.73,0,0,0-2.07-1,1.71,1.71,0,0,0-1.81,1.16,1.8,1.8,0,0,0,.58,1.63,7.79,7.79,0,0,0,1.49,1,11.91,11.91,0,0,1,5.5,9" style="fill:#7E57C2"></path><path d="M45.37,429.6a2.23,2.23,0,0,1-.22-.39c-.14-.31-.32-.69-.55-1.16s-.52-1.12-.82-1.85-.66-1.55-1-2.49c-.72-1.85-1.47-4.1-2.21-6.63s-1.38-5.35-1.91-8.34-.84-5.87-1-8.49-.23-5-.18-7c0-1,.07-1.89.1-2.68s.09-1.47.14-2,.1-.94.13-1.27a2.16,2.16,0,0,1,.07-.45,1.47,1.47,0,0,1,0,.45c0,.34,0,.76,0,1.28s-.06,1.23-.07,2-.06,1.68,0,2.67c0,2,.07,4.35.26,7s.55,5.47,1.06,8.45,1.19,5.78,1.88,8.31,1.43,4.77,2.11,6.63c.32.94.66,1.77.94,2.5s.54,1.37.76,1.88.35.87.48,1.18S45.39,429.59,45.37,429.6Z" style="fill:#7E57C2"></path><path d="M40.72,416.94c1-5.91,2.94-19.35,8.83-27.33a19.42,19.42,0,0,0-7,7.66,53.39,53.39,0,0,0-3.81,9.82S40.68,417.22,40.72,416.94Z" style="fill:#7E57C2"></path><path d="M41.67,420a11.12,11.12,0,0,1,6.9-11.81c-2.13,2.63-4.37,5.51-4.52,8.89l-.39,8.72c-.7-1.88-1.29-3.92-2-5.8" style="fill:#7E57C2"></path><path d="M40.25,414.88a49.93,49.93,0,0,0-4.74-5.65,14.76,14.76,0,0,0-5.64-4A69.55,69.55,0,0,1,42,421.31" style="fill:#7E57C2"></path><path d="M37.53,396.23A17,17,0,0,0,31.19,387a12.31,12.31,0,0,0,.95,2c2,3.55,3.63,7.09,5.58,10.63" style="fill:#7E57C2"></path><path d="M37.77,389a22.45,22.45,0,0,1,3.4-7.92A13.41,13.41,0,0,1,48,375.93,36.11,36.11,0,0,0,37.6,392.31" style="fill:#7E57C2"></path><path d="M38.22,388c0-3.07-1.08-6.28-3.44-8.25a3,3,0,0,0-1.63-.78,1.36,1.36,0,0,0-1.43.91,1.49,1.49,0,0,0,.46,1.29,6.77,6.77,0,0,0,1.17.81A9.36,9.36,0,0,1,37.68,389" style="fill:#7E57C2"></path></g><g id="freepik--Floor--inject-26"><path d="M721.81,429.26c0,.14-151.36.26-338,.26s-338.07-.12-338.07-.26S197,429,383.78,429,721.81,429.11,721.81,429.26Z" style="fill:#263238"></path></g></svg>